<svg width="256" height="256" viewBox="0 0 256 256" fill="none" xmlns="http://www.w3.org/2000/svg">
<g clip-path="url(#clip0_646_141)">
<path d="M64 17H48V33H64V17Z" fill="black"/>
<path d="M80 17H64V33H80V17Z" fill="black"/>
<path d="M96 17H80V33H96V17Z" fill="black"/>
<path d="M176 17H160V33H176V17Z" fill="black"/>
<path d="M192 17H176V33H192V17Z" fill="black"/>
<path d="M208 17H192V33H208V17Z" fill="black"/>
<path d="M48 33H32V49H48V33Z" fill="black"/>
<path d="M112 33H96V49H112V33Z" fill="black"/>
<path d="M128 33H112V49H128V33Z" fill="black"/>
<path d="M144 33H128V49H144V33Z" fill="black"/>
<path d="M160 33H144V49H160V33Z" fill="black"/>
<path d="M224 33H208V49H224V33Z" fill="black"/>
<path d="M32 49H16V65H32V49Z" fill="black"/>
<path d="M48 49H32V65H48V49Z" fill="black"/>
<path d="M224 49H208V65H224V49Z" fill="black"/>
<path d="M240 49H224V65H240V49Z" fill="black"/>
<path d="M16 65H0V81H16V65Z" fill="black"/>
<path d="M32 65H16V81H32V65Z" fill="black"/>
<path d="M80 65H64V81H80V65Z" fill="black"/>
<path d="M160 65H144V81H160V65Z" fill="black"/>
<path d="M176 65H160V81H176V65Z" fill="black"/>
<path d="M240 65H224V81H240V65Z" fill="black"/>
<path d="M256 65H240V81H256V65Z" fill="black"/>
<path d="M16 81H0V97H16V81Z" fill="black"/>
<path d="M80 81H64V97H80V81Z" fill="black"/>
<path d="M144 81H128V97H144V81Z" fill="black"/>
<path d="M160 81H144V97H160V81Z" fill="black"/>
<path d="M176 81H160V97H176V81Z" fill="black"/>
<path d="M192 81H176V97H192V81Z" fill="black"/>
<path d="M256 81H240V97H256V81Z" fill="black"/>
<path d="M16 97H0V113H16V97Z" fill="black"/>
<path d="M80 97H64V113H80V97Z" fill="black"/>
<path d="M112 97H96V113H112V97Z" fill="black"/>
<path d="M144 97H128V113H144V97Z" fill="black"/>
<path d="M176 97H160V113H176V97Z" fill="black"/>
<path d="M192 97H176V113H192V97Z" fill="black"/>
<path d="M256 97H240V113H256V97Z" fill="black"/>
<path d="M16 113H0V129H16V113Z" fill="black"/>
<path d="M48 113H32V129H48V113Z" fill="black"/>
<path d="M64 113H48V129H64V113Z" fill="black"/>
<path d="M112 113H96V129H112V113Z" fill="black"/>
<path d="M144 113H128V129H144V113Z" fill="black"/>
<path d="M176 113H160V129H176V113Z" fill="black"/>
<path d="M192 113H176V129H192V113Z" fill="black"/>
<path d="M208 113H192V129H208V113Z" fill="black"/>
<path d="M224 113H208V129H224V113Z" fill="black"/>
<path d="M256 113H240V129H256V113Z" fill="black"/>
<path d="M16 129H0V145H16V129Z" fill="black"/>
<path d="M32 129H16V145H32V129Z" fill="black"/>
<path d="M48 129H32V145H48V129Z" fill="black"/>
<path d="M64 129H48V145H64V129Z" fill="black"/>
<path d="M144 129H128V145H144V129Z" fill="black"/>
<path d="M160 129H144V145H160V129Z" fill="black"/>
<path d="M176 129H160V145H176V129Z" fill="black"/>
<path d="M192 129H176V145H192V129Z" fill="black"/>
<path d="M208 129H192V145H208V129Z" fill="black"/>
<path d="M224 129H208V145H224V129Z" fill="black"/>
<path d="M240 129H224V145H240V129Z" fill="black"/>
<path d="M256 129H240V145H256V129Z" fill="black"/>
<path d="M64 145H48V161H64V145Z" fill="black"/>
<path d="M160 145H144V161H160V145Z" fill="black"/>
<path d="M176 145H160V161H176V145Z" fill="black"/>
<path d="M192 145H176V161H192V145Z" fill="black"/>
<path d="M208 145H192V161H208V145Z" fill="black"/>
<path d="M64 161H48V177H64V161Z" fill="black"/>
<path d="M176 161H160V177H176V161Z" fill="black"/>
<path d="M192 161H176V177H192V161Z" fill="black"/>
<path d="M208 161H192V177H208V161Z" fill="black"/>
<path d="M64 177H48V193H64V177Z" fill="black"/>
<path d="M112 177H96V193H112V177Z" fill="black"/>
<path d="M128 177H112V193H128V177Z" fill="black"/>
<path d="M144 177H128V193H144V177Z" fill="black"/>
<path d="M160 177H144V193H160V177Z" fill="black"/>
<path d="M208 177H192V193H208V177Z" fill="black"/>
<path d="M64 193H48V209H64V193Z" fill="black"/>
<path d="M128 193H112V209H128V193Z" fill="black"/>
<path d="M144 193H128V209H144V193Z" fill="black"/>
<path d="M208 193H192V209H208V193Z" fill="black"/>
<path d="M80 209H64V225H80V209Z" fill="black"/>
<path d="M192 209H176V225H192V209Z" fill="black"/>
<path d="M96 225H80V241H96V225Z" fill="black"/>
<path d="M112 225H96V241H112V225Z" fill="black"/>
<path d="M128 225H112V241H128V225Z" fill="black"/>
<path d="M144 225H128V241H144V225Z" fill="black"/>
<path d="M160 225H144V241H160V225Z" fill="black"/>
<path d="M176 225H160V241H176V225Z" fill="black"/>
</g>
<defs>
<clipPath id="clip0_646_141">
<rect width="256" height="256" fill="white"/>
</clipPath>
</defs>
</svg>
