<svg width="256" height="256" viewBox="0 0 256 256" fill="none" xmlns="http://www.w3.org/2000/svg">
<path fill-rule="evenodd" clip-rule="evenodd" d="M110.686 16.4275V21.855H101.328H91.9707V25.9256V29.9962H78.1569H64.3431V35.4237V40.8511H54.9854H45.6276V44.9218V48.9924H40.7259H35.8243V58.4905V67.9886H40.7259H45.6276V77.4866V86.9847H50.0837H54.5398V105.529V124.073H40.7259H26.9121V120.002V115.931H31.3682H35.8243V110.504V105.076H40.7259H45.6276V101.006V96.9351H40.7259H35.8243V101.006V105.076H31.3682H26.9121V110.504V115.931H22.4561H18V120.002V124.073H22.4561H26.9121V129.5V134.927H40.7259H54.5398V129.5V124.073H59.4414H64.3431V101.006V77.9389H59.4414H54.5398V68.8931V59.8473H50.0837H45.6276V54.4198V48.9924H54.9854H64.3431V44.9218V40.8511H68.7992H73.2552V125.429V210.008H68.7992H64.3431V229.004V248H73.2552H82.1674V242.573V237.145H96.4268H110.686V227.647V218.149H115.142H119.598V176.538V134.927H133.412H147.226V129.5V124.073H152.128H157.029V148.044V172.015H152.128H147.226V204.58V237.145H161.04H174.854V233.074V229.004H189.113H203.372V223.576V218.149H217.186H231V214.078V210.008H217.186H203.372V214.078V218.149H198.471H193.569V190.107V162.065H198.471H203.372V129.5V96.9351H198.471H193.569V101.006V105.076H184.211H174.854V110.504V115.931H161.04H147.226V120.002V124.073H133.412H119.598V67.5363V11H115.142H110.686V16.4275ZM174.854 25.9256V29.9962H179.755H184.657V25.9256V21.855H179.755H174.854V25.9256ZM203.372 35.4237V40.8511H207.828H212.285V35.4237V29.9962H207.828H203.372V35.4237ZM184.657 44.9218V48.9924H189.113H193.569V44.9218V40.8511H189.113H184.657V44.9218ZM165.941 54.4198V59.8473H156.584H147.226V63.9179V67.9886H137.868H128.51V72.9637V77.9389H137.868H147.226V72.9637V67.9886H156.584H165.941V63.9179V59.8473H170.397H174.854V54.4198V48.9924H170.397H165.941V54.4198ZM193.569 63.9179V67.9886H198.471H203.372V63.9179V59.8473H198.471H193.569V63.9179Z" fill="black"/>
</svg>
