<svg width="250" height="216" viewBox="0 0 250 216" fill="none" xmlns="http://www.w3.org/2000/svg">
<g clip-path="url(#clip0_516_2298)">
<path d="M21.6548 183V152.455H28.1129V165.058H41.223V152.455H47.6662V183H41.223V170.382H28.1129V183H21.6548ZM54.274 191.591C53.4686 191.591 52.713 191.526 52.007 191.397C51.311 191.278 50.7343 191.124 50.2769 190.935L51.7087 186.192C52.4544 186.42 53.1256 186.545 53.7222 186.565C54.3287 186.585 54.8507 186.445 55.2882 186.147C55.7357 185.849 56.0986 185.342 56.377 184.626L56.7499 183.656L48.5318 160.091H55.2137L59.9566 176.915H60.1952L64.9828 160.091H71.7094L62.8053 185.476C62.3777 186.709 61.7961 187.783 61.0603 188.697C60.3344 189.622 59.4147 190.333 58.301 190.83C57.1874 191.337 55.8451 191.591 54.274 191.591ZM72.4408 191.591V160.091H78.705V163.939H78.9884C79.2668 163.322 79.6695 162.696 80.1965 162.06C80.7334 161.413 81.4295 160.876 82.2846 160.449C83.1496 160.011 84.2235 159.793 85.5062 159.793C87.1766 159.793 88.7178 160.23 90.1297 161.105C91.5417 161.97 92.6702 163.278 93.5154 165.028C94.3606 166.768 94.7832 168.95 94.7832 171.575C94.7832 174.131 94.3705 176.288 93.5452 178.048C92.7299 179.798 91.6162 181.126 90.2043 182.031C88.8023 182.925 87.2313 183.373 85.4912 183.373C84.2583 183.373 83.2093 183.169 82.3442 182.761C81.4891 182.354 80.7881 181.842 80.2412 181.225C79.6944 180.599 79.2768 179.967 78.9884 179.331H78.7945V191.591H72.4408ZM78.6603 171.545C78.6603 172.908 78.8492 174.096 79.227 175.11C79.6049 176.124 80.1518 176.915 80.8677 177.482C81.5836 178.038 82.4536 178.317 83.4778 178.317C84.5118 178.317 85.3868 178.033 86.1028 177.467C86.8187 176.89 87.3606 176.094 87.7285 175.08C88.1063 174.056 88.2952 172.878 88.2952 171.545C88.2952 170.223 88.1113 169.06 87.7434 168.055C87.3755 167.051 86.8336 166.266 86.1177 165.699C85.4018 165.132 84.5218 164.849 83.4778 164.849C82.4437 164.849 81.5687 165.122 80.8528 165.669C80.1468 166.216 79.6049 166.991 79.227 167.996C78.8492 169 78.6603 170.183 78.6603 171.545ZM106.939 183.447C104.583 183.447 102.554 182.97 100.854 182.016C99.1637 181.051 97.8612 179.689 96.9464 177.929C96.0316 176.159 95.5742 174.066 95.5742 171.65C95.5742 169.293 96.0316 167.225 96.9464 165.445C97.8612 163.665 99.1488 162.278 100.809 161.284C102.48 160.29 104.439 159.793 106.686 159.793C108.197 159.793 109.604 160.036 110.907 160.523C112.219 161.001 113.363 161.722 114.337 162.686C115.321 163.651 116.087 164.864 116.634 166.325C117.181 167.777 117.454 169.477 117.454 171.426V173.171H98.1097V169.234H111.473C111.473 168.319 111.275 167.509 110.877 166.803C110.479 166.097 109.927 165.545 109.221 165.147C108.525 164.739 107.715 164.536 106.79 164.536C105.826 164.536 104.971 164.759 104.225 165.207C103.489 165.644 102.912 166.236 102.495 166.982C102.077 167.717 101.863 168.538 101.853 169.442V173.186C101.853 174.32 102.062 175.299 102.48 176.124C102.907 176.95 103.509 177.586 104.284 178.033C105.06 178.481 105.98 178.705 107.044 178.705C107.75 178.705 108.396 178.605 108.983 178.406C109.569 178.207 110.071 177.909 110.489 177.511C110.907 177.114 111.225 176.626 111.444 176.05L117.32 176.438C117.022 177.849 116.41 179.082 115.485 180.136C114.571 181.18 113.387 181.996 111.936 182.582C110.494 183.159 108.828 183.447 106.939 183.447ZM118.661 183V160.091H124.82V164.088H125.059C125.477 162.666 126.178 161.592 127.162 160.866C128.146 160.131 129.28 159.763 130.562 159.763C130.881 159.763 131.224 159.783 131.592 159.822C131.96 159.862 132.283 159.917 132.561 159.987V165.624C132.263 165.535 131.85 165.455 131.323 165.386C130.796 165.316 130.314 165.281 129.876 165.281C128.942 165.281 128.107 165.485 127.371 165.893C126.645 166.29 126.068 166.847 125.641 167.563C125.223 168.279 125.014 169.104 125.014 170.039V183H118.661ZM152.387 166.624L146.57 166.982C146.471 166.484 146.257 166.037 145.929 165.639C145.601 165.232 145.168 164.908 144.631 164.67C144.104 164.421 143.473 164.297 142.737 164.297C141.753 164.297 140.923 164.506 140.247 164.923C139.57 165.331 139.232 165.878 139.232 166.564C139.232 167.111 139.451 167.573 139.889 167.951C140.326 168.329 141.077 168.632 142.141 168.861L146.287 169.696C148.514 170.153 150.175 170.889 151.269 171.903C152.362 172.918 152.909 174.25 152.909 175.901C152.909 177.402 152.467 178.719 151.582 179.853C150.707 180.987 149.504 181.871 147.972 182.508C146.451 183.134 144.696 183.447 142.707 183.447C139.675 183.447 137.259 182.816 135.459 181.553C133.669 180.281 132.62 178.55 132.312 176.363L138.561 176.035C138.75 176.96 139.207 177.665 139.933 178.153C140.659 178.63 141.589 178.869 142.722 178.869C143.836 178.869 144.731 178.655 145.407 178.227C146.093 177.79 146.441 177.228 146.451 176.542C146.441 175.965 146.198 175.493 145.72 175.125C145.243 174.747 144.507 174.459 143.513 174.26L139.546 173.469C137.308 173.022 135.643 172.246 134.549 171.143C133.465 170.039 132.923 168.632 132.923 166.922C132.923 165.45 133.321 164.183 134.117 163.119C134.922 162.055 136.05 161.234 137.502 160.658C138.964 160.081 140.674 159.793 142.633 159.793C145.526 159.793 147.803 160.404 149.464 161.627C151.134 162.85 152.109 164.516 152.387 166.624ZM166.575 160.091V164.864H152.779V160.091H166.575ZM155.911 154.602H162.265V175.96C162.265 176.547 162.355 177.004 162.534 177.332C162.712 177.651 162.961 177.874 163.279 178.004C163.607 178.133 163.985 178.197 164.413 178.197C164.711 178.197 165.009 178.173 165.308 178.123C165.606 178.063 165.835 178.018 165.994 177.989L166.993 182.717C166.675 182.816 166.227 182.93 165.651 183.06C165.074 183.199 164.373 183.283 163.548 183.313C162.016 183.373 160.674 183.169 159.521 182.702C158.377 182.234 157.487 181.509 156.851 180.524C156.215 179.54 155.901 178.297 155.911 176.795V154.602ZM174.727 183.433C173.265 183.433 171.963 183.179 170.819 182.672C169.676 182.155 168.771 181.394 168.105 180.39C167.449 179.376 167.12 178.113 167.12 176.602C167.12 175.329 167.354 174.26 167.821 173.395C168.289 172.53 168.925 171.834 169.73 171.307C170.536 170.78 171.451 170.382 172.475 170.114C173.509 169.845 174.593 169.656 175.726 169.547C177.059 169.408 178.132 169.278 178.948 169.159C179.763 169.03 180.355 168.841 180.723 168.592C181.091 168.344 181.275 167.976 181.275 167.489V167.399C181.275 166.455 180.976 165.724 180.38 165.207C179.793 164.69 178.958 164.431 177.874 164.431C176.73 164.431 175.821 164.685 175.145 165.192C174.468 165.689 174.021 166.315 173.802 167.071L167.926 166.594C168.224 165.202 168.811 163.999 169.686 162.984C170.561 161.96 171.689 161.175 173.071 160.628C174.463 160.071 176.074 159.793 177.904 159.793C179.177 159.793 180.395 159.942 181.558 160.24C182.731 160.538 183.77 161.001 184.675 161.627C185.59 162.254 186.311 163.059 186.838 164.043C187.365 165.018 187.628 166.186 187.628 167.548V183H181.603V179.823H181.424C181.056 180.539 180.564 181.17 179.947 181.717C179.331 182.254 178.59 182.677 177.725 182.985C176.86 183.283 175.86 183.433 174.727 183.433ZM176.547 179.048C177.481 179.048 178.306 178.864 179.022 178.496C179.738 178.118 180.3 177.611 180.708 176.974C181.115 176.338 181.319 175.617 181.319 174.812V172.381C181.12 172.51 180.847 172.629 180.499 172.739C180.161 172.838 179.778 172.933 179.351 173.022C178.923 173.102 178.495 173.176 178.068 173.246C177.64 173.305 177.253 173.36 176.904 173.41C176.159 173.519 175.507 173.693 174.951 173.932C174.394 174.17 173.961 174.494 173.653 174.901C173.345 175.299 173.191 175.796 173.191 176.393C173.191 177.258 173.504 177.919 174.13 178.376C174.767 178.824 175.572 179.048 176.547 179.048ZM199.968 183.447C197.622 183.447 195.603 182.95 193.913 181.956C192.233 180.952 190.94 179.56 190.035 177.78C189.14 176 188.693 173.952 188.693 171.635C188.693 169.288 189.145 167.23 190.05 165.46C190.965 163.68 192.262 162.293 193.943 161.299C195.623 160.295 197.622 159.793 199.939 159.793C201.937 159.793 203.687 160.156 205.189 160.881C206.69 161.607 207.878 162.626 208.753 163.939C209.628 165.251 210.11 166.793 210.2 168.562H204.204C204.035 167.419 203.588 166.499 202.862 165.803C202.146 165.097 201.206 164.744 200.043 164.744C199.059 164.744 198.199 165.013 197.463 165.55C196.737 166.077 196.17 166.847 195.762 167.862C195.355 168.876 195.151 170.104 195.151 171.545C195.151 173.007 195.35 174.25 195.748 175.274C196.155 176.298 196.727 177.079 197.463 177.616C198.199 178.153 199.059 178.421 200.043 178.421C200.769 178.421 201.42 178.272 201.997 177.974C202.583 177.675 203.066 177.243 203.444 176.676C203.831 176.099 204.085 175.408 204.204 174.603H210.2C210.1 176.353 209.623 177.894 208.768 179.227C207.923 180.549 206.755 181.583 205.263 182.329C203.772 183.075 202.007 183.447 199.968 183.447ZM217.085 176.408L217.1 168.786H218.025L225.363 160.091H232.656L222.797 171.605H221.291L217.085 176.408ZM211.328 183V152.455H217.682V183H211.328ZM225.646 183L218.905 173.022L223.14 168.533L233.089 183H225.646Z" fill="#2A0746"/>
<path d="M94.5 31.625H86.875V39.25H94.5V31.625Z" fill="#6110A2"/>
<path d="M102.125 31.625H94.5V39.25H102.125V31.625Z" fill="#6110A2"/>
<path d="M109.75 31.625H102.125V39.25H109.75V31.625Z" fill="#A271FF"/>
<path d="M147.875 31.625H140.25V39.25H147.875V31.625Z" fill="#9A2079"/>
<path d="M155.5 31.625H147.875V39.25H155.5V31.625Z" fill="#9A2079"/>
<path d="M163.125 31.625H155.5V39.25H163.125V31.625Z" fill="#9A2079"/>
<path d="M86.875 39.25H79.25V46.875H86.875V39.25Z" fill="#6110A2"/>
<path d="M94.5 39.25H86.875V46.875H94.5V39.25Z" fill="#9241F3"/>
<path d="M102.125 39.25H94.5V46.875H102.125V39.25Z" fill="#A271FF"/>
<path d="M109.75 39.25H102.125V46.875H109.75V39.25Z" fill="#A271FF"/>
<path d="M117.375 39.25H109.75V46.875H117.375V39.25Z" fill="#9241F3"/>
<path d="M125 39.25H117.375V46.875H125V39.25Z" fill="#9241F3"/>
<path d="M132.625 39.25H125V46.875H132.625V39.25Z" fill="#9A2079"/>
<path d="M140.25 39.25H132.625V46.875H140.25V39.25Z" fill="#9A2079"/>
<path d="M147.875 39.25H140.25V46.875H147.875V39.25Z" fill="#F361FF"/>
<path d="M155.5 39.25H147.875V46.875H155.5V39.25Z" fill="#F361FF"/>
<path d="M163.125 39.25H155.5V46.875H163.125V39.25Z" fill="#DB41C3"/>
<path d="M170.75 39.25H163.125V46.875H170.75V39.25Z" fill="#9A2079"/>
<path d="M79.25 46.875H71.625V54.5H79.25V46.875Z" fill="#6110A2"/>
<path d="M86.875 46.875H79.25V54.5H86.875V46.875Z" fill="#6110A2"/>
<path d="M94.5 46.875H86.875V54.5H94.5V46.875Z" fill="#9241F3"/>
<path d="M102.125 46.875H94.5V54.5H102.125V46.875Z" fill="#A271FF"/>
<path d="M109.75 46.875H102.125V54.5H109.75V46.875Z" fill="white"/>
<path d="M117.375 46.875H109.75V54.5H117.375V46.875Z" fill="white"/>
<path d="M125 46.875H117.375V54.5H125V46.875Z" fill="white"/>
<path d="M132.625 46.875H125V54.5H132.625V46.875Z" fill="white"/>
<path d="M140.25 46.875H132.625V54.5H140.25V46.875Z" fill="white"/>
<path d="M147.875 46.875H140.25V54.5H147.875V46.875Z" fill="white"/>
<path d="M155.5 46.875H147.875V54.5H155.5V46.875Z" fill="#F361FF"/>
<path d="M163.125 46.875H155.5V54.5H163.125V46.875Z" fill="#DB41C3"/>
<path d="M170.75 46.875H163.125V54.5H170.75V46.875Z" fill="#9A2079"/>
<path d="M178.375 46.875H170.75V54.5H178.375V46.875Z" fill="#9A2079"/>
<path d="M71.625 54.5H64V62.125H71.625V54.5Z" fill="#6110A2"/>
<path d="M79.25 54.5H71.625V62.125H79.25V54.5Z" fill="#6110A2"/>
<path d="M86.875 54.5H79.25V62.125H86.875V54.5Z" fill="#9241F3"/>
<path d="M94.5 54.5H86.875V62.125H94.5V54.5Z" fill="#A271FF"/>
<path d="M102.125 54.5H94.5V62.125H102.125V54.5Z" fill="white"/>
<path d="M109.75 54.5H102.125V62.125H109.75V54.5Z" fill="white"/>
<path d="M117.375 54.5H109.75V62.125H117.375V54.5Z" fill="white"/>
<path d="M125 54.5H117.375V62.125H125V54.5Z" fill="white"/>
<path d="M132.625 54.5H125V62.125H132.625V54.5Z" fill="white"/>
<path d="M140.25 54.5H132.625V62.125H140.25V54.5Z" fill="#F361FF"/>
<path d="M147.875 54.5H140.25V62.125H147.875V54.5Z" fill="#F361FF"/>
<path d="M155.5 54.5H147.875V62.125H155.5V54.5Z" fill="white"/>
<path d="M163.125 54.5H155.5V62.125H163.125V54.5Z" fill="#F361FF"/>
<path d="M170.75 54.5H163.125V62.125H170.75V54.5Z" fill="#DB41C3"/>
<path d="M178.375 54.5H170.75V62.125H178.375V54.5Z" fill="#9A2079"/>
<path d="M186 54.5H178.375V62.125H186V54.5Z" fill="#9A2079"/>
<path d="M71.625 62.125H64V69.75H71.625V62.125Z" fill="#6110A2"/>
<path d="M79.25 62.125H71.625V69.75H79.25V62.125Z" fill="#9241F3"/>
<path d="M86.875 62.125H79.25V69.75H86.875V62.125Z" fill="#9241F3"/>
<path d="M94.5 62.125H86.875V69.75H94.5V62.125Z" fill="white"/>
<path d="M102.125 62.125H94.5V69.75H102.125V62.125Z" fill="white"/>
<path d="M109.75 62.125H102.125V69.75H109.75V62.125Z" fill="white"/>
<path d="M117.375 62.125H109.75V69.75H117.375V62.125Z" fill="white"/>
<path d="M125 62.125H117.375V69.75H125V62.125Z" fill="white"/>
<path d="M132.625 62.125H125V69.75H132.625V62.125Z" fill="#F361FF"/>
<path d="M140.25 62.125H132.625V69.75H140.25V62.125Z" fill="#F361FF"/>
<path d="M147.875 62.125H140.25V69.75H147.875V62.125Z" fill="#F361FF"/>
<path d="M155.5 62.125H147.875V69.75H155.5V62.125Z" fill="#F361FF"/>
<path d="M163.125 62.125H155.5V69.75H163.125V62.125Z" fill="white"/>
<path d="M170.75 62.125H163.125V69.75H170.75V62.125Z" fill="#DB41C3"/>
<path d="M178.375 62.125H170.75V69.75H178.375V62.125Z" fill="#DB41C3"/>
<path d="M186 62.125H178.375V69.75H186V62.125Z" fill="#9A2079"/>
<path d="M71.625 69.75H64V77.375H71.625V69.75Z" fill="#6110A2"/>
<path d="M79.25 69.75H71.625V77.375H79.25V69.75Z" fill="#9241F3"/>
<path d="M86.875 69.75H79.25V77.375H86.875V69.75Z" fill="#9241F3"/>
<path d="M94.5 69.75H86.875V77.375H94.5V69.75Z" fill="white"/>
<path d="M102.125 69.75H94.5V77.375H102.125V69.75Z" fill="white"/>
<path d="M109.75 69.75H102.125V77.375H109.75V69.75Z" fill="white"/>
<path d="M117.375 69.75H109.75V77.375H117.375V69.75Z" fill="#400B6A"/>
<path d="M125 69.75H117.375V77.375H125V69.75Z" fill="white"/>
<path d="M132.625 69.75H125V77.375H132.625V69.75Z" fill="#F361FF"/>
<path d="M140.25 69.75H132.625V77.375H140.25V69.75Z" fill="#551042"/>
<path d="M147.875 69.75H140.25V77.375H147.875V69.75Z" fill="#F361FF"/>
<path d="M155.5 69.75H147.875V77.375H155.5V69.75Z" fill="#F361FF"/>
<path d="M163.125 69.75H155.5V77.375H163.125V69.75Z" fill="#9A2079"/>
<path d="M170.75 69.75H163.125V77.375H170.75V69.75Z" fill="white"/>
<path d="M178.375 69.75H170.75V77.375H178.375V69.75Z" fill="#DB41C3"/>
<path d="M186 69.75H178.375V77.375H186V69.75Z" fill="#9A2079"/>
<path d="M71.625 77.375H64V85H71.625V77.375Z" fill="#6110A2"/>
<path d="M79.25 77.375H71.625V85H79.25V77.375Z" fill="#9241F3"/>
<path d="M86.875 77.375H79.25V85H86.875V77.375Z" fill="#6110A2"/>
<path d="M94.5 77.375H86.875V85H94.5V77.375Z" fill="#6110A2"/>
<path d="M102.125 77.375H94.5V85H102.125V77.375Z" fill="white"/>
<path d="M109.75 77.375H102.125V85H109.75V77.375Z" fill="white"/>
<path d="M117.375 77.375H109.75V85H117.375V77.375Z" fill="#400B6A"/>
<path d="M125 77.375H117.375V85H125V77.375Z" fill="white"/>
<path d="M132.625 77.375H125V85H132.625V77.375Z" fill="#F361FF"/>
<path d="M140.25 77.375H132.625V85H140.25V77.375Z" fill="#551042"/>
<path d="M147.875 77.375H140.25V85H147.875V77.375Z" fill="#F361FF"/>
<path d="M155.5 77.375H147.875V85H155.5V77.375Z" fill="#F361FF"/>
<path d="M163.125 77.375H155.5V85H163.125V77.375Z" fill="#9A2079"/>
<path d="M170.75 77.375H163.125V85H170.75V77.375Z" fill="#9A2079"/>
<path d="M178.375 77.375H170.75V85H178.375V77.375Z" fill="#DB41C3"/>
<path d="M186 77.375H178.375V85H186V77.375Z" fill="#9A2079"/>
<path d="M71.625 85H64V92.625H71.625V85Z" fill="#6110A2"/>
<path d="M79.25 85H71.625V92.625H79.25V85Z" fill="#6110A2"/>
<path d="M86.875 85H79.25V92.625H86.875V85Z" fill="#6110A2"/>
<path d="M94.5 85H86.875V92.625H94.5V85Z" fill="#6110A2"/>
<path d="M102.125 85H94.5V92.625H102.125V85Z" fill="#A271FF"/>
<path d="M109.75 85H102.125V92.625H109.75V85Z" fill="white"/>
<path d="M117.375 85H109.75V92.625H117.375V85Z" fill="white"/>
<path d="M125 85H117.375V92.625H125V85Z" fill="white"/>
<path d="M132.625 85H125V92.625H132.625V85Z" fill="#F361FF"/>
<path d="M140.25 85H132.625V92.625H140.25V85Z" fill="#F361FF"/>
<path d="M147.875 85H140.25V92.625H147.875V85Z" fill="#F361FF"/>
<path d="M155.5 85H147.875V92.625H155.5V85Z" fill="#F361FF"/>
<path d="M163.125 85H155.5V92.625H163.125V85Z" fill="#DB41C3"/>
<path d="M170.75 85H163.125V92.625H170.75V85Z" fill="#9A2079"/>
<path d="M178.375 85H170.75V92.625H178.375V85Z" fill="#9A2079"/>
<path d="M186 85H178.375V92.625H186V85Z" fill="#9A2079"/>
<path d="M94.5 92.625H86.875V100.25H94.5V92.625Z" fill="#6110A2"/>
<path d="M102.125 92.625H94.5V100.25H102.125V92.625Z" fill="#A271FF"/>
<path d="M109.75 92.625H102.125V100.25H109.75V92.625Z" fill="#A271FF"/>
<path d="M117.375 92.625H109.75V100.25H117.375V92.625Z" fill="white"/>
<path d="M125 92.625H117.375V100.25H125V92.625Z" fill="white"/>
<path d="M132.625 92.625H125V100.25H132.625V92.625Z" fill="white"/>
<path d="M140.25 92.625H132.625V100.25H140.25V92.625Z" fill="#F361FF"/>
<path d="M147.875 92.625H140.25V100.25H147.875V92.625Z" fill="#F361FF"/>
<path d="M155.5 92.625H147.875V100.25H155.5V92.625Z" fill="#F361FF"/>
<path d="M163.125 92.625H155.5V100.25H163.125V92.625Z" fill="#DB41C3"/>
<path d="M94.5 100.25H86.875V107.875H94.5V100.25Z" fill="#6110A2"/>
<path d="M102.125 100.25H94.5V107.875H102.125V100.25Z" fill="#A271FF"/>
<path d="M109.75 100.25H102.125V107.875H109.75V100.25Z" fill="#A271FF"/>
<path d="M117.375 100.25H109.75V107.875H117.375V100.25Z" fill="white"/>
<path d="M125 100.25H117.375V107.875H125V100.25Z" fill="white"/>
<path d="M132.625 100.25H125V107.875H132.625V100.25Z" fill="white"/>
<path d="M140.25 100.25H132.625V107.875H140.25V100.25Z" fill="white"/>
<path d="M147.875 100.25H140.25V107.875H147.875V100.25Z" fill="#F361FF"/>
<path d="M155.5 100.25H147.875V107.875H155.5V100.25Z" fill="#F361FF"/>
<path d="M163.125 100.25H155.5V107.875H163.125V100.25Z" fill="#DB41C3"/>
<path d="M94.5 107.875H86.875V115.5H94.5V107.875Z" fill="#6110A2"/>
<path d="M102.125 107.875H94.5V115.5H102.125V107.875Z" fill="#A271FF"/>
<path d="M109.75 107.875H102.125V115.5H109.75V107.875Z" fill="white"/>
<path d="M117.375 107.875H109.75V115.5H117.375V107.875Z" fill="#4141FF"/>
<path d="M125 107.875H117.375V115.5H125V107.875Z" fill="#4141FF"/>
<path d="M132.625 107.875H125V115.5H132.625V107.875Z" fill="#4141FF"/>
<path d="M140.25 107.875H132.625V115.5H140.25V107.875Z" fill="#F361FF"/>
<path d="M147.875 107.875H140.25V115.5H147.875V107.875Z" fill="white"/>
<path d="M155.5 107.875H147.875V115.5H155.5V107.875Z" fill="white"/>
<path d="M163.125 107.875H155.5V115.5H163.125V107.875Z" fill="#DB41C3"/>
<path d="M94.5 115.5H86.875V123.125H94.5V115.5Z" fill="#6110A2"/>
<path d="M102.125 115.5H94.5V123.125H102.125V115.5Z" fill="white"/>
<path d="M109.75 115.5H102.125V123.125H109.75V115.5Z" fill="white"/>
<path d="M117.375 115.5H109.75V123.125H117.375V115.5Z" fill="white"/>
<path d="M125 115.5H117.375V123.125H125V115.5Z" fill="#4141FF"/>
<path d="M132.625 115.5H125V123.125H132.625V115.5Z" fill="#F361FF"/>
<path d="M140.25 115.5H132.625V123.125H140.25V115.5Z" fill="white"/>
<path d="M147.875 115.5H140.25V123.125H147.875V115.5Z" fill="white"/>
<path d="M155.5 115.5H147.875V123.125H155.5V115.5Z" fill="#F361FF"/>
<path d="M163.125 115.5H155.5V123.125H163.125V115.5Z" fill="#DB41C3"/>
<path d="M102.125 123.125H94.5V130.75H102.125V123.125Z" fill="#6110A2"/>
<path d="M109.75 123.125H102.125V130.75H109.75V123.125Z" fill="white"/>
<path d="M117.375 123.125H109.75V130.75H117.375V123.125Z" fill="white"/>
<path d="M125 123.125H117.375V130.75H125V123.125Z" fill="white"/>
<path d="M132.625 123.125H125V130.75H132.625V123.125Z" fill="white"/>
<path d="M140.25 123.125H132.625V130.75H140.25V123.125Z" fill="white"/>
<path d="M147.875 123.125H140.25V130.75H147.875V123.125Z" fill="#F361FF"/>
<path d="M155.5 123.125H147.875V130.75H155.5V123.125Z" fill="#DB41C3"/>
<path d="M109.75 130.75H102.125V138.375H109.75V130.75Z" fill="#6110A2"/>
<path d="M117.375 130.75H109.75V138.375H117.375V130.75Z" fill="#6110A2"/>
<path d="M125 130.75H117.375V138.375H125V130.75Z" fill="#6110A2"/>
<path d="M132.625 130.75H125V138.375H132.625V130.75Z" fill="#9241F3"/>
<path d="M140.25 130.75H132.625V138.375H140.25V130.75Z" fill="#F361FF"/>
<path d="M147.875 130.75H140.25V138.375H147.875V130.75Z" fill="#DB41C3"/>
</g>
<defs>
<clipPath id="clip0_516_2298">
<rect width="250" height="216" fill="white"/>
</clipPath>
</defs>
</svg>
