<svg width="404" height="158" viewBox="0 0 404 158" fill="none" xmlns="http://www.w3.org/2000/svg">
<path d="M113.413 101V61.7273H121.717V77.9311H138.572V61.7273H146.857V101H138.572V84.777H121.717V101H113.413ZM155.352 112.045C154.317 112.045 153.345 111.962 152.438 111.796C151.543 111.643 150.801 111.445 150.213 111.202L152.054 105.104C153.013 105.398 153.876 105.558 154.643 105.583C155.423 105.609 156.094 105.43 156.656 105.046C157.232 104.663 157.698 104.011 158.056 103.09L158.536 101.844L147.97 71.5455H156.56L162.658 93.1761H162.965L169.121 71.5455H177.769L166.321 104.183C165.771 105.768 165.023 107.149 164.077 108.325C163.144 109.514 161.962 110.428 160.53 111.067C159.098 111.719 157.372 112.045 155.352 112.045ZM178.71 112.045V71.5455H186.764V76.4929H187.128C187.486 75.7003 188.004 74.8949 188.681 74.0767C189.372 73.2457 190.266 72.5554 191.366 72.0057C192.478 71.4432 193.859 71.1619 195.508 71.1619C197.656 71.1619 199.637 71.7244 201.453 72.8494C203.268 73.9616 204.719 75.6428 205.806 77.8928C206.892 80.13 207.435 82.9361 207.435 86.3111C207.435 89.5966 206.905 92.3707 205.844 94.6335C204.796 96.8835 203.364 98.5902 201.548 99.7536C199.746 100.904 197.726 101.479 195.489 101.479C193.904 101.479 192.555 101.217 191.443 100.693C190.343 100.169 189.442 99.5107 188.739 98.718C188.036 97.9126 187.499 97.1009 187.128 96.2827H186.879V112.045H178.71ZM186.706 86.2727C186.706 88.0241 186.949 89.5518 187.435 90.8558C187.921 92.1598 188.624 93.1761 189.544 93.9048C190.465 94.6207 191.583 94.9787 192.9 94.9787C194.23 94.9787 195.355 94.6143 196.275 93.8857C197.195 93.1442 197.892 92.1214 198.365 90.8175C198.851 89.5007 199.094 87.9858 199.094 86.2727C199.094 84.5724 198.857 83.0767 198.384 81.7855C197.911 80.4943 197.215 79.4844 196.294 78.7557C195.374 78.027 194.242 77.6626 192.9 77.6626C191.57 77.6626 190.445 78.0142 189.525 78.7173C188.617 79.4205 187.921 80.4176 187.435 81.7088C186.949 83 186.706 84.5213 186.706 86.2727ZM223.065 101.575C220.035 101.575 217.427 100.962 215.241 99.7344C213.068 98.4943 211.393 96.7429 210.217 94.4801C209.041 92.2045 208.453 89.5135 208.453 86.407C208.453 83.3771 209.041 80.718 210.217 78.4297C211.393 76.1413 213.048 74.358 215.183 73.0795C217.331 71.8011 219.85 71.1619 222.739 71.1619C224.682 71.1619 226.491 71.4751 228.166 72.1016C229.853 72.7152 231.323 73.642 232.576 74.8821C233.842 76.1222 234.826 77.6818 235.529 79.5611C236.232 81.4276 236.584 83.6136 236.584 86.1193V88.3629H211.713V83.3004H228.894C228.894 82.1243 228.639 81.0824 228.127 80.1747C227.616 79.267 226.906 78.5575 225.999 78.0462C225.104 77.522 224.062 77.2599 222.873 77.2599C221.633 77.2599 220.534 77.5476 219.575 78.1229C218.629 78.6854 217.887 79.446 217.35 80.4048C216.813 81.3509 216.539 82.4055 216.526 83.5689V88.3821C216.526 89.8395 216.794 91.0987 217.331 92.1598C217.881 93.2209 218.654 94.0391 219.651 94.6143C220.649 95.1896 221.831 95.4773 223.199 95.4773C224.107 95.4773 224.938 95.3494 225.692 95.0938C226.446 94.8381 227.092 94.4545 227.629 93.9432C228.166 93.4318 228.575 92.8054 228.856 92.0639L236.411 92.5625C236.028 94.3778 235.242 95.9631 234.053 97.3182C232.877 98.6605 231.355 99.7088 229.489 100.463C227.635 101.205 225.494 101.575 223.065 101.575ZM238.135 101V71.5455H246.055V76.6847H246.362C246.898 74.8565 247.8 73.4759 249.065 72.5426C250.331 71.5966 251.788 71.1236 253.438 71.1236C253.847 71.1236 254.288 71.1491 254.761 71.2003C255.234 71.2514 255.649 71.3217 256.007 71.4112V78.6598C255.624 78.5447 255.093 78.4425 254.415 78.353C253.738 78.2635 253.118 78.2188 252.555 78.2188C251.354 78.2188 250.28 78.4808 249.334 79.005C248.401 79.5163 247.659 80.2322 247.109 81.1527C246.572 82.0732 246.304 83.1342 246.304 84.3359V101H238.135ZM281.498 79.9446L274.019 80.4048C273.891 79.7656 273.616 79.1903 273.194 78.679C272.773 78.1548 272.216 77.7393 271.526 77.4325C270.849 77.1129 270.037 76.9531 269.091 76.9531C267.825 76.9531 266.758 77.2216 265.888 77.7585C265.019 78.2827 264.584 78.9858 264.584 79.8679C264.584 80.571 264.866 81.1655 265.428 81.6513C265.991 82.1371 266.956 82.527 268.324 82.821L273.655 83.8949C276.518 84.483 278.653 85.429 280.06 86.733C281.466 88.0369 282.169 89.75 282.169 91.8722C282.169 93.8026 281.6 95.4964 280.462 96.9538C279.337 98.4112 277.79 99.549 275.822 100.367C273.866 101.173 271.609 101.575 269.052 101.575C265.153 101.575 262.047 100.763 259.733 99.1399C257.432 97.5036 256.083 95.2791 255.687 92.4666L263.721 92.0447C263.964 93.2337 264.552 94.1413 265.486 94.7678C266.419 95.3814 267.614 95.6882 269.072 95.6882C270.503 95.6882 271.654 95.4134 272.523 94.8636C273.405 94.3011 273.853 93.5788 273.866 92.6967C273.853 91.9553 273.54 91.348 272.926 90.875C272.312 90.3892 271.366 90.0185 270.088 89.7628L264.987 88.7464C262.111 88.1712 259.969 87.174 258.563 85.755C257.17 84.3359 256.473 82.527 256.473 80.3281C256.473 78.4361 256.984 76.8061 258.007 75.4382C259.042 74.0703 260.493 73.0156 262.36 72.2741C264.239 71.5327 266.438 71.1619 268.957 71.1619C272.677 71.1619 275.604 71.9482 277.739 73.5206C279.887 75.093 281.14 77.2344 281.498 79.9446ZM299.74 71.5455V77.6818H282.002V71.5455H299.74ZM286.029 64.4886H294.198V91.9489C294.198 92.7031 294.313 93.2912 294.543 93.7131C294.773 94.1222 295.093 94.4098 295.502 94.576C295.924 94.7422 296.41 94.8253 296.959 94.8253C297.343 94.8253 297.726 94.7933 298.11 94.7294C298.493 94.6527 298.787 94.5952 298.992 94.5568L300.277 100.636C299.868 100.763 299.292 100.911 298.551 101.077C297.809 101.256 296.908 101.364 295.847 101.403C293.878 101.479 292.152 101.217 290.67 100.616C289.199 100.016 288.055 99.0824 287.237 97.8168C286.419 96.5511 286.016 94.9531 286.029 93.0227V64.4886ZM310.22 101.556C308.341 101.556 306.666 101.23 305.196 100.578C303.726 99.9134 302.563 98.9354 301.706 97.6442C300.862 96.3402 300.441 94.7166 300.441 92.7734C300.441 91.1371 300.741 89.7628 301.342 88.6506C301.943 87.5384 302.761 86.6435 303.796 85.9659C304.832 85.2884 306.008 84.777 307.325 84.4318C308.654 84.0866 310.048 83.8438 311.505 83.7031C313.218 83.5241 314.599 83.358 315.647 83.2045C316.695 83.0384 317.456 82.7955 317.929 82.4759C318.402 82.1562 318.639 81.6832 318.639 81.0568V80.9418C318.639 79.7273 318.255 78.7876 317.488 78.1229C316.734 77.4581 315.66 77.1257 314.267 77.1257C312.796 77.1257 311.627 77.4517 310.757 78.1037C309.888 78.7429 309.313 79.5483 309.031 80.5199L301.476 79.9062C301.86 78.1165 302.614 76.5696 303.739 75.2656C304.864 73.9489 306.315 72.9389 308.092 72.2358C309.882 71.5199 311.953 71.1619 314.305 71.1619C315.941 71.1619 317.507 71.3537 319.003 71.7372C320.512 72.1207 321.847 72.7152 323.011 73.5206C324.187 74.326 325.114 75.3615 325.791 76.6271C326.469 77.88 326.808 79.3821 326.808 81.1335V101H319.061V96.9155H318.83C318.357 97.8359 317.725 98.6477 316.932 99.3509C316.139 100.041 315.187 100.585 314.075 100.981C312.963 101.364 311.678 101.556 310.22 101.556ZM312.56 95.9183C313.762 95.9183 314.823 95.6818 315.743 95.2088C316.664 94.723 317.386 94.071 317.91 93.2528C318.434 92.4347 318.696 91.5078 318.696 90.4723V87.3466C318.441 87.5128 318.089 87.6662 317.642 87.8068C317.207 87.9347 316.715 88.0561 316.165 88.1712C315.615 88.2734 315.066 88.3693 314.516 88.4588C313.966 88.5355 313.467 88.6058 313.02 88.6697C312.061 88.8104 311.224 89.0341 310.508 89.3409C309.792 89.6477 309.236 90.0632 308.84 90.5874C308.443 91.0987 308.245 91.7379 308.245 92.505C308.245 93.6172 308.648 94.4673 309.453 95.0554C310.271 95.6307 311.307 95.9183 312.56 95.9183ZM342.674 101.575C339.657 101.575 337.061 100.936 334.888 99.6577C332.728 98.3665 331.066 96.5767 329.902 94.2884C328.752 92 328.176 89.3665 328.176 86.3878C328.176 83.3707 328.758 80.7244 329.922 78.4489C331.098 76.1605 332.766 74.3771 334.926 73.0987C337.087 71.8075 339.657 71.1619 342.635 71.1619C345.205 71.1619 347.455 71.6286 349.385 72.5618C351.316 73.495 352.843 74.8054 353.968 76.4929C355.093 78.1804 355.713 80.1619 355.828 82.4375H348.12C347.902 80.9673 347.327 79.7848 346.394 78.8899C345.473 77.9822 344.265 77.5284 342.77 77.5284C341.504 77.5284 340.398 77.8736 339.452 78.5639C338.519 79.2415 337.79 80.2322 337.266 81.5362C336.742 82.8402 336.48 84.419 336.48 86.2727C336.48 88.152 336.735 89.75 337.247 91.0668C337.771 92.3835 338.506 93.3871 339.452 94.0774C340.398 94.7678 341.504 95.1129 342.77 95.1129C343.703 95.1129 344.54 94.9212 345.282 94.5376C346.036 94.1541 346.656 93.598 347.142 92.8693C347.64 92.1278 347.966 91.2393 348.12 90.2038H355.828C355.701 92.4538 355.087 94.4354 353.988 96.1484C352.901 97.8487 351.399 99.1783 349.481 100.137C347.564 101.096 345.294 101.575 342.674 101.575ZM364.681 92.5241L364.7 82.7251H365.889L375.324 71.5455H384.701L372.025 86.3494H370.088L364.681 92.5241ZM357.279 101V61.7273H365.448V101H357.279ZM375.688 101L367.02 88.1712L372.466 82.3991L385.257 101H375.688Z" fill="white"/>
<path fill-rule="evenodd" clip-rule="evenodd" d="M51.5063 33.9466V35.8931H48.1234H44.7406V37.3531V38.813H39.7469H34.7531V40.7595V42.7061H31.3703H27.9874V44.166V45.626H26.2155H24.4435V49.0324V52.4389H26.2155H27.9874V55.8454V59.2519H29.5983H31.2092V65.9027V72.5534H26.2155H21.2218V71.0935V69.6336H22.8326H24.4435V67.687V65.7405H26.2155H27.9874V64.2805V62.8206H26.2155H24.4435V64.2805V65.7405H22.8326H21.2218V67.687V69.6336H19.6109H18V71.0935V72.5534H19.6109H21.2218V74.5V76.4466H26.2155H31.2092V74.5V72.5534H32.9812H34.7531V64.2805V56.0076H32.9812H31.2092V52.7634V49.5191H29.5983H27.9874V47.5725V45.626H31.3703H34.7531V44.166V42.7061H36.364H37.9749V73.0401V103.374H36.364H34.7531V110.187V117H37.9749H41.1967V115.053V113.107H46.3515H51.5063V109.7V106.294H53.1172H54.728V91.3702V76.4466H59.7218H64.7155V74.5V72.5534H66.4874H68.2594V81.1508V89.7481H66.4874H64.7155V101.427V113.107H69.7092H74.7029V111.647V110.187H79.8577H85.0126V108.24V106.294H90.0063H95V104.834V103.374H90.0063H85.0126V104.834V106.294H83.2406H81.4686V96.2366V86.1794H83.2406H85.0126V74.5V62.8206H83.2406H81.4686V64.2805V65.7405H78.0858H74.7029V67.687V69.6336H69.7092H64.7155V71.0935V72.5534H59.7218H54.728V52.2767V32H53.1172H51.5063V33.9466ZM74.7029 37.3531V38.813H76.4749H78.2469V37.3531V35.8931H76.4749H74.7029V37.3531ZM85.0126 40.7595V42.7061H86.6234H88.2343V40.7595V38.813H86.6234H85.0126V40.7595ZM78.2469 44.166V45.626H79.8577H81.4686V44.166V42.7061H79.8577H78.2469V44.166ZM71.4812 47.5725V49.5191H68.0983H64.7155V50.979V52.4389H61.3326H57.9498V54.2233V56.0076H61.3326H64.7155V54.2233V52.4389H68.0983H71.4812V50.979V49.5191H73.0921H74.7029V47.5725V45.626H73.0921H71.4812V47.5725ZM81.4686 50.979V52.4389H83.2406H85.0126V50.979V49.5191H83.2406H81.4686V50.979Z" fill="white"/>
</svg>
