<svg width="404" height="158" viewBox="0 0 404 158" fill="none" xmlns="http://www.w3.org/2000/svg">
<path d="M113.413 101V61.7273H121.717V77.9311H138.572V61.7273H146.857V101H138.572V84.777H121.717V101H113.413ZM155.352 112.045C154.317 112.045 153.345 111.962 152.438 111.796C151.543 111.643 150.801 111.445 150.213 111.202L152.054 105.104C153.013 105.398 153.876 105.558 154.643 105.583C155.423 105.609 156.094 105.43 156.656 105.046C157.232 104.663 157.698 104.011 158.056 103.09L158.536 101.844L147.97 71.5455H156.56L162.658 93.1761H162.965L169.121 71.5455H177.769L166.321 104.183C165.771 105.768 165.023 107.149 164.077 108.325C163.144 109.514 161.962 110.428 160.53 111.067C159.098 111.719 157.372 112.045 155.352 112.045ZM178.71 112.045V71.5455H186.764V76.4929H187.128C187.486 75.7003 188.004 74.8949 188.681 74.0767C189.372 73.2457 190.266 72.5554 191.366 72.0057C192.478 71.4432 193.859 71.1619 195.508 71.1619C197.656 71.1619 199.637 71.7244 201.453 72.8494C203.268 73.9616 204.719 75.6428 205.806 77.8928C206.892 80.13 207.435 82.9361 207.435 86.3111C207.435 89.5966 206.905 92.3707 205.844 94.6335C204.796 96.8835 203.364 98.5902 201.548 99.7536C199.746 100.904 197.726 101.479 195.489 101.479C193.904 101.479 192.555 101.217 191.443 100.693C190.343 100.169 189.442 99.5107 188.739 98.718C188.036 97.9126 187.499 97.1009 187.128 96.2827H186.879V112.045H178.71ZM186.706 86.2727C186.706 88.0241 186.949 89.5518 187.435 90.8558C187.921 92.1598 188.624 93.1761 189.544 93.9048C190.465 94.6207 191.583 94.9787 192.9 94.9787C194.23 94.9787 195.355 94.6143 196.275 93.8857C197.195 93.1442 197.892 92.1214 198.365 90.8175C198.851 89.5007 199.094 87.9858 199.094 86.2727C199.094 84.5724 198.857 83.0767 198.384 81.7855C197.911 80.4943 197.215 79.4844 196.294 78.7557C195.374 78.027 194.242 77.6626 192.9 77.6626C191.57 77.6626 190.445 78.0142 189.525 78.7173C188.617 79.4205 187.921 80.4176 187.435 81.7088C186.949 83 186.706 84.5213 186.706 86.2727ZM223.065 101.575C220.035 101.575 217.427 100.962 215.241 99.7344C213.068 98.4943 211.393 96.7429 210.217 94.4801C209.041 92.2045 208.453 89.5135 208.453 86.407C208.453 83.3771 209.041 80.718 210.217 78.4297C211.393 76.1413 213.048 74.358 215.183 73.0795C217.331 71.8011 219.85 71.1619 222.739 71.1619C224.682 71.1619 226.491 71.4751 228.166 72.1016C229.853 72.7152 231.323 73.642 232.576 74.8821C233.842 76.1222 234.826 77.6818 235.529 79.5611C236.232 81.4276 236.584 83.6136 236.584 86.1193V88.3629H211.713V83.3004H228.894C228.894 82.1243 228.639 81.0824 228.127 80.1747C227.616 79.267 226.906 78.5575 225.999 78.0462C225.104 77.522 224.062 77.2599 222.873 77.2599C221.633 77.2599 220.534 77.5476 219.575 78.1229C218.629 78.6854 217.887 79.446 217.35 80.4048C216.813 81.3509 216.539 82.4055 216.526 83.5689V88.3821C216.526 89.8395 216.794 91.0987 217.331 92.1598C217.881 93.2209 218.654 94.0391 219.651 94.6143C220.649 95.1896 221.831 95.4773 223.199 95.4773C224.107 95.4773 224.938 95.3494 225.692 95.0938C226.446 94.8381 227.092 94.4545 227.629 93.9432C228.166 93.4318 228.575 92.8054 228.856 92.0639L236.411 92.5625C236.028 94.3778 235.242 95.9631 234.053 97.3182C232.877 98.6605 231.355 99.7088 229.489 100.463C227.635 101.205 225.494 101.575 223.065 101.575ZM238.135 101V71.5455H246.055V76.6847H246.362C246.898 74.8565 247.8 73.4759 249.065 72.5426C250.331 71.5966 251.788 71.1236 253.438 71.1236C253.847 71.1236 254.288 71.1491 254.761 71.2003C255.234 71.2514 255.649 71.3217 256.007 71.4112V78.6598C255.624 78.5447 255.093 78.4425 254.415 78.353C253.738 78.2635 253.118 78.2188 252.555 78.2188C251.354 78.2188 250.28 78.4808 249.334 79.005C248.401 79.5163 247.659 80.2322 247.109 81.1527C246.572 82.0732 246.304 83.1342 246.304 84.3359V101H238.135ZM281.498 79.9446L274.019 80.4048C273.891 79.7656 273.616 79.1903 273.194 78.679C272.773 78.1548 272.216 77.7393 271.526 77.4325C270.849 77.1129 270.037 76.9531 269.091 76.9531C267.825 76.9531 266.758 77.2216 265.888 77.7585C265.019 78.2827 264.584 78.9858 264.584 79.8679C264.584 80.571 264.866 81.1655 265.428 81.6513C265.991 82.1371 266.956 82.527 268.324 82.821L273.655 83.8949C276.518 84.483 278.653 85.429 280.06 86.733C281.466 88.0369 282.169 89.75 282.169 91.8722C282.169 93.8026 281.6 95.4964 280.462 96.9538C279.337 98.4112 277.79 99.549 275.822 100.367C273.866 101.173 271.609 101.575 269.052 101.575C265.153 101.575 262.047 100.763 259.733 99.1399C257.432 97.5036 256.083 95.2791 255.687 92.4666L263.721 92.0447C263.964 93.2337 264.552 94.1413 265.486 94.7678C266.419 95.3814 267.614 95.6882 269.072 95.6882C270.503 95.6882 271.654 95.4134 272.523 94.8636C273.405 94.3011 273.853 93.5788 273.866 92.6967C273.853 91.9553 273.54 91.348 272.926 90.875C272.312 90.3892 271.366 90.0185 270.088 89.7628L264.987 88.7464C262.111 88.1712 259.969 87.174 258.563 85.755C257.17 84.3359 256.473 82.527 256.473 80.3281C256.473 78.4361 256.984 76.8061 258.007 75.4382C259.042 74.0703 260.493 73.0156 262.36 72.2741C264.239 71.5327 266.438 71.1619 268.957 71.1619C272.677 71.1619 275.604 71.9482 277.739 73.5206C279.887 75.093 281.14 77.2344 281.498 79.9446ZM299.74 71.5455V77.6818H282.002V71.5455H299.74ZM286.029 64.4886H294.198V91.9489C294.198 92.7031 294.313 93.2912 294.543 93.7131C294.773 94.1222 295.093 94.4098 295.502 94.576C295.924 94.7422 296.41 94.8253 296.959 94.8253C297.343 94.8253 297.726 94.7933 298.11 94.7294C298.493 94.6527 298.787 94.5952 298.992 94.5568L300.277 100.636C299.868 100.763 299.292 100.911 298.551 101.077C297.809 101.256 296.908 101.364 295.847 101.403C293.878 101.479 292.152 101.217 290.67 100.616C289.199 100.016 288.055 99.0824 287.237 97.8168C286.419 96.5511 286.016 94.9531 286.029 93.0227V64.4886ZM310.22 101.556C308.341 101.556 306.666 101.23 305.196 100.578C303.726 99.9134 302.563 98.9354 301.706 97.6442C300.862 96.3402 300.441 94.7166 300.441 92.7734C300.441 91.1371 300.741 89.7628 301.342 88.6506C301.943 87.5384 302.761 86.6435 303.796 85.9659C304.832 85.2884 306.008 84.777 307.325 84.4318C308.654 84.0866 310.048 83.8438 311.505 83.7031C313.218 83.5241 314.599 83.358 315.647 83.2045C316.695 83.0384 317.456 82.7955 317.929 82.4759C318.402 82.1562 318.639 81.6832 318.639 81.0568V80.9418C318.639 79.7273 318.255 78.7876 317.488 78.1229C316.734 77.4581 315.66 77.1257 314.267 77.1257C312.796 77.1257 311.627 77.4517 310.757 78.1037C309.888 78.7429 309.313 79.5483 309.031 80.5199L301.476 79.9062C301.86 78.1165 302.614 76.5696 303.739 75.2656C304.864 73.9489 306.315 72.9389 308.092 72.2358C309.882 71.5199 311.953 71.1619 314.305 71.1619C315.941 71.1619 317.507 71.3537 319.003 71.7372C320.512 72.1207 321.847 72.7152 323.011 73.5206C324.187 74.326 325.114 75.3615 325.791 76.6271C326.469 77.88 326.808 79.3821 326.808 81.1335V101H319.061V96.9155H318.83C318.357 97.8359 317.725 98.6477 316.932 99.3509C316.139 100.041 315.187 100.585 314.075 100.981C312.963 101.364 311.678 101.556 310.22 101.556ZM312.56 95.9183C313.762 95.9183 314.823 95.6818 315.743 95.2088C316.664 94.723 317.386 94.071 317.91 93.2528C318.434 92.4347 318.696 91.5078 318.696 90.4723V87.3466C318.441 87.5128 318.089 87.6662 317.642 87.8068C317.207 87.9347 316.715 88.0561 316.165 88.1712C315.615 88.2734 315.066 88.3693 314.516 88.4588C313.966 88.5355 313.467 88.6058 313.02 88.6697C312.061 88.8104 311.224 89.0341 310.508 89.3409C309.792 89.6477 309.236 90.0632 308.84 90.5874C308.443 91.0987 308.245 91.7379 308.245 92.505C308.245 93.6172 308.648 94.4673 309.453 95.0554C310.271 95.6307 311.307 95.9183 312.56 95.9183ZM342.674 101.575C339.657 101.575 337.061 100.936 334.888 99.6577C332.728 98.3665 331.066 96.5767 329.902 94.2884C328.752 92 328.176 89.3665 328.176 86.3878C328.176 83.3707 328.758 80.7244 329.922 78.4489C331.098 76.1605 332.766 74.3771 334.926 73.0987C337.087 71.8075 339.657 71.1619 342.635 71.1619C345.205 71.1619 347.455 71.6286 349.385 72.5618C351.316 73.495 352.843 74.8054 353.968 76.4929C355.093 78.1804 355.713 80.1619 355.828 82.4375H348.12C347.902 80.9673 347.327 79.7848 346.394 78.8899C345.473 77.9822 344.265 77.5284 342.77 77.5284C341.504 77.5284 340.398 77.8736 339.452 78.5639C338.519 79.2415 337.79 80.2322 337.266 81.5362C336.742 82.8402 336.48 84.419 336.48 86.2727C336.48 88.152 336.735 89.75 337.247 91.0668C337.771 92.3835 338.506 93.3871 339.452 94.0774C340.398 94.7678 341.504 95.1129 342.77 95.1129C343.703 95.1129 344.54 94.9212 345.282 94.5376C346.036 94.1541 346.656 93.598 347.142 92.8693C347.64 92.1278 347.966 91.2393 348.12 90.2038H355.828C355.701 92.4538 355.087 94.4354 353.988 96.1484C352.901 97.8487 351.399 99.1783 349.481 100.137C347.564 101.096 345.294 101.575 342.674 101.575ZM364.681 92.5241L364.7 82.7251H365.889L375.324 71.5455H384.701L372.025 86.3494H370.088L364.681 92.5241ZM357.279 101V61.7273H365.448V101H357.279ZM375.688 101L367.02 88.1712L372.466 82.3991L385.257 101H375.688Z" fill="white"/>
<path d="M46 53H42V57H46V53Z" fill="#6110A2"/>
<path d="M50 53H46V57H50V53Z" fill="#6110A2"/>
<path d="M54 53H50V57H54V53Z" fill="#A271FF"/>
<path d="M74 53H70V57H74V53Z" fill="#9A2079"/>
<path d="M78 53H74V57H78V53Z" fill="#9A2079"/>
<path d="M82 53H78V57H82V53Z" fill="#9A2079"/>
<path d="M42 57H38V61H42V57Z" fill="#6110A2"/>
<path d="M46 57H42V61H46V57Z" fill="#9241F3"/>
<path d="M50 57H46V61H50V57Z" fill="#A271FF"/>
<path d="M54 57H50V61H54V57Z" fill="#A271FF"/>
<path d="M58 57H54V61H58V57Z" fill="#9241F3"/>
<path d="M62 57H58V61H62V57Z" fill="#9241F3"/>
<path d="M66 57H62V61H66V57Z" fill="#9A2079"/>
<path d="M70 57H66V61H70V57Z" fill="#9A2079"/>
<path d="M74 57H70V61H74V57Z" fill="#F361FF"/>
<path d="M78 57H74V61H78V57Z" fill="#F361FF"/>
<path d="M82 57H78V61H82V57Z" fill="#DB41C3"/>
<path d="M86 57H82V61H86V57Z" fill="#9A2079"/>
<path d="M38 61H34V65H38V61Z" fill="#6110A2"/>
<path d="M42 61H38V65H42V61Z" fill="#6110A2"/>
<path d="M46 61H42V65H46V61Z" fill="#9241F3"/>
<path d="M50 61H46V65H50V61Z" fill="#A271FF"/>
<path d="M54 61H50V65H54V61Z" fill="white"/>
<path d="M58 61H54V65H58V61Z" fill="white"/>
<path d="M62 61H58V65H62V61Z" fill="white"/>
<path d="M66 61H62V65H66V61Z" fill="white"/>
<path d="M70 61H66V65H70V61Z" fill="white"/>
<path d="M74 61H70V65H74V61Z" fill="white"/>
<path d="M78 61H74V65H78V61Z" fill="#F361FF"/>
<path d="M82 61H78V65H82V61Z" fill="#DB41C3"/>
<path d="M86 61H82V65H86V61Z" fill="#9A2079"/>
<path d="M90 61H86V65H90V61Z" fill="#9A2079"/>
<path d="M34 65H30V69H34V65Z" fill="#6110A2"/>
<path d="M38 65H34V69H38V65Z" fill="#6110A2"/>
<path d="M42 65H38V69H42V65Z" fill="#9241F3"/>
<path d="M46 65H42V69H46V65Z" fill="#A271FF"/>
<path d="M50 65H46V69H50V65Z" fill="white"/>
<path d="M54 65H50V69H54V65Z" fill="white"/>
<path d="M58 65H54V69H58V65Z" fill="white"/>
<path d="M62 65H58V69H62V65Z" fill="white"/>
<path d="M66 65H62V69H66V65Z" fill="white"/>
<path d="M70 65H66V69H70V65Z" fill="#F361FF"/>
<path d="M74 65H70V69H74V65Z" fill="#F361FF"/>
<path d="M78 65H74V69H78V65Z" fill="white"/>
<path d="M82 65H78V69H82V65Z" fill="#F361FF"/>
<path d="M86 65H82V69H86V65Z" fill="#DB41C3"/>
<path d="M90 65H86V69H90V65Z" fill="#9A2079"/>
<path d="M94 65H90V69H94V65Z" fill="#9A2079"/>
<path d="M34 69H30V73H34V69Z" fill="#6110A2"/>
<path d="M38 69H34V73H38V69Z" fill="#9241F3"/>
<path d="M42 69H38V73H42V69Z" fill="#9241F3"/>
<path d="M46 69H42V73H46V69Z" fill="white"/>
<path d="M50 69H46V73H50V69Z" fill="white"/>
<path d="M54 69H50V73H54V69Z" fill="white"/>
<path d="M58 69H54V73H58V69Z" fill="white"/>
<path d="M62 69H58V73H62V69Z" fill="white"/>
<path d="M66 69H62V73H66V69Z" fill="#F361FF"/>
<path d="M70 69H66V73H70V69Z" fill="#F361FF"/>
<path d="M74 69H70V73H74V69Z" fill="#F361FF"/>
<path d="M78 69H74V73H78V69Z" fill="#F361FF"/>
<path d="M82 69H78V73H82V69Z" fill="white"/>
<path d="M86 69H82V73H86V69Z" fill="#DB41C3"/>
<path d="M90 69H86V73H90V69Z" fill="#DB41C3"/>
<path d="M94 69H90V73H94V69Z" fill="#9A2079"/>
<path d="M34 73H30V77H34V73Z" fill="#6110A2"/>
<path d="M38 73H34V77H38V73Z" fill="#9241F3"/>
<path d="M42 73H38V77H42V73Z" fill="#9241F3"/>
<path d="M46 73H42V77H46V73Z" fill="white"/>
<path d="M50 73H46V77H50V73Z" fill="white"/>
<path d="M54 73H50V77H54V73Z" fill="white"/>
<path d="M58 73H54V77H58V73Z" fill="#400B6A"/>
<path d="M62 73H58V77H62V73Z" fill="white"/>
<path d="M66 73H62V77H66V73Z" fill="#F361FF"/>
<path d="M70 73H66V77H70V73Z" fill="#551042"/>
<path d="M74 73H70V77H74V73Z" fill="#F361FF"/>
<path d="M78 73H74V77H78V73Z" fill="#F361FF"/>
<path d="M82 73H78V77H82V73Z" fill="#9A2079"/>
<path d="M86 73H82V77H86V73Z" fill="white"/>
<path d="M90 73H86V77H90V73Z" fill="#DB41C3"/>
<path d="M94 73H90V77H94V73Z" fill="#9A2079"/>
<path d="M34 77H30V81H34V77Z" fill="#6110A2"/>
<path d="M38 77H34V81H38V77Z" fill="#9241F3"/>
<path d="M42 77H38V81H42V77Z" fill="#6110A2"/>
<path d="M46 77H42V81H46V77Z" fill="#6110A2"/>
<path d="M50 77H46V81H50V77Z" fill="white"/>
<path d="M54 77H50V81H54V77Z" fill="white"/>
<path d="M58 77H54V81H58V77Z" fill="#400B6A"/>
<path d="M62 77H58V81H62V77Z" fill="white"/>
<path d="M66 77H62V81H66V77Z" fill="#F361FF"/>
<path d="M70 77H66V81H70V77Z" fill="#551042"/>
<path d="M74 77H70V81H74V77Z" fill="#F361FF"/>
<path d="M78 77H74V81H78V77Z" fill="#F361FF"/>
<path d="M82 77H78V81H82V77Z" fill="#9A2079"/>
<path d="M86 77H82V81H86V77Z" fill="#9A2079"/>
<path d="M90 77H86V81H90V77Z" fill="#DB41C3"/>
<path d="M94 77H90V81H94V77Z" fill="#9A2079"/>
<path d="M34 81H30V85H34V81Z" fill="#6110A2"/>
<path d="M38 81H34V85H38V81Z" fill="#6110A2"/>
<path d="M42 81H38V85H42V81Z" fill="#6110A2"/>
<path d="M46 81H42V85H46V81Z" fill="#6110A2"/>
<path d="M50 81H46V85H50V81Z" fill="#A271FF"/>
<path d="M54 81H50V85H54V81Z" fill="white"/>
<path d="M58 81H54V85H58V81Z" fill="white"/>
<path d="M62 81H58V85H62V81Z" fill="white"/>
<path d="M66 81H62V85H66V81Z" fill="#F361FF"/>
<path d="M70 81H66V85H70V81Z" fill="#F361FF"/>
<path d="M74 81H70V85H74V81Z" fill="#F361FF"/>
<path d="M78 81H74V85H78V81Z" fill="#F361FF"/>
<path d="M82 81H78V85H82V81Z" fill="#DB41C3"/>
<path d="M86 81H82V85H86V81Z" fill="#9A2079"/>
<path d="M90 81H86V85H90V81Z" fill="#9A2079"/>
<path d="M94 81H90V85H94V81Z" fill="#9A2079"/>
<path d="M46 85H42V89H46V85Z" fill="#6110A2"/>
<path d="M50 85H46V89H50V85Z" fill="#A271FF"/>
<path d="M54 85H50V89H54V85Z" fill="#A271FF"/>
<path d="M58 85H54V89H58V85Z" fill="white"/>
<path d="M62 85H58V89H62V85Z" fill="white"/>
<path d="M66 85H62V89H66V85Z" fill="white"/>
<path d="M70 85H66V89H70V85Z" fill="#F361FF"/>
<path d="M74 85H70V89H74V85Z" fill="#F361FF"/>
<path d="M78 85H74V89H78V85Z" fill="#F361FF"/>
<path d="M82 85H78V89H82V85Z" fill="#DB41C3"/>
<path d="M46 89H42V93H46V89Z" fill="#6110A2"/>
<path d="M50 89H46V93H50V89Z" fill="#A271FF"/>
<path d="M54 89H50V93H54V89Z" fill="#A271FF"/>
<path d="M58 89H54V93H58V89Z" fill="white"/>
<path d="M62 89H58V93H62V89Z" fill="white"/>
<path d="M66 89H62V93H66V89Z" fill="white"/>
<path d="M70 89H66V93H70V89Z" fill="white"/>
<path d="M74 89H70V93H74V89Z" fill="#F361FF"/>
<path d="M78 89H74V93H78V89Z" fill="#F361FF"/>
<path d="M82 89H78V93H82V89Z" fill="#DB41C3"/>
<path d="M46 93H42V97H46V93Z" fill="#6110A2"/>
<path d="M50 93H46V97H50V93Z" fill="#A271FF"/>
<path d="M54 93H50V97H54V93Z" fill="white"/>
<path d="M58 93H54V97H58V93Z" fill="#4141FF"/>
<path d="M62 93H58V97H62V93Z" fill="#4141FF"/>
<path d="M66 93H62V97H66V93Z" fill="#4141FF"/>
<path d="M70 93H66V97H70V93Z" fill="#F361FF"/>
<path d="M74 93H70V97H74V93Z" fill="white"/>
<path d="M78 93H74V97H78V93Z" fill="white"/>
<path d="M82 93H78V97H82V93Z" fill="#DB41C3"/>
<path d="M46 97H42V101H46V97Z" fill="#6110A2"/>
<path d="M50 97H46V101H50V97Z" fill="white"/>
<path d="M54 97H50V101H54V97Z" fill="white"/>
<path d="M58 97H54V101H58V97Z" fill="white"/>
<path d="M62 97H58V101H62V97Z" fill="#4141FF"/>
<path d="M66 97H62V101H66V97Z" fill="#F361FF"/>
<path d="M70 97H66V101H70V97Z" fill="white"/>
<path d="M74 97H70V101H74V97Z" fill="white"/>
<path d="M78 97H74V101H78V97Z" fill="#F361FF"/>
<path d="M82 97H78V101H82V97Z" fill="#DB41C3"/>
<path d="M50 101H46V105H50V101Z" fill="#6110A2"/>
<path d="M54 101H50V105H54V101Z" fill="white"/>
<path d="M58 101H54V105H58V101Z" fill="white"/>
<path d="M62 101H58V105H62V101Z" fill="white"/>
<path d="M66 101H62V105H66V101Z" fill="white"/>
<path d="M70 101H66V105H70V101Z" fill="white"/>
<path d="M74 101H70V105H74V101Z" fill="#F361FF"/>
<path d="M78 101H74V105H78V101Z" fill="#DB41C3"/>
<path d="M54 105H50V109H54V105Z" fill="#6110A2"/>
<path d="M58 105H54V109H58V105Z" fill="#6110A2"/>
<path d="M62 105H58V109H62V105Z" fill="#6110A2"/>
<path d="M66 105H62V109H66V105Z" fill="#9241F3"/>
<path d="M70 105H66V109H70V105Z" fill="#F361FF"/>
<path d="M74 105H70V109H74V105Z" fill="#DB41C3"/>
</svg>
