<svg xmlns="http://www.w3.org/2000/svg" width="417" height="328" fill="none"><path fill="#FFF0F0" d="m285.181 17.5 19.5 8 8 7.5-11 3-17-11.5 4.5 7-9.5-3.5 4.5 5-24.5 5.5 6 3.5 1.5 1-13.5 6 7.5 1-19.5 11 2.375.875L239.181 66v-6.5l4.5-4.5v-2.5l6-5.5v-2.5l11-15 12.5-2.5-6-2 3.5-1.5 9-1-2-3.5 6.5 2 5 2.5-4-6Z"/><g fill="#fff" clip-path="url(#a)"><path d="M364.224 168.596c-.202.332-.293.449-.352.586a4.672 4.672 0 0 0-.189.58c-2.299 8.252-7.797 13.046-16.05 14.863a51.142 51.142 0 0 1-6.957 1.062c-1.609.13-1.622.137-1.779 1.791a54.743 54.743 0 0 1-1.602 8.878c-.209.788-.365 1.608-.697 2.344-1.935 4.228-2.56 8.8-3.55 13.274-1.277 5.791-2.782 11.522-5.179 16.961-1.146 2.599-1.309 5.054-.182 7.666.788 1.824 1.426 3.719 2.071 5.602.326.937.86 1.354 1.883 1.439 8.142.71 16.304 1.049 24.473 1.27 8.168.222 16.337.397 24.492.905 9.641.6 19.223 1.642 28.636 3.921 1.537.372 3.062.795 4.501 1.472.788.372 1.531.821 2.117 1.479 1.121 1.257 1.095 2.762-.071 3.98-.691.716-1.564 1.133-2.469 1.498-2.15.872-4.417 1.296-6.703 1.491-4.527.391-9.061.678-13.595.984-5.758.384-11.517.69-17.19 1.823-1.355.274-2.684.619-3.967 1.127-1.446.573-2.801 1.335-3.765 2.56-3.642 4.65-8.677 6.409-14.286 7.034-5.178.573-10.376.866-15.588.932-9.399.117-18.793.162-28.192-.033-4.645-.098-9.289-.3-13.94-.293-1.342 0-1.368 0-1.668 1.316-.137.605-.41.872-1.029.879-1.323.013-2.586.072-3.83-.69-1.675-1.023-3.616-1.349-5.576-1.472-1.206-.079-1.245-.118-1.407-1.329a39.592 39.592 0 0 1-.235-1.98c-.117-1.342-.065-1.407 1.231-1.472 2.293-.117 4.593-.215 6.886-.332.97-.046 1.941-.105 2.905-.189.671-.059 1.075.11 1.133.866.085 1.14.469 1.133 1.57 1.14 5.615.026 11.237.039 16.852.084 7.712.066 15.425.176 23.138.215 6.286.033 12.559-.26 18.786-1.152 1.368-.196 2.703-.508 4.032-.886 2.072-.586 3.948-1.55 5.277-3.231 3.094-3.921 7.341-5.51 12.051-6.279a135.41 135.41 0 0 1 15.216-1.608c4.847-.228 9.693-.443 14.52-.906 1.98-.189 3.954-.469 5.843-1.153.567-.201 1.192-.319 1.596-.905-.462-.71-1.264-.821-1.961-1.042-2.879-.905-5.849-1.426-8.82-1.921-7.556-1.271-15.171-2.026-22.818-2.521-8.358-.547-16.728-.762-25.092-1.205-7.387-.391-14.8-.586-22.128-1.739-.241-.039-.495 0-.704 0-.339.41-.111.742 0 1.055.235.671.534 1.329.769 2 .918 2.585-.287 4.78-3.003 5.438-2.293.554-4.645.73-6.983.873-6.423.391-12.852.703-19.288.417a16.223 16.223 0 0 1-4.215-.73c-1.133-.358-1.895-1.087-2.293-2.266-1.817-5.367-3.7-10.708-5.204-16.179-.3-1.081-.548-2.176-.828-3.263-.286-1.127-.325-1.199-1.42-1.16-1.733.065-3.465.196-5.198.287-.547.026-.827.28-.905.827-.391 2.683-.971 5.321-1.948 7.862-.228.599.078.963.436 1.348 1.622 1.739 2.469 3.83 2.899 6.142.619 3.341-.606 5.888-3.237 7.868-.717.54-1.596.658-2.463.749-5.146.553-10.305.449-15.457.208-2.6-.123-5.199-.286-7.772-.749-2.846-.508-4.787-2.071-5.94-4.735-1.219-2.827-1.903-5.81-2.762-8.747-.743-2.547-1.427-5.113-2.15-7.666-.326-1.147-.358-1.179-1.466-.808-6.475 2.175-13.047 2.013-19.679.951-3.322-.528-6.592-1.368-9.94-1.785-3.381-.423-6.735-.228-10.084.163-4.625.541-9.132 1.641-13.542 3.146-1.466.502-1.472.508-1.472 2.052 0 2.657-.066 5.315.045 7.965.13 2.997-.997 5.472-2.84 7.706a14.26 14.26 0 0 1-3.198 2.833c-1.785 1.166-3.661 1.902-5.883 1.817-2.801-.111-5.615.091-8.422.046-23.079-.378-46.158-.085-69.238-.469-13.073-.215-26.147-.261-39.22-.398-2.091-.019-4.196-.013-6.273-.195-2.372-.202-4.43-1.277-6.032-3.009-.925-.997-1.935-1.524-3.238-1.811a46.58 46.58 0 0 1-10.273-3.491 40.502 40.502 0 0 1-2.977-1.576c-5.165-2.996-8.644-7.354-10.61-12.994-1.981-5.686-2.418-11.463-1.245-17.351 1.635-8.207 4.846-15.691 10.422-22.022 2.026-2.299 4.221-4.448 6.905-6.018.769-.449 1.147-1.036 1.192-1.967.091-1.882.359-3.758.456-5.647.092-1.609.847-2.566 2.404-2.912.15-.032.293-.097.436-.136 1.008-.261 1.516-.884 1.525-1.87.052-7.457.11-14.908.156-22.366.163-24.816.26-49.638.502-74.453.208-21.957.456-43.92.566-65.876.007-1.739 0-3.49.502-5.165 1.361-4.494 4.156-7.777 8.449-9.744.866-.397 1.784-.403 2.703-.39C72.917.287 90.277-.045 107.643 0c17.471.052 34.935.039 52.405.033 5.928 0 11.856.039 17.771.351 5.641.306 9.1 3.882 9.94 8.565.241 1.361.326 2.73.326 4.117.006 20.067-.02 40.14.045 60.208.17 52.191.378 104.382.567 156.579.007 2.234-.111 2.215 2.045 1.564 6.436-1.948 12.996-3.127 19.738-3.094 3.96.019 7.797.886 11.653 1.641 3.967.782 7.961 1.277 12.019 1.107 2.723-.11 5.374-.618 7.921-1.589 1.075-.404 1.094-.469.84-1.589-.534-2.338-1.088-4.67-1.635-7.008-.293-1.257-.299-1.225-1.583-1.336-7.256-.631-14.35-1.986-21.079-4.904-5.583-2.417-10.462-5.738-14.109-10.695-3.244-4.416-5.381-9.242-5.622-14.798-.046-1.101-.085-1.12-1.173-1.238-1.107-.11-1.778-.729-2.091-1.745a9.762 9.762 0 0 1-.384-2.26c-.319-5.693.691-11.184 2.462-16.557 2.254-6.858 5.407-13.222 10.384-18.563 2.345-2.514 4.911-4.761 7.973-6.383.814-.43 1.641-.834 2.54-1.055 1.968-.488 3.303.195 4.006 2.091.535 1.439.782 2.957.971 4.474 1.309 10.558 3.387 20.947 6.853 31.03a68.237 68.237 0 0 0 3.628 8.604 31.718 31.718 0 0 0 3.85 5.888c.3.364.515 1.048 1.101.859.475-.156.312-.794.384-1.237.261-1.661.463-3.335.775-4.989 1.355-7.093 3.642-13.919 6.097-20.686 2.072-5.706 4.248-11.386 5.459-17.365.358-1.745.652-3.504 1.016-5.249.144-.691.026-1.173-.632-1.531-1.25-.671-1.928-1.811-2.286-3.126-1.055-3.915-1.628-7.888-1.257-11.959.104-1.127.045-1.289-1.16-1.524-1.602-.319-3.224-.521-4.827-.814a34.405 34.405 0 0 1-6.461-1.856 10.185 10.185 0 0 1-2.762-1.622c-2.365-1.98-3.29-4.468-2.684-7.51.547-2.762 1.609-5.373 2.403-8.063 1.303-4.416 2.111-8.937 2.619-13.503.547-4.865 1.088-9.724 2.052-14.537.463-2.306.873-4.611 1.609-6.846.287-.866.202-1.693 0-2.546-.599-2.632-1.205-5.263-1.609-7.94-.345-2.293.528-3.98 2.228-5.334.671-.54 1.465-.925 2.202-1.381.312-.196.657-.43.338-.834-.664-.853-.202-1.53.287-2.208.899-1.257 2.091-2.227 3.192-3.295.475-.463.99-.893 1.511-1.297.541-.423.905-.768.235-1.44-.574-.566-.522-1.27-.046-1.953 3.29-4.755 6.768-9.347 10.898-13.41a15.979 15.979 0 0 1 4.527-3.101c1.381-.632 2.847-.723 4.475-.847-.84-1.146-2.247-1.055-3.276-1.902 4.377-1.726 8.748-2.345 13.432-1.895-.267-.775-.847-.958-1.199-1.342-.241-.26-.528-.482-.756-.756-.41-.488-.697-1.015-.358-1.673.306-.587.84-.69 1.427-.69 2.175.006 4.24.527 6.279 1.237.508.176.99.501 1.622.443-.117-.645-.606-.886-.957-1.225-.326-.319-.697-.6-1.043-.905-.41-.371-.677-.834-.384-1.355.287-.515.782-.528 1.342-.378 3.993 1.075 8.012 2.065 11.686 4.058.13.072.287.085.43.124.573-.26-.026-.906.417-1.192.091 0 .208-.052.28-.013 3.948 2.071 7.621 4.546 10.97 7.497 2.618 2.305 4.963 4.852 6.918 7.75a17.141 17.141 0 0 1 1.889 3.667c1.087 2.95.71 5.712-1.043 8.305-.892 1.322-2.052 2.403-3.172 3.523-.756.75-.756.873.13 1.29 2.45 1.146 4.866 2.358 7.374 3.393 4.853 1.994 9.83 2.078 14.898 1.127 3.667-.684 7.269-1.66 10.833-2.735 3.348-1.01 5.764.013 7.732 2.69.697.95 1.361 1.915 1.908 2.957 2.964 5.673 4.827 11.691 5.537 18.055.684 6.115-.488 11.906-3.4 17.318-5.869 10.904-13.751 19.983-24.284 26.646-.215.137-.43.274-.652.411-.41.26-.547.566-.221 1.009.879 1.218 1.049 2.644 1.088 4.084.071 2.494.41 4.983.006 7.49-.319 1.987-.703 3.928-2.091 5.484-.501.56-.202 1.042.013 1.544 1.023 2.397 1.844 4.872 2.612 7.353a192.514 192.514 0 0 1 2.215 7.647c.254.971.697 1.518 1.72 1.622.658.065 1.303.254 1.954.391 1.179.241 1.172.241 1.55-.964.932-2.977 2.45-5.602 4.69-7.79.697-.684 1.473-1.264 2.352-1.694 1.062-.521 2.156-.677 3.224-.045.548.325 1.017.319 1.577.065.606-.274 1.283-.293 1.947-.371 1.994-.235 3.603.462 4.938 1.902 2.313 2.494 3.772 5.425 4.521 8.727.365 1.603.462 3.237.436 4.872-.013.847.228 1.42.951 1.922 2.417 1.674 4.384 3.803 6.15 6.142 5.035 6.663 8.012 14.186 9.302 22.399 1.394 8.864 1.537 17.788 1.042 26.73-.059 1.068-.091 2.143-.17 3.211-.032.508.183.769.652.867.299.065.599.11.905.169 2.397.488 4.032 1.876 4.886 4.168.54 1.446.827 2.951.938 4.482.058.775.208 1.283 1.088 1.576 1.094.365 1.374 1.322 1.068 2.69-.28 1.224-.756 1.641-1.987 1.68-1.075.033-2.143.026-3.218.033-.619 0-.944.286-.931.931.013.56.006 1.127-.02 1.687a4.639 4.639 0 0 1-.156 1.049c-.163.54-.528.872-1.134.827-.592-.046-.944-.41-.996-.984-.065-.762-.039-1.53-.085-2.292-.052-1.042-.156-1.186-1.146-1.205-1.733-.033-3.472.006-5.212 0-.755 0-1.133.299-1.094 1.101a9.488 9.488 0 0 1-.078 1.83c-.098.658-.45 1.205-1.192 1.166-.723-.039-1.036-.587-1.075-1.27-.026-.456-.02-.919-.039-1.375-.046-1.335-.104-1.394-1.388-1.439-.768-.026-1.537.019-2.299-.026-1.277-.085-1.726-.56-1.798-1.817-.098-1.648.124-2.02 1.831-2.801.482-.222.482-.625.553-1.003.196-1.055.15-2.143.476-3.179.228-.729.397-1.485.69-2.188.814-1.974 2.293-3.198 4.378-3.706 1.837-.45 1.804-.469 1.96-2.378.352-4.331.346-8.675.228-13.013-.143-5.211-.482-10.402-1.426-15.541-1.29-7.028-3.798-13.547-8.078-19.325-1.185-1.595-2.475-3.093-4.077-4.52l.026-.052ZM304.275 27.857c-.176-.098-.417-.143-.514-.293-.951-1.426-2.391-2.358-3.57-3.55-.189-.195-.378-.508-.84-.254.325 1.453.521 2.944 1.244 4.319 1.954 3.712 2.306 7.66 1.576 11.743a16.794 16.794 0 0 1-2.045 5.569c-.15.254-.391.554-.085.814.326.28.671.13.951-.15.612-.618 1.244-1.205 1.818-1.856 3.511-4 4.41-8.487 2.514-13.495-.163-.424-.417-.828-.404-1.303 3.505 6.213 2.716 12.076-1.622 17.71 2.085.827 4.019 1.582 5.941 2.357.488.196.762-.052 1.023-.404 1.087-1.478 2.149-2.976 2.898-4.663.684-1.524.997-3.12.606-4.768-.319-1.348-.912-2.592-1.674-3.751-1.928-2.918-4.299-5.426-7.003-7.627-.234-.19-.469-.398-.801-.398h-.013Zm-258.02 90.541h-.228c0 1.381.006 2.755 0 4.136l-.801 100.181c0 .306-.013.612 0 .918.045 1.107.11 1.166 1.264 1.231.15.007.306.007.462.007 6.227.045 12.461.084 18.689.13.677 0 1.25-.078 1.83-.56 1.127-.925 2.026-.892 3.16.078.56.482 1.12.638 1.804.638 2.657.013 5.309.052 7.966.052 1.394 0 1.453-.052 1.466-1.478.078-8.07.15-16.133.228-24.203.007-.73-.091-1.375-.593-1.987-.775-.944-.768-2.013.013-2.944.508-.606.606-1.25.606-1.98a126.26 126.26 0 0 1 .033-4.442c.032-1.153.527-1.661 1.674-1.785.456-.052.918-.026 1.374-.019 4.905.065 9.804.124 14.709.202.84.013 1.531-.091 2.189-.782.99-1.029 2.247-1.022 3.25.013.612.625 1.251.769 2.039.769 10.058.026 20.122.058 30.179.097.743 0 1.329-.149 1.909-.703 1.225-1.166 2.56-1.14 3.811.026.488.456.944.69 1.609.69 8.325.046 16.65.105 24.968.176.703 0 1.212-.176 1.713-.755 1.309-1.518 3.016-1.505 4.319.039.502.593 1.029.742 1.72.736 1.941-.013 3.882 0 5.823.006 2.534 0 2.319.111 2.306-2.331-.078-19.149-.163-38.298-.241-57.447-.098-26.705-.052-53.41-.293-80.114-.052-5.875-.13-11.743-.02-17.618.105-5.465.131-10.923.183-16.381.013-1.511-.033-1.518-1.55-1.537-3.114-.033-6.228-.078-9.342-.098-18.076-.11-36.152-.26-54.235-.306-23.646-.059-47.286-.293-70.931-.489-2.762-.026-2.847.066-2.886 2.892v.157c.045 11.997-.15 24.001-.176 35.999-.052 22.926-.013 45.853-.013 68.78l.013.006Zm286.5-38.122c.214.085.312.156.397.15.508-.04 1.016-.078 1.524-.143 3.42-.437 6.553-1.518 9.113-3.941 1.381-1.31 2.208-2.905 2.593-4.761.488-2.345.215-4.677-.059-7.008-.143-1.192-.189-1.212-1.459-1.212-.306 0-.612.013-.918.013-2.912-.013-5.433-.892-7.224-3.322-.515-.697-1.095-.723-1.87-.586-3.589.651-7.198.86-10.807.157-2.833-.554-5.445-1.707-8.018-2.97-2.476-1.219-4.932-2.463-7.433-3.628-4.045-1.883-8.234-3.31-12.663-4-4.664-.723-9.185-.43-13.419 1.811-4.553 2.41-8.625 5.458-12.025 9.36-1.642 1.882-1.974 1.94-4.143.749-.045-.026-.091-.046-.137-.072-2.306-1.557-4.722-1.505-7.139-.358-3.641 1.726-7.328 3.36-10.846 5.36-1.804 1.03-3.107 2.417-4.026 4.26-1.368 2.736-1.928 5.692-2.514 8.643-.977 4.917-1.114 9.94-1.824 14.89-.866 6.018-1.863 12.003-3.941 17.755a37.497 37.497 0 0 0-1.094 3.667c-.567 2.318-.033 3.517 2.039 4.722.527.306 1.094.56 1.661.781 1.674.645 3.4 1.121 5.165 1.388a55.275 55.275 0 0 0 17.243-.105c3.478-.566 6.866-1.491 10.045-3.139 1.915-.99 2.677-2.462 2.781-4.533.176-3.648-.287-7.237-.827-10.825-1.121-7.367-2.306-14.72-3.394-22.093-.443-3.023-.736-6.07-.671-9.151.182.403.306.827.371 1.25.743 4.794 1.759 9.529 2.958 14.231 1.837 7.224 3.589 14.467 4.579 21.866.326 2.423.586 4.865.235 7.327-.248 1.7-.945 3.074-2.398 4.084-1.648 1.146-3.354 2.143-5.263 2.781-3.009 1.01-6.071 1.772-9.217 2.201-.665.092-1.362.118-2.261.535 1.486.54 2.743.644 4 .781 3.557.391 7.139.352 10.709.489 11.139.417 22.258-.196 33.371-.86 1.368-.085 2.749-.163 4.098-.495 5.224-1.277 10.292-2.983 15.093-5.439 11.712-5.998 20.61-14.896 27.098-26.28 1.524-2.678 2.677-5.511 3.504-8.468a23.473 23.473 0 0 0 .763-8.65c-.072-.749-.3-1.25-1.03-1.51-.97-.352-1.784-.99-2.664-1.499-2.006-1.16-2.931-1.029-4.625.528-4.012 3.686-8.618 5.998-14.194 5.868-1.101-.026-1.948.13-2.723.97-.56.606-1.374.9-2.247.665-.41-.11-.645-.43-.28-.794 1.244-1.225 2.299-2.6 3.263-4.045.17-.254.411-.502.756-.41.436.117.502.514.45.86-.111.696-.294 1.38-.463 2.155h.007ZM185.955 211.2h-.183v-20.373c0-1.557-.026-1.576-1.505-1.589-2.351-.02-4.696 0-7.048-.026a2.806 2.806 0 0 0-1.824.599c-1.172.879-2.182.873-3.361-.039-.58-.45-1.153-.567-1.83-.573-8.273-.04-16.546-.092-24.819-.15-.847 0-1.537.13-2.208.775-1.023.983-2.514 1.061-3.459.098-.834-.847-1.733-.919-2.775-.919-10.005.02-20.017.026-30.023.026-.717 0-1.407.033-2.058.43-.697.43-1.492.482-2.189.033-.788-.515-1.635-.502-2.502-.502-4.546 0-9.087-.013-13.633-.013h-.613c-1.335.039-1.4.091-1.44 1.374-.025.762 0 1.531-.025 2.3-.033.736.137 1.348.632 1.96.84 1.055.807 1.967-.085 3.055-.43.527-.56 1.042-.567 1.667-.072 8.78-.15 17.56-.221 26.346-.013 1.687-.248 1.928-1.954 1.909-3.27-.033-6.534-.052-9.804-.085-.775-.006-1.479.039-2.156.554-.86.658-1.863.632-2.69-.052-.665-.547-1.381-.606-2.144-.619-6.28-.065-12.559-.13-18.838-.176-1.375-.013-1.4.02-1.414 1.342-.084 6.077-.163 12.154-.221 18.224-.02 1.635.039 1.68 1.622 2.026 6.866 1.485 13.81 2.208 20.832 2.084 6.292-.117 12.5-1.114 18.688-2.208 7.947-1.401 15.914-2.632 23.972-3.153 9.706-.625 19.386-.215 29.059.684 4.469.417 8.95.84 13.445.176 3.654-.534 7.165-1.4 10.487-3.159a187.643 187.643 0 0 1 21.191-9.587c1.116-.426 1.674-1.223 1.674-2.391V211.18l-.013.019Zm97.606-30.071c-.613.579-.782 1.4-1.056 2.142-1.778 4.788-3.856 9.451-6.038 14.063-1.068 2.26-2.143 4.52-3.212 6.78-.553 1.172-.56 1.185.326 2.11a35.624 35.624 0 0 1 3.342 3.986c3.837 5.361 6.019 11.32 6.462 17.905.091 1.368.097 1.342 1.531 1.518 1.485.176 2.957.026 4.436-.052 10.507-.547 19.919-4.006 28.264-10.441 8.221-6.337 13.758-14.414 16.305-24.503 1.042-4.123 1.556-8.311 1.797-12.557.359-6.357-.228-12.643-1.153-18.915-.202-1.368-.254-1.394-1.602-1.563-6.078-.749-12.018-.104-17.829 1.791-1.798.586-3.557 1.277-5.198 2.221-.825.473-1.101 1.144-.827 2.013.169.534.351 1.068.482 1.615.619 2.514.918 5.061 0 7.542a15.913 15.913 0 0 1-4.475 6.494c-1.968 1.726-4.267 2.345-6.84 1.465-.723-.247-1.479-.429-2.169-.749-.847-.384-1.616-.469-2.456.02-.482.28-1.068.306-1.635.326-2.632.117-4.873-.906-7.003-2.3-.462-.306-.827-.775-1.452-.918v.007Zm13.536-9.073c.104 2.169.163 4.305-.209 6.435-.364 2.117-.332 2.123 1.753 2.846.195.065.397.104.586.176 1.27.469 2.423.215 3.426-.651.691-.6 1.323-1.271 1.987-1.909 2.143-2.052 2.677-4.592 2.299-7.431-.553-4.11-2.345-7.686-4.761-10.969-1.922-2.612-4.287-4.781-6.873-6.722-3.954-2.963-8.494-4.604-13.184-5.92-1.974-.554-3.974-.86-6.038-.847-6.495.033-12.963-.254-19.275-2.025-.978-.274-1.121-.137-1.284 1.081-.781 5.744-2.312 11.287-4.351 16.7-1.922 5.113-3.778 10.245-5.335 15.482-1.681 5.64-2.853 11.366-3.283 17.254-.384 5.334 0 10.603.71 15.872.677 5.016 1.726 9.953 2.996 14.844.294 1.12.411 1.166 1.44.547a29.58 29.58 0 0 0 3.733-2.67c6.774-5.621 11.94-12.538 16.278-20.126.052-.091.085-.189.143-.267.469-.658.222-1.114-.371-1.531-.964-.671-1.928-1.335-2.957-1.908a83.047 83.047 0 0 0-4.977-2.534c1.29.052 2.378.808 3.596.997.391-.593.156-1.166.182-1.707.033-.56-.019-1.127.033-1.68.71-7.302 2.644-14.225 6.396-20.582.763-1.29.769-1.316-.371-2.169-2.391-1.798-4.091-4.11-5.218-6.859-1.198-2.918-1.641-5.985-1.758-9.112-.033-.925-.033-1.856.182-2.774.287 2.09.717 4.129 1.186 6.161.99 4.253 3.139 7.738 6.911 10.07 3.765 2.325 7.81 3.979 12.188 4.761.41.072.781.052 1.198-.052 1.095-.293 1.551-.013 1.42 1.035-.189 1.446.58 2.326 1.525 3.133 1.426 1.218 3.204 1.498 4.983 1.726.619.078 1.055-.306 1.452-.716 1.036-1.088 1.792-2.345 2.346-3.739.54-1.374.859-2.813 1.289-4.214l.007-.006Zm-17.015-28.027c5.264-.261 11.133-.365 16.989-.827 7.804-.612 15.503-1.759 23.118-3.543 2.28-.535 4.553-1.114 6.664-2.208 1.713-.893 2.534-2.254 2.664-4.149.163-2.247.046-4.488-.111-6.729-.058-.859-.189-1.726-.495-2.546-.391-1.042-.566-1.127-1.557-.704-.423.183-.827.398-1.244.586-6.071 2.762-12.37 4.794-18.975 5.739-4.599.658-9.25.801-13.888 1.048-10.155.534-20.311.332-30.447-.325-3.152-.209-6.299-.665-9.165-2.182a2.121 2.121 0 0 0-.723-.215c-.651-.085-1.12.117-1.114.873.033 3.211.065 6.422.847 9.574.3 1.218.951 1.941 2.124 2.358 3.426 1.211 6.905 2.188 10.507 2.67 4.722.632 9.471.547 14.813.58h-.007Zm-71.205 26.945c-.931.723-1.511 1.564-2.019 2.43-1.518 2.599-3.003 5.224-4.214 7.979-.535 1.211-1.036 2.442-1.153 3.79-.365 4.104.267 8.044 2.032 11.77 2.521 5.321 6.345 9.451 11.517 12.316 4.996 2.775 10.35 4.586 15.894 5.836 2.638.593 5.335.886 8.045.99 1.289.046 1.322-.032 1.153-1.263-.691-5.107-1.492-10.207-1.238-15.385.02-.469-.052-.879-.449-1.231-3.381-2.996-5.772-6.721-7.817-10.688a85.715 85.715 0 0 1-4.69-10.805c-.144-.404-.202-.86-.606-1.14-.117.13-.215.189-.241.273-.104.391-.196.788-.28 1.186-.502 2.358-1.134 4.67-2.717 6.578-1.908 2.299-4.357 2.579-6.761.808-1.433-1.055-2.423-2.475-3.244-4.019-1.153-2.175-1.876-4.514-2.482-6.891-.195-.775-.143-1.628-.73-2.534Zm58.119 74.949c1.029-.404 1.68-.105 2.286.267.886.534 1.596 1.27 2.176 2.123.853 1.244 1.322 2.631 1.569 4.11.222 1.329.261 1.368 1.551 1.322 1.837-.059 3.667-.195 5.504-.267.658-.026 1.036-.365 1.264-.931.189-.482.267-.99.234-1.505-.312-4.572-2.833-7.464-6.494-8.539-2.697-.788-5.433-.86-8.188-.371-2.182.384-4.195 1.25-6.195 2.175-.41.189-.808.528-1.537.411 2.293-1.733 4.462-3.263 6.957-4.227 3.621-1.407 7.334-1.707 11.106-.632 1.199.338 1.218.352 1.642-.847 1.192-3.4 1.869-6.917 1.81-10.512-.123-7.764-2.664-14.701-7.504-20.784-.13-.163-.247-.326-.391-.476-.566-.592-.716-.586-1.159.046-.085.124-.156.26-.228.397-2.371 4.253-5.263 8.148-8.312 11.926-4.006 4.957-8.501 9.379-14.09 12.577-1.081.619-1.12.697-.749 1.974a927.077 927.077 0 0 0 3.57 11.873c.436 1.414 1.081 2.749 1.7 4.097.762 1.661 2.039 2.475 3.791 2.703 4.208.541 8.436.834 12.676.906 1.427.026 1.701-.3 1.466-1.752-.436-2.651-1.615-4.807-4.462-6.064h.007ZM47.844 8.558c1.407.28 2.678.098 3.935.111 22.57.267 45.142.137 67.713.417 19.711.241 39.423.293 59.134.423 1.941.013 3.883.033 5.824.013 1.036-.013 1.153-.215.86-1.218-.932-3.204-4.391-5.777-7.726-5.686-16.135.443-32.27.28-48.412.209-24.154-.111-48.308-.287-72.462-.424-3.843-.02-7.322 2.378-8.872 6.149l.006.006Zm282.689 202.563c-.645.261-.86.821-1.211 1.244-7.218 8.819-16.168 15.052-27.216 18.12-2.312.645-4.664 1.101-7.048 1.427-1.225.162-1.329.293-1.088 1.289 1.381 5.602 2.925 11.151 5.146 16.498.515 1.238 1.296 1.785 2.606 1.961 2.749.371 5.504.319 8.26.345 2.703.026 5.413-.046 8.116-.104.958-.02 1.133-.196.931-.919-.56-1.98-1.504-3.68-3.537-4.539-.215-.091-.56-.059-.684-.437.938-.071 1.688.222 2.404.639 1.642.964 2.873 2.299 3.498 4.11.261.755.658 1.068 1.459.983 1.622-.163 3.264-.078 4.886-.352 1.667-.286 1.706-.306.983-1.915-.104-.234-.208-.469-.332-.69-1.987-3.667-5.152-5.901-9.048-7.08-4.358-1.316-8.67-1.094-12.819.944-.404.196-.795.574-1.375.346 1.537-1.818 3.902-3.257 6.508-3.921 4.546-1.16 8.904-.71 13.054 1.537.417.228.781.658 1.322.547.222-.508-.091-.853-.215-1.225a146.931 146.931 0 0 0-1.407-4.051c-.697-1.921-.567-3.706.365-5.595 2.788-5.647 4.736-11.619 6.279-17.716.111-.423.404-.847.144-1.433l.019-.013Zm-262.17 45.632h4.085c31.86-.163 63.713.424 95.573.313 3.062-.013 6.13-.033 9.192-.046.775 0 1.518-.084 2.241-.41 2.195-1.003 3.98-2.475 5.25-4.533.677-1.095 1.257-2.267 1.283-3.563.059-2.755.026-5.517-.013-8.272-.013-.99-.163-1.049-1.127-.742-.241.078-.475.175-.716.273-6.456 2.566-12.748 5.497-18.911 8.695-1.778.925-3.608 1.661-5.543 2.169-4.527 1.186-9.133 1.635-13.803 1.531-5.667-.13-11.302-.808-16.963-1.114-10.025-.54-20.004-.104-29.945 1.205-4.807.632-9.588 1.453-14.363 2.267-5.387.918-10.807 1.517-16.24 2.234v-.007Zm-31.026-60.254c-.378-.059-.586.189-.808.391-2.332 2.077-4.494 4.312-6.149 6.988-2.54 4.117-4.436 8.507-5.53 13.216-1.498 6.448-1.186 12.759 1.648 18.843 1.348 2.892 3.296 5.25 5.902 7.093 2.351 1.661 4.924 2.898 7.621 3.862 2.456.873 2.488 1.199 2.495-1.667l.078-36.748c0-2.358-.02-2.104-2.058-2.071-1.87.032-2.69-.769-2.834-2.658a56.562 56.562 0 0 1-.13-5.66c.013-.534.189-1.127-.248-1.589h.013Zm160.994-13.802c1.075-1.569 1.831-2.931 2.932-3.979.918-.873 1.498-1.896 1.993-3.029.905-2.065 1.967-4.038 3.491-5.732.548-.612 1.134-1.192 1.876-1.556 1.095-.541 1.909-.092 2.091 1.12.033.202.02.41.039.612.404 3.596 1.473 6.976 3.238 10.135.651 1.166 1.446 2.227 2.553 3.015 1.694 1.199 3.284.964 4.547-.67.697-.899 1.108-1.948 1.427-3.029.664-2.26 1.003-4.579 1.335-6.904.157-1.094.137-2.117-.182-3.166-1.739-5.783-2.912-11.678-3.394-17.703-.156-1.98-.43-3.953-.73-5.92-.162-1.049-.364-1.12-1.315-.632-1.648.834-3.127 1.928-4.521 3.139-9.003 7.836-13.94 17.814-15.497 29.545-.189 1.433-.391 2.918.098 4.754h.019Zm158.206-21.533c-.293-.084-.326-.228-.345-.377-.417-2.651-1.485-5.081-2.612-7.484a7.805 7.805 0 0 0-1.59-2.234c-1.172-1.16-1.765-1.348-3.081-.443-3.113 2.143-5.009 5.048-4.983 8.956.007 1.061.13 2.13.306 3.198.202 1.25-.645 2.286-1.661 1.954-1.218-.404-2.176.058-3.211.423-1.277.443-1.316.449-1.121 1.824.658 4.553 1.043 9.125 1.01 13.73-.007 1.218.104 1.296 1.322 1.309a23.958 23.958 0 0 0 10.82-2.351c2.469-1.179 4.41-2.892 5.895-5.185 3.049-4.709 4-9.894 3.401-15.378-.313-2.911-1.46-5.517-3.596-7.601a8.493 8.493 0 0 0-1.055-.879c-.352-.241-.782-.339-1.134-.02-.352.32-.065.665.078.971.691 1.491 1.205 3.035 1.479 4.657.28 1.635.384 3.276.078 4.937v-.007ZM253.531 41.75c.619.124 1.146-.248 1.713-.41 3.296-.97 6.579-1.218 9.921-.15 4.794 1.53 9.107 3.836 12.566 7.555.534.574.951.593 1.563.183a20.53 20.53 0 0 1 5.791-2.71c.71-.202 1.062-.6 1.225-1.355.794-3.673-.092-6.975-2.117-10.03-1.916-2.872-4.56-4.911-7.583-6.5-.423-.222-.847-.378-1.316-.274-2.012.45-4.058.326-6.09.397-3.388.118-6.234 1.368-8.547 3.837-.592.632-1.218 1.237-1.745 1.921-1.772 2.3-3.505 4.631-5.257 6.956-.117.157-.241.326-.124.58Zm44.328 111.032c.287.58.762.814 1.153 1.127 2.566 2.051 4.84 4.37 6.696 7.093.118.169.248.325.346.501.325.586.762.58 1.27.254.169-.111.358-.202.534-.299 5.4-3.12 11.263-4.664 17.438-5.211 2.241-.202 4.475-.28 6.722-.163 1.088.059 1.153-.026.925-1.107-.175-.847-.443-1.674-.605-2.527-.163-.867-.645-1.466-1.362-1.935-3.387-2.234-7.081-3.634-11.139-3.856-7.484-.417-14.454 1.368-20.884 5.231-.384.234-.827.41-1.101.892h.007Zm-9.895-133.105c.788 1.328 1.14 2.78 2.026 3.992.143.196.248.495-.013.69-.176.137-.384 0-.554-.11-.215-.143-.417-.293-.632-.43-2.319-1.537-4.859-2.573-7.543-3.263-.573-.15-1.146-.313-1.934-.15.768.99 1.537 1.804 2.091 2.742.521.88 1.205 1.433 2.091 1.902 6.136 3.224 11.197 11.691 8.461 19.26-.247.677 0 .938.671.983 1.068.065 2.156.052 3.199.267 1.081.228 1.693-.123 2.266-1.016 2.235-3.53 3.362-7.373 2.821-11.502-.677-5.191-3.009-9.38-8.071-11.594-1.166-.508-2.319-1.061-3.491-1.556-.359-.15-.704-.437-1.394-.202l.006-.013Zm-16.148 154.638c-.397-.085-.58.091-.73.306-.228.339-.456.677-.664 1.029-2.449 4.181-4.045 8.663-4.847 13.45-.436 2.573-.788 5.145-.566 7.757.267 3.146.28 3.146 2.807 4.631.046.026.085.052.131.085.527.397.912.312 1.198-.306.456-.971.945-1.922 1.42-2.879 3.199-6.448 5.954-13.092 8.683-19.742.248-.606.215-.918-.443-1.14-2.325-.781-4.54-1.817-6.67-3.041-.13-.079-.274-.124-.326-.15h.007ZM246.678 51.37c.86-.104 1.694-.202 2.534-.306 4.202-.508 8.351-.267 12.422.918 2.639.769 4.964 2.124 7.023 3.928.443.39.82.775 1.407.176 1.68-1.72 3.556-3.224 5.491-4.644.638-.47.554-.834.046-1.335-1.531-1.505-3.029-3.036-4.788-4.28-2.189-1.556-4.534-2.761-7.205-3.224-1.459-.254-2.977-.469-4.39.046-4.469 1.635-8.416 4.123-11.804 7.477-.312.306-.755.554-.736 1.238v.006Zm-4.722 15.124c1.726-1.583 3.615-2.775 5.582-3.823a99.235 99.235 0 0 1 11.556-5.191c1.746-.658 3.576-.762 5.42-.372.267.059.553.313.801-.032-.033-.104-.033-.222-.091-.287-4.072-4.22-8.964-5.432-14.527-3.797-3.009.88-5.647 2.514-8.129 4.449-1.14.885-1.629 1.875-1.563 3.256.091 1.935.612 3.804.938 5.803l.013-.006Zm44.249 80.621c.072.319.28.391.463.443 3.537 1.068 6.879 2.553 9.953 4.612.587.397 1.01.228 1.505-.144 2.097-1.55 4.371-2.807 6.775-3.836a34.986 34.986 0 0 1 13.379-2.84c3.87-.052 7.57.912 11.107 2.501.488.222.931.632 1.537.502.046-.111.13-.215.111-.293-.58-2.384-1.427-4.677-2.345-6.943-.28-.691-.762-.508-1.264-.307-1.661.658-3.381 1.14-5.113 1.564-11.341 2.774-22.884 4.012-34.525 4.559-.527.026-1.088-.091-1.583.176v.006Zm3.564-103.639c.69-1.544.885-3.029.69-4.566-.541-4.285-2.299-8.011-5.315-11.092-2.228-2.273-4.788-3.947-8.156-3.908-2.169.026-4.325.065-6.423.632.026.443.287.502.521.586 1.284.482 2.58.945 3.857 1.453 4.077 1.634 7.68 3.966 10.559 7.327 2.065 2.41 3.485 5.133 3.811 8.344.032.345.039.716.456 1.211v.013ZM42.62 192.793h.04v-8.572c0-.41 0-.814-.02-1.224-.033-.612-.43-.612-.867-.476-.762.241-.716.925-.762 1.518-.45 5.595-.684 11.203-.606 16.817.007.56.098 1.114.163 1.674.052.482.306.704.808.717.945.019 1.231-.209 1.238-1.264.02-3.061.006-6.122.006-9.184v-.006Zm313.324-118.04c.059-.144.137-.241.124-.326a42.996 42.996 0 0 0-3.615-11.62c-.248-.52-.541-.82-1.192-.573-.599.228-1.16.391-1.003 1.238.364 1.954.599 3.927 1.296 5.803.625 1.687 1.531 3.218 2.794 4.514.437.45.854 1.016 1.603.964h-.007ZM52.014 255.542c.911.807 1.66 1.205 2.52 1.224 2.43.039 4.86.013 7.29.013v-.28l-9.81-.951v-.006Z"/><path d="M180.691 46.713v8.272c0 .404 0 .827-.097 1.212-.222.833-.776 1.257-1.648 1.335-.255.026-.509.013-.763.02-7.347.032-14.695.084-22.05.084-33.488-.02-66.983-.059-100.472-.091h-1.224c-2.196-.013-2.502-.241-2.547-2.43-.072-3.42-.046-6.839-.046-10.258 0-2.143.006-4.286.032-6.435.02-1.72.483-2.195 2.157-2.254.358-.013.716 0 1.075-.006 30.12-.137 60.241-.267 90.362-.404 10.618-.046 21.236-.117 31.86-.176 2.983-.013 3.426.436 3.439 3.478.007 2.553 0 5.107 0 7.66h-.065l-.013-.007ZM116.255 55.2v.013h59.727c.462 0 .918-.02 1.381 0 .729.026 1.003-.352.99-1.029-.007-.358.006-.716.013-1.075.013-4.338.039-8.675.032-13.013 0-2.124.411-2.182-2.123-2.17-11.843.072-23.685.157-35.528.216-28.127.13-56.255.24-84.382.358-.41 0-.815.02-1.225.02-.567 0-.84.306-.86.853-.02.456-.032.918-.032 1.374v11.945c0 2.931-.046 2.508 2.442 2.508 19.862.013 39.716 0 59.578 0h-.013ZM116.437 87.968c20.317-.097 40.641-.182 60.958-.325 2.651-.02 3.609.462 3.628 3.582.033 5.36 0 10.721-.032 16.081-.013 1.785-.593 2.319-2.43 2.338-1.889.014-3.778 0-5.667 0-39.156.189-78.312-.078-117.467-.013-.613 0-1.225 0-1.837-.026-.704-.032-1.153-.397-1.238-1.113-.078-.658-.17-1.316-.17-1.98-.012-5.205-.012-10.415-.006-15.62 0-2.26.378-2.63 2.697-2.644l61.57-.312v.032h-.006Zm.104 19.325v.013h60.34c1.765 0 1.771-.013 1.784-1.778.02-4.39.046-8.78.033-13.17 0-2.436.443-2.351-2.41-2.338-11.589.065-23.177.156-34.766.208-28.283.13-56.56.241-84.845.359-.41 0-.814.02-1.224.02-.554 0-.854.28-.88.833-.02.456-.032.918-.032 1.374v12.252c0 2.618.084 2.221 2.273 2.221 19.907.006 39.82 0 59.727 0v.006ZM116.509 83.8H55.088c-2.123 0-2.886.208-2.905-2.905-.033-5.413-.02-10.825-.007-16.231 0-1.778.45-2.228 2.254-2.345.56-.039 1.12-.02 1.687-.026 21.034-.098 42.068-.091 63.108-.254 19.607-.15 39.208-.163 58.815-.235 2.098-.006 2.736.587 2.951 2.645.052.508.059 1.023.059 1.53l-.039 15.007c0 .306.013.612-.02.918-.13 1.218-.762 1.818-1.98 1.883-.411.02-.815.006-1.225.006h-61.264l-.013.007Zm.052-2.358v.02H177.057c1.556-.033 1.602-.066 1.615-1.674.02-4.39.052-8.78.033-13.17-.013-2.71.475-2.45-2.424-2.443-35.579.13-71.165.274-106.745.417-4.39.02-8.78.072-13.171.124-1.811.02-1.818.046-1.818 1.915v12.401c0 2.605-.065 2.397 2.437 2.404h59.577v.006ZM116.626 113.709c20.174-.098 40.348-.202 60.528-.3.463 0 .919-.013 1.381 0 1.596.039 2.228.567 2.508 2.091.143.801.234 1.609.228 2.436-.052 4.904-.085 9.802-.13 14.707 0 .41 0 .82-.079 1.218-.175.964-.677 1.413-1.648 1.498-.403.039-.814.019-1.224.019-15.627.15-31.254.059-46.882.046l-75.236-.059h-.919c-2.593-.006-2.742-.136-2.755-2.794-.02-5.36-.013-10.727 0-16.088 0-2.149.332-2.488 2.488-2.501 9.803-.052 19.614-.117 29.417-.143 10.774-.026 21.555 0 32.329 0v-.137l-.006.007Zm.117 19.325v.013h60.216c1.19-.005 1.791-.582 1.804-1.733.02-2.143.026-4.292.039-6.435.02-2.605.059-5.211.072-7.816 0-1.224-.052-1.264-1.303-1.303-.41-.013-.814 0-1.225 0-7.966.059-15.933.144-23.9.176-29.573.131-59.147.248-88.72.372-2.45.013-4.906.006-7.355.032-1.622.013-1.635.026-1.641 1.615-.007 4.293-.007 8.578 0 12.871 0 2.416-.183 2.214 2.254 2.214h59.759v-.006ZM115.33 162.337H51.74c-.56 0-1.127.013-1.68-.059-.568-.071-.913-.456-.965-1.029-.052-.599.313-.957.834-1.14.593-.208 1.218-.104 1.824-.104h127.03c.508 0 1.029-.033 1.53.026.847.098 1.355.599 1.277 1.238-.098.729-.593 1.029-1.283 1.048-.56.013-1.121.02-1.687.02h-63.29ZM65.276 168.791c5.315.033 9.413 4.234 9.38 9.608-.032 5.152-4.332 9.32-9.576 9.294-5.172-.026-9.321-4.286-9.308-9.555.013-5.178 4.293-9.386 9.504-9.353v.006Zm-.117 2.391c-3.928.006-7.068 3.191-7.042 7.151.02 3.876 3.29 7.061 7.205 7.015 3.823-.045 6.95-3.217 6.983-7.086.032-3.843-3.238-7.08-7.146-7.074v-.006ZM49.239 80.726c0 1.576-.014 3.152 0 4.728.117 11.991.201 23.989.37 35.98.111 8.213.34 16.433.502 24.646.02 1.12 0 2.247-.02 3.367 0 .3-.038.612-.136.899-.104.306-.358.501-.703.469-.274-.026-.457-.208-.56-.456-.19-.436-.177-.899-.177-1.355-.006-2.963-.071-5.92.013-8.884.235-8.063.209-16.127.248-24.19.052-11.125.026-22.256.046-33.38 0-.606-.111-1.219.416-1.818v-.006ZM95.664 172.543c2.69-.026 4.794 2.097 4.814 4.846.019 2.749-2.026 4.878-4.743 4.931-2.781.058-5.002-2.091-5.009-4.84-.006-2.742 2.156-4.917 4.938-4.943v.006Zm-.105 7.393c1.447.026 2.534-1.01 2.56-2.43.027-1.348-1.087-2.507-2.475-2.579-1.322-.065-2.54 1.107-2.566 2.469-.026 1.4 1.061 2.507 2.475 2.533l.007.007ZM48.19 181.727c.527.423.41.807.416 1.14.13 4.793.242 9.587.359 14.381.156 6.376.325 12.746.482 19.123.02.866.032 1.732.006 2.599-.026.853-.397 1.309-1.003 1.263-.716-.052-.905-.553-.918-1.179v-.918c.124-9.946.24-19.898.39-29.844.033-2.136.17-4.273.268-6.565ZM105.148 177.786c0-2.585 2.078-4.689 4.645-4.689 2.547 0 4.696 2.162 4.657 4.696-.032 2.462-2.136 4.585-4.599 4.644-2.521.058-4.696-2.097-4.703-4.651Zm4.645 2.234c1.283-.006 2.319-1.087 2.267-2.351-.053-1.179-1.095-2.156-2.313-2.162a2.26 2.26 0 0 0-2.26 2.195c-.026 1.257 1.029 2.331 2.299 2.318h.007ZM49.134 14.525c.43 4.937.339 9.88.456 14.81.091 3.87.209 7.739.306 11.608.013.508 0 1.016-.013 1.53-.013.515-.215.919-.781.944-.639.027-.886-.403-.925-.976a9.937 9.937 0 0 1-.013-.763c.156-4.682.325-9.366.469-14.049.078-2.644.13-5.295.156-7.946.02-1.732.085-3.452.345-5.158ZM162.139 13.268c.137-.033.267-.085.404-.092 5.648-.104 11.302-.201 16.956-.293.358 0 .717 0 1.068.026.287.026.443.202.437.515 0 .306-.163.488-.45.508-.403.032-.814.032-1.218.02-3.257-.098-6.514-.209-9.771-.294-1.778-.045-3.563-.032-5.348-.071-.697-.013-1.394-.085-2.084-.124l.013-.195h-.007ZM48.646 153.739c.039-.514.045-1.081.723-1.139.586-.053.755.371.782.879.032.729-.372 1.491-.808 1.426-.665-.104-.613-.69-.697-1.166ZM49.812 46.374c-.098.45-.078 1.147-.704 1.12-.547-.025-.677-.677-.703-1.198-.02-.436.09-.853.618-.866.587-.02.743.417.789.951v-.007ZM49.056 48.66c.534.092.86.411.834 1.01-.02.424-.287.658-.697.6-.567-.079-.906-.45-.9-1.023 0-.423.307-.6.763-.586ZM183.017 12.616c.469.124.742.378.677.853-.045.333-.299.515-.632.489-.39-.033-.651-.274-.658-.67-.013-.411.261-.607.619-.672h-.006ZM49.597 221.966c.351.006.56.195.58.547.013.273-.124.495-.417.528-.326.039-.613-.046-.665-.43-.045-.365.163-.554.502-.645ZM49.427 157.953c-.208-.026-.345-.156-.351-.371 0-.215.15-.365.364-.365.215 0 .372.144.365.365 0 .215-.143.345-.378.371ZM303.331 71.985c.019.88-.059 1.739-.365 2.566-.775 2.123-2.664 2.612-4.345 1.068-1.485-1.368-2.26-3.14-2.521-5.113-.176-1.322-.189-2.657.319-3.927.867-2.195 3.01-2.645 4.619-.919 1.648 1.766 2.227 3.967 2.293 6.325ZM291.208 60.808c2.045-2.469 4.658-3.367 7.758-2.827 1.407.241 2.795.586 4.234.6.15 0 .307.032.45.071 1.185.274 1.804.866 1.83 1.746.026.963-.755 1.804-1.928 2.045-.821.17-1.628.071-2.41-.209a10.091 10.091 0 0 1-1.537-.684c-2.678-1.498-5.44-1.967-8.41-.742h.013ZM272.708 165.541c-.677-.306-1.309.561-1.674-.169-.325-.658.404-.951.723-1.374.157-.202.365-.358.521-.56.886-1.114.548-2.137-.814-2.41-1.003-.209-1.987-.45-2.866-1.01-1.394-.892-2.045-2.201-1.772-3.595.3-1.537 1.14-2.306 2.931-2.677a8.36 8.36 0 0 0 4.026-2.039 4.729 4.729 0 0 1 2.143-1.12c.365-.091.86.039 1.003-.528-.104-.351-.397-.176-.618-.195-.274-.02-.515-.111-.561-.41a.614.614 0 0 1 .456-.71c.977-.267 1.968-.528 2.964-.717.56-.111.88.235.841.801-.066 1.003.156 2.065-.489 2.964-.221.306-.169.573-.059.853.411 1.029.157 2.006-.215 2.97-.625 1.615-1.205 3.237-1.524 4.957-.247 1.355-.671 1.589-2.026 1.381-.15-.026-.299-.072-.449-.105-.385-.084-.834-.345-1.147.02-.358.417-.293.99-.058 1.446.28.534.684 1.009 1.029 1.511.202.293.436.567.586.879.326.678-.853.547-.658 1.16.137.416.678.67.508 1.211-.065.215-.241.358-.462.313-.189-.039-.43-.105-.528-.248-.736-1.068-1.478-1.244-2.371-.15-.221.274-.658.3-.944-.045-.248-.293-.118-.599.084-.834.417-.501.88-.97 1.42-1.557v-.013Zm2.612-13.026c-.931.104-1.407.645-1.732 1.27-.489.957-1.218 1.277-2.248 1.153a3.545 3.545 0 0 0-1.797.247c-.997.411-1.421 1.121-1.219 2.182.222 1.153 1.101 1.72 2.104 1.987 1.675.436 3.381.729 5.075 1.087.43.092.742-.071.821-.468.377-1.915 1.244-3.661 1.882-5.485.189-.547.163-1.1-.143-1.621-.469-.795-.958-.847-1.485-.092-.521.756-.964 1.557-1.453 2.339-.169.267-.404.521-.743.345-.358-.183-.234-.521-.097-.801.338-.723.697-1.433 1.042-2.15l-.007.007ZM244.262 196.538c.221 2 .26 4.025.41 6.057.143 1.98.397 3.941.567 5.914.045.502.071 1.017.039 1.518-.026.345-.137.775-.56.808-.509.032-.645-.404-.737-.814-.097-.45-.215-.899-.241-1.349-.215-3.914-.215-7.822.346-11.711.019-.143.11-.28.169-.416l.007-.007ZM245.936 212.567c-.065.417-.124.827-.574.782-.397-.039-.514-.424-.54-.782-.026-.378.078-.729.54-.69.43.032.496.417.567.69h.007ZM323.882 226.603c.671-2.214 1.883-4.201 2.788-6.63-.078 2.051-1.635 5.744-2.788 6.63ZM323.335 228.779c-.032.273-.156.482-.436.514-.306.033-.436-.176-.449-.456-.013-.286.13-.475.423-.501.313-.033.43.169.462.443Z"/><path d="M131.602 45.248h13.477c.508 0 1.023.02 1.531.065.567.058.958.358 1.023.957.078.671-.3 1.069-.893 1.238-.338.097-.703.117-1.055.117-9.497 0-18.988-.013-28.486-.026-.462 0-.918-.033-1.355-.202-.482-.182-.762-.547-.755-1.042 0-.495.286-.853.768-1.036.593-.228 1.205-.189 1.818-.189h13.933v.118h-.006ZM175.278 46.935c.033 3.445-2.736 6.259-6.169 6.259a6.13 6.13 0 0 1-6.155-6.097c-.033-3.432 2.781-6.31 6.155-6.298 3.362.013 6.13 2.768 6.163 6.13l.006.006Zm-6.149-3.602c-2.208-.02-3.785 1.524-3.785 3.706 0 2.123 1.674 3.804 3.778 3.79 2.039-.013 3.713-1.66 3.739-3.686.027-2.143-1.589-3.79-3.732-3.817v.007ZM74.122 47.423H60.95c-.508 0-1.029 0-1.524-.098-.553-.11-.873-.508-.88-1.094 0-.586.32-.977.86-1.114.392-.097.809-.097 1.219-.097 9.139.026 18.278.052 27.417.084.352 0 .723 0 1.062.092.6.169.977.56.9 1.237-.073.586-.45.906-1.024.958-.456.045-.918.045-1.374.045H74.128l-.006-.013ZM158.915 46.83v4.892c0 .358.026.723-.059 1.068-.137.586-.469 1.042-1.153 1.016-.664-.02-1.009-.423-1.088-1.061a9.718 9.718 0 0 1-.045-1.069c0-3.315-.007-6.624 0-9.939 0-.404 0-.82.065-1.218.091-.567.449-.912 1.036-.944.599-.04.964.325 1.114.853.11.384.123.801.123 1.205.013 1.732 0 3.465 0 5.197h.007ZM97.26 49.481c-1.505.02-2.814-1.302-2.808-2.84 0-1.42 1.31-2.722 2.756-2.755 1.433-.032 2.846 1.4 2.827 2.86-.02 1.433-1.316 2.716-2.769 2.735h-.006ZM110.314 46.804c.026 1.557-1.088 2.742-2.612 2.788-1.596.046-2.873-1.14-2.899-2.696-.026-1.511 1.146-2.755 2.632-2.795 1.615-.039 2.853 1.12 2.885 2.697l-.006.006ZM131.628 97.34h13.783c.509 0 1.023.02 1.525.072.566.066.944.378 1.003.977.065.678-.326 1.056-.925 1.219-.339.09-.704.11-1.055.11-9.498 0-18.989-.013-28.486-.032-.404 0-.814-.066-1.205-.163-.56-.13-.893-.534-.873-1.1.019-.574.384-.906.938-1.07.501-.149 1.01-.13 1.518-.13h13.783v.118h-.006ZM175.584 99.021c.039 3.446-2.729 6.26-6.162 6.266a6.124 6.124 0 0 1-6.156-6.09c-.032-3.432 2.775-6.311 6.156-6.305 3.361.013 6.13 2.762 6.169 6.13h-.007Zm-2.416.235c.039-2.136-1.577-3.804-3.713-3.83-2.15-.026-3.733 1.446-3.804 3.537-.072 2.201 1.595 3.96 3.758 3.96 2.039 0 3.72-1.642 3.759-3.667ZM74.591 99.484H61.127c-.456 0-.925.013-1.368-.078-.547-.111-.886-.489-.893-1.082 0-.592.339-.964.886-1.094.391-.091.808-.078 1.218-.078l27.242.04c.456 0 .925-.06 1.361.136.515.228.821.606.75 1.198-.066.515-.378.847-.88.925-.45.072-.912.072-1.374.072H74.604v-.04h-.013ZM159.221 98.878c0 1.733.013 3.465 0 5.198-.013 1.231-.404 1.81-1.159 1.823-.776.02-1.166-.527-1.173-1.778-.019-3.569-.013-7.132-.013-10.701 0-.104 0-.202.007-.306.078-.997.488-1.485 1.198-1.446.632.032 1.094.52 1.114 1.407.046 1.934.013 3.875.013 5.81h.013v-.007ZM100.341 98.813c0 1.433-1.283 2.722-2.742 2.762-1.505.039-2.828-1.271-2.84-2.808-.014-1.42 1.27-2.729 2.722-2.78 1.427-.053 2.853 1.367 2.86 2.832v-.006ZM110.627 99.028c-.04 1.543-1.199 2.67-2.743 2.657-1.583-.013-2.807-1.263-2.768-2.826a2.713 2.713 0 0 1 2.762-2.664c1.615.026 2.788 1.23 2.755 2.826l-.006.007ZM131.654 73.75h-13.94c-.456 0-.925.006-1.375-.072-.553-.098-.925-.475-.944-1.049-.026-.65.371-1.042.99-1.165.345-.072.71-.059 1.068-.059 9.498.007 18.989.02 28.486.032.358 0 .723-.013 1.062.072.606.15.99.547.938 1.212-.046.592-.417.931-.977 1.01-.45.064-.919.058-1.375.058h-13.94v-.033l.007-.006ZM175.584 73.242c-.026 3.445-2.859 6.22-6.279 6.148-3.413-.065-6.065-2.78-6.045-6.2a6.163 6.163 0 0 1 6.266-6.142 6.138 6.138 0 0 1 6.058 6.194Zm-6.155 3.732c2.091-.013 3.719-1.596 3.739-3.641.019-2.117-1.635-3.83-3.733-3.856-2.123-.032-3.784 1.615-3.784 3.758 0 2.163 1.602 3.752 3.778 3.739ZM74.728 71.346h13.314c.456 0 .919 0 1.375.072.501.072.82.39.892.912.078.593-.215.964-.73 1.205-.384.176-.794.15-1.204.15l-27.392-.04c-.306 0-.612-.013-.912-.065-.645-.117-1.198-.37-1.205-1.146-.007-.775.528-1.062 1.186-1.14.553-.065 1.12-.065 1.68-.065h13.009v.117h-.013ZM156.87 72.91c0-1.733-.007-3.465 0-5.198 0-.404.026-.82.123-1.211.111-.43.469-.658.912-.697.437-.033.789.117 1.036.508.3.462.267.97.267 1.478v10.24c0 .455.039.917-.189 1.34-.241.45-.606.704-1.114.646-.495-.059-.86-.352-.957-.854-.072-.397-.078-.807-.078-1.218-.007-1.68 0-3.36 0-5.04v.006ZM110.627 73.066c0 1.53-1.18 2.748-2.671 2.775-1.518.026-2.847-1.277-2.847-2.801 0-1.472 1.27-2.788 2.69-2.788 1.557 0 2.834 1.27 2.828 2.82v-.006ZM97.599 70.141c1.44.02 2.716 1.297 2.742 2.743.026 1.504-1.29 2.774-2.853 2.748a2.785 2.785 0 0 1-2.73-2.872c.053-1.446 1.349-2.638 2.84-2.612v-.007ZM132.012 123.081h13.608c.508 0 1.022.02 1.524.078.573.072.938.437.997.997.058.58-.3.931-.815 1.153-.39.169-.794.15-1.205.15-9.478-.007-18.955-.02-28.44-.033-.404 0-.814-.052-1.205-.143-.541-.124-.905-.463-.912-1.062-.006-.599.332-.925.873-1.107.547-.183 1.107-.15 1.668-.15h13.913v.117h-.006ZM169.52 131.028a6.168 6.168 0 0 1-6.13-6.142c-.006-3.407 2.873-6.292 6.234-6.253 3.329.045 6.156 2.885 6.156 6.187 0 3.42-2.834 6.227-6.26 6.208Zm-.013-9.861c-2.143-.131-3.778 1.797-3.746 3.79.039 2.013 1.726 3.674 3.746 3.706 2.117.033 3.778-1.628 3.765-3.764-.013-2.215-1.55-3.746-3.765-3.732ZM74.904 122.925h13.301c.456 0 .932-.02 1.368.091.587.15 1.017.554.925 1.212-.071.547-.43.918-1.016.977a9.72 9.72 0 0 1-1.068.045l-27.366-.039c-.306 0-.618.013-.918-.032-.736-.118-1.225-.606-1.16-1.186.072-.638.482-1.003 1.108-1.081.456-.052.918-.039 1.374-.039h13.452v.052ZM159.319 124.664v4.892c0 .403-.007.82-.078 1.218-.091.501-.43.801-.938.859-.515.059-.873-.182-1.114-.632-.209-.377-.202-.781-.202-1.191v-10.552c0-.404-.026-.814.182-1.192.241-.443.58-.716 1.101-.658.508.052.86.345.964.84.085.398.085.808.085 1.218.006 1.733 0 3.466 0 5.198h.006-.006ZM110.815 124.716c-.013 1.524-1.192 2.697-2.722 2.716-1.538.02-2.899-1.289-2.886-2.768.013-1.452 1.303-2.716 2.762-2.722 1.589 0 2.859 1.237 2.846 2.774ZM100.439 124.579c-.013 1.479-1.238 2.71-2.717 2.736-1.517.026-2.775-1.257-2.768-2.84 0-1.465 1.244-2.729 2.71-2.755 1.459-.033 2.788 1.342 2.775 2.859ZM68.279 174.966c0 .43-.202.795-.417 1.133-1.31 2.065-2.632 4.123-3.954 6.181a2.76 2.76 0 0 1-.508.561c-.248.208-.534.28-.847.097-.306-.176-.378-.462-.371-.781.013-.372.215-.671.417-.971 1.303-1.882 2.605-3.777 3.921-5.653.26-.372.6-.691.932-1.003a.5.5 0 0 1 .573-.085c.195.104.254.3.247.515l.007.006Z"/></g><path stroke="#fff" stroke-linecap="round" stroke-width="4" d="M280.681 181c-3.632 6.733-7.359 13.562-10.107 20.713-9.133 23.768-4.096 47.688-26.392 65.284-8.795 6.942-24.065 32.359-34.877 34.041-10.455 1.626-20.966 1.461-31.508 1.461-12 0-24.037-1.022-36.031-.508-20.785.891-30.414 22.383-50.569 23.826-22.324 1.599-44.07-7.42-60.925-21.888C12.87 288.993-1.318 258 2.682 228c3.385-13.793 11.94-30.536 23.908-33.244 1.888-.427 4.258-1.176 6.177-1.176 1.27 0 4.776-.383 5.896-1.143"/><defs><clipPath id="a"><path fill="#fff" d="M18.681 0h398v276h-398z"/></clipPath></defs></svg>