<svg width="417" height="328" viewBox="0 0 417 328" fill="none" xmlns="http://www.w3.org/2000/svg">
<g clip-path="url(#clip0_1276_2349)">
<path d="M285.5 17.5L305 25.5L313 33L302 36L285 24.5L289.5 31.5L280 28L284.5 33L260 38.5L266 42L267.5 43L254 49L261.5 50L242 61L244.375 61.875L239.5 66V59.5L244 55V52.5L250 47V44.5L261 29.5L273.5 27L267.5 25L271 23.5L280 22.5L278 19L284.5 21L289.5 23.5L285.5 17.5Z" fill="#F361FF"/>
<path d="M364.543 168.596C364.341 168.928 364.249 169.045 364.191 169.182C364.115 169.371 364.052 169.565 364.002 169.762C361.702 178.014 356.205 182.808 347.951 184.625C345.659 185.138 343.335 185.493 340.994 185.687C339.385 185.817 339.372 185.824 339.216 187.478C338.927 190.476 338.391 193.446 337.614 196.356C337.405 197.144 337.249 197.964 336.917 198.7C334.982 202.928 334.357 207.5 333.366 211.974C332.09 217.765 330.585 223.496 328.188 228.935C327.041 231.534 326.879 233.989 328.005 236.601C328.794 238.425 329.432 240.32 330.077 242.203C330.403 243.14 330.937 243.557 331.959 243.642C340.102 244.352 348.264 244.691 356.433 244.912C364.601 245.134 372.77 245.309 380.925 245.817C390.566 246.417 400.148 247.459 409.561 249.738C411.098 250.11 412.623 250.533 414.062 251.21C414.85 251.582 415.593 252.031 416.179 252.689C417.3 253.946 417.274 255.451 416.108 256.669C415.417 257.385 414.544 257.802 413.639 258.167C411.489 259.039 409.222 259.463 406.936 259.658C402.409 260.049 397.875 260.336 393.341 260.642C387.583 261.026 381.824 261.332 376.151 262.465C374.796 262.739 373.467 263.084 372.184 263.592C370.737 264.165 369.382 264.927 368.418 266.152C364.777 270.802 359.742 272.561 354.133 273.186C348.954 273.759 343.756 274.052 338.545 274.118C329.145 274.235 319.752 274.28 310.352 274.085C305.708 273.987 301.063 273.785 296.412 273.792C295.071 273.792 295.045 273.792 294.745 275.108C294.608 275.713 294.335 275.98 293.716 275.987C292.393 276 291.13 276.059 289.885 275.297C288.211 274.274 286.27 273.948 284.309 273.825C283.104 273.746 283.065 273.707 282.902 272.496C282.808 271.838 282.73 271.178 282.668 270.516C282.551 269.174 282.603 269.109 283.899 269.044C286.192 268.927 288.491 268.829 290.784 268.712C291.754 268.668 292.723 268.605 293.69 268.523C294.361 268.464 294.764 268.633 294.823 269.389C294.908 270.529 295.292 270.522 296.393 270.529C302.008 270.555 307.63 270.568 313.245 270.613C320.957 270.679 328.67 270.789 336.383 270.828C342.669 270.861 348.942 270.568 355.169 269.676C356.537 269.48 357.872 269.168 359.201 268.79C361.273 268.204 363.149 267.24 364.477 265.559C367.572 261.638 371.819 260.049 376.528 259.28C381.566 258.458 386.646 257.921 391.745 257.672C396.592 257.444 401.438 257.229 406.265 256.766C408.245 256.577 410.219 256.297 412.108 255.613C412.675 255.412 413.3 255.294 413.704 254.708C413.241 253.998 412.44 253.887 411.743 253.666C408.864 252.761 405.894 252.24 402.923 251.745C395.367 250.474 387.752 249.719 380.105 249.224C371.747 248.677 363.377 248.462 355.013 248.019C347.626 247.628 340.213 247.433 332.884 246.28C332.643 246.241 332.389 246.28 332.181 246.28C331.842 246.69 332.07 247.022 332.181 247.335C332.415 248.006 332.715 248.664 332.95 249.335C333.868 251.92 332.663 254.115 329.947 254.773C327.654 255.327 325.302 255.503 322.964 255.646C316.541 256.037 310.111 256.349 303.676 256.063C302.245 256.007 300.828 255.761 299.461 255.333C298.328 254.975 297.565 254.246 297.168 253.067C295.351 247.7 293.468 242.359 291.963 236.888C291.664 235.807 291.416 234.712 291.136 233.625C290.849 232.498 290.81 232.426 289.716 232.465C287.983 232.53 286.251 232.661 284.518 232.752C283.971 232.778 283.691 233.032 283.612 233.579C283.222 236.262 282.642 238.9 281.665 241.441C281.437 242.04 281.743 242.404 282.101 242.789C283.723 244.528 284.57 246.619 285 248.931C285.619 252.272 284.394 254.819 281.762 256.799C281.046 257.339 280.167 257.457 279.3 257.548C274.154 258.101 268.995 257.997 263.842 257.756C261.243 257.633 258.644 257.47 256.071 257.007C253.225 256.499 251.283 254.936 250.13 252.272C248.912 249.445 248.228 246.462 247.368 243.525C246.626 240.978 245.942 238.412 245.219 235.859C244.893 234.712 244.861 234.68 243.753 235.051C237.278 237.226 230.706 237.064 224.074 236.002C220.752 235.474 217.482 234.634 214.134 234.217C210.753 233.794 207.398 233.989 204.05 234.38C199.425 234.921 194.918 236.021 190.508 237.526C189.042 238.028 189.035 238.034 189.035 239.578C189.035 242.235 188.97 244.893 189.081 247.543C189.211 250.54 188.084 253.015 186.241 255.249C185.323 256.349 184.245 257.304 183.042 258.082C181.258 259.248 179.382 259.984 177.16 259.899C174.359 259.788 171.545 259.99 168.738 259.945C145.659 259.567 122.579 259.86 99.5 259.476C86.427 259.261 73.353 259.215 60.28 259.078C58.188 259.059 56.084 259.065 54.006 258.883C51.636 258.681 49.576 257.606 47.974 255.874C47.049 254.877 46.04 254.35 44.737 254.063C41.1884 253.304 37.7407 252.132 34.464 250.572C33.4503 250.088 32.4571 249.562 31.487 248.996C26.322 246 22.843 241.642 20.876 236.002C18.896 230.316 18.459 224.539 19.632 218.651C21.267 210.444 24.478 202.96 30.054 196.629C32.08 194.33 34.275 192.181 36.959 190.611C37.728 190.162 38.106 189.575 38.151 188.644C38.242 186.762 38.509 184.886 38.607 182.997C38.698 181.388 39.454 180.431 41.011 180.085C41.161 180.053 41.304 179.988 41.447 179.949C42.455 179.688 42.963 179.065 42.972 178.079C43.024 170.622 43.082 163.171 43.128 155.713C43.291 130.897 43.388 106.075 43.63 81.2601C43.838 59.3031 44.086 37.3401 44.196 15.3841C44.203 13.6451 44.196 11.8941 44.698 10.2191C46.059 5.7251 48.854 2.4421 53.147 0.475096C54.013 0.0780964 54.931 0.0720964 55.85 0.0850964C73.236 0.287096 90.596 -0.0449036 107.962 9.63793e-05C125.433 0.0520964 142.897 0.0390964 160.367 0.0330964C166.295 0.0330964 172.223 0.0720964 178.137 0.384096C183.779 0.690096 187.238 4.2661 188.078 8.9491C188.319 10.3101 188.404 11.6791 188.404 13.0661C188.41 33.1331 188.384 53.2061 188.449 73.2741C188.618 125.465 188.827 177.656 189.016 229.853C189.022 232.087 188.905 232.068 191.061 231.417C197.497 229.469 204.057 228.29 210.799 228.323C214.759 228.342 218.596 229.209 222.452 229.964C226.419 230.746 230.412 231.241 234.471 231.071C237.194 230.961 239.845 230.453 242.392 229.482C243.467 229.078 243.486 229.013 243.232 227.893C242.698 225.555 242.144 223.223 241.597 220.885C241.304 219.628 241.297 219.66 240.014 219.549C232.757 218.918 225.664 217.563 218.935 214.645C213.352 212.228 208.473 208.907 204.825 203.95C201.581 199.534 199.445 194.708 199.204 189.152C199.158 188.051 199.119 188.032 198.031 187.914C196.924 187.804 196.253 187.185 195.94 186.169C195.724 185.433 195.595 184.675 195.556 183.909C195.237 178.216 196.246 172.725 198.018 167.352C200.272 160.494 203.425 154.13 208.402 148.789C210.747 146.275 213.313 144.028 216.375 142.406C217.189 141.976 218.016 141.572 218.915 141.351C220.882 140.863 222.218 141.546 222.921 143.442C223.455 144.881 223.703 146.399 223.892 147.916C225.201 158.474 227.279 168.863 230.745 178.946C231.756 181.894 232.968 184.768 234.373 187.55C235.434 189.649 236.725 191.624 238.223 193.438C238.522 193.802 238.737 194.486 239.324 194.297C239.799 194.141 239.636 193.503 239.708 193.06C239.969 191.399 240.17 189.725 240.483 188.071C241.838 180.978 244.124 174.152 246.58 167.385C248.652 161.679 250.827 155.999 252.039 150.02C252.397 148.275 252.69 146.516 253.055 144.771C253.198 144.08 253.081 143.598 252.423 143.24C251.173 142.569 250.495 141.429 250.137 140.114C249.082 136.199 248.508 132.226 248.88 128.155C248.984 127.028 248.925 126.866 247.72 126.631C246.118 126.312 244.496 126.11 242.893 125.817C240.684 125.411 238.519 124.789 236.431 123.961C235.431 123.569 234.499 123.022 233.669 122.339C231.305 120.359 230.38 117.871 230.986 114.829C231.533 112.067 232.595 109.456 233.389 106.766C234.692 102.35 235.5 97.8291 236.008 93.2631C236.555 88.3981 237.096 83.5391 238.06 78.7261C238.522 76.4201 238.933 74.1151 239.669 71.8801C239.955 71.0141 239.871 70.1871 239.669 69.3341C239.07 66.7021 238.464 64.0711 238.06 61.3941C237.715 59.1011 238.588 57.4141 240.288 56.0601C240.959 55.5201 241.753 55.1351 242.489 54.6791C242.802 54.4831 243.147 54.2491 242.828 53.8451C242.164 52.9921 242.626 52.3151 243.115 51.6371C244.014 50.3801 245.206 49.4101 246.307 48.3421C246.782 47.8791 247.297 47.4491 247.818 47.0451C248.359 46.6221 248.723 46.2771 248.052 45.6051C247.479 45.0391 247.531 44.3351 248.007 43.6521C251.296 38.8971 254.775 34.3051 258.905 30.2421C260.224 28.9551 261.756 27.906 263.432 27.1411C264.813 26.5091 266.279 26.4181 267.907 26.2941C267.067 25.1481 265.66 25.2391 264.631 24.3921C269.008 22.6661 273.379 22.0471 278.062 22.4971C277.795 21.7221 277.216 21.5391 276.864 21.1551C276.623 20.8951 276.336 20.6731 276.108 20.3991C275.698 19.9111 275.411 19.3841 275.75 18.7261C276.056 18.1391 276.59 18.0361 277.177 18.0361C279.352 18.0421 281.417 18.5631 283.456 19.2731C283.964 19.4491 284.446 19.7741 285.078 19.7161C284.961 19.0711 284.472 18.8301 284.121 18.4911C283.795 18.1721 283.424 17.8911 283.078 17.5861C282.668 17.2151 282.401 16.7521 282.694 16.2311C282.981 15.7161 283.476 15.7031 284.036 15.8531C288.029 16.9281 292.048 17.9181 295.722 19.9111C295.852 19.9831 296.009 19.9961 296.152 20.0351C296.725 19.7751 296.126 19.1291 296.569 18.8431C296.66 18.8431 296.777 18.7911 296.849 18.8301C300.796 20.9011 304.47 23.3761 307.819 26.3271C310.437 28.6321 312.782 31.1791 314.736 34.0771C315.511 35.2187 316.146 36.45 316.625 37.7441C317.713 40.6941 317.335 43.4561 315.583 46.0491C314.691 47.3711 313.531 48.4521 312.411 49.5721C311.655 50.3221 311.655 50.4451 312.541 50.8621C314.99 52.0081 317.407 53.2201 319.915 54.2551C324.768 56.2491 329.745 56.3331 334.813 55.3821C338.48 54.6981 342.082 53.7221 345.645 52.6471C348.994 51.6371 351.41 52.6601 353.378 55.3371C354.075 56.2871 354.739 57.2521 355.286 58.2941C358.25 63.9671 360.113 69.9851 360.823 76.3491C361.507 82.4641 360.335 88.2551 357.423 93.6671C351.554 104.571 343.672 113.65 333.139 120.313C332.924 120.45 332.709 120.587 332.487 120.724C332.077 120.984 331.94 121.29 332.266 121.733C333.145 122.951 333.314 124.377 333.353 125.817C333.425 128.311 333.764 130.8 333.36 133.307C333.041 135.294 332.656 137.235 331.269 138.791C330.767 139.351 331.067 139.833 331.282 140.335C332.305 142.732 333.125 145.207 333.894 147.688C334.685 150.222 335.423 152.771 336.109 155.335C336.363 156.306 336.806 156.853 337.829 156.957C338.487 157.022 339.131 157.211 339.783 157.348C340.962 157.589 340.955 157.589 341.333 156.384C342.265 153.407 343.782 150.782 346.023 148.594C346.72 147.91 347.495 147.33 348.375 146.9C349.437 146.379 350.531 146.223 351.599 146.855C352.146 147.18 352.615 147.174 353.176 146.92C353.781 146.646 354.459 146.627 355.123 146.549C357.117 146.314 358.726 147.011 360.061 148.451C362.373 150.945 363.833 153.876 364.582 157.178C364.946 158.781 365.044 160.415 365.018 162.05C365.005 162.897 365.246 163.47 365.969 163.972C368.386 165.646 370.353 167.775 372.118 170.114C377.154 176.777 380.131 184.3 381.42 192.513C382.814 201.377 382.958 210.301 382.463 219.243C382.404 220.311 382.371 221.386 382.293 222.454C382.261 222.962 382.476 223.223 382.945 223.321C383.244 223.386 383.544 223.431 383.85 223.49C386.247 223.978 387.882 225.366 388.736 227.658C389.276 229.104 389.563 230.609 389.674 232.14C389.732 232.915 389.882 233.423 390.762 233.716C391.856 234.081 392.136 235.038 391.83 236.406C391.55 237.63 391.074 238.047 389.843 238.086C388.768 238.119 387.7 238.112 386.625 238.119C386.006 238.119 385.681 238.405 385.694 239.05C385.707 239.61 385.7 240.177 385.674 240.737C385.662 241.092 385.609 241.443 385.518 241.786C385.355 242.326 384.99 242.658 384.384 242.613C383.791 242.567 383.44 242.203 383.388 241.629C383.322 240.867 383.349 240.099 383.303 239.337C383.251 238.295 383.147 238.151 382.156 238.132C380.424 238.099 378.685 238.138 376.945 238.132C376.19 238.132 375.812 238.431 375.851 239.233C375.883 239.844 375.857 240.457 375.773 241.063C375.675 241.721 375.323 242.268 374.581 242.229C373.858 242.19 373.545 241.642 373.506 240.959C373.48 240.503 373.486 240.04 373.467 239.584C373.421 238.249 373.363 238.19 372.079 238.145C371.311 238.119 370.542 238.164 369.78 238.119C368.503 238.034 368.054 237.559 367.982 236.302C367.884 234.654 368.106 234.282 369.812 233.501C370.294 233.279 370.294 232.876 370.366 232.498C370.562 231.443 370.516 230.355 370.842 229.319C371.07 228.59 371.239 227.834 371.532 227.131C372.346 225.157 373.825 223.933 375.91 223.425C377.746 222.975 377.714 222.956 377.87 221.047C378.222 216.716 378.216 212.372 378.098 208.034C377.955 202.823 377.616 197.632 376.672 192.493C375.382 185.465 372.874 178.946 368.594 173.168C367.409 171.573 366.119 170.075 364.517 168.648L364.543 168.596V168.596ZM304.594 27.8571C304.418 27.7591 304.177 27.7141 304.079 27.5641C303.128 26.1381 301.689 25.2061 300.51 24.0141C300.321 23.8191 300.132 23.5061 299.669 23.7601C299.995 25.2131 300.191 26.7041 300.914 28.0791C302.868 31.7911 303.22 35.7391 302.49 39.8221C302.144 41.7851 301.452 43.6708 300.445 45.3911C300.295 45.6451 300.054 45.9451 300.36 46.2051C300.686 46.4851 301.031 46.3351 301.311 46.0551C301.923 45.4371 302.555 44.8501 303.128 44.1991C306.639 40.1991 307.538 35.7121 305.643 30.7041C305.48 30.2801 305.226 29.8761 305.239 29.4011C308.744 35.6141 307.955 41.4771 303.617 47.1111C305.701 47.9381 307.636 48.6931 309.558 49.4681C310.046 49.6641 310.32 49.4161 310.58 49.0641C311.668 47.5861 312.73 46.0881 313.479 44.4011C314.163 42.8771 314.476 41.2811 314.085 39.6331C313.766 38.2851 313.173 37.0411 312.411 35.8821C310.483 32.9641 308.112 30.4561 305.408 28.2551C305.174 28.0651 304.939 27.8571 304.607 27.8571H304.594V27.8571ZM46.574 118.398H46.346C46.346 119.779 46.352 121.153 46.346 122.534L45.545 222.715C45.545 223.021 45.532 223.327 45.545 223.633C45.59 224.74 45.655 224.799 46.808 224.864C46.958 224.871 47.114 224.871 47.271 224.871C53.498 224.916 59.732 224.955 65.96 225.001C66.637 225.001 67.21 224.923 67.79 224.441C68.917 223.516 69.816 223.549 70.95 224.519C71.51 225.001 72.07 225.157 72.754 225.157C75.411 225.17 78.063 225.209 80.72 225.209C82.114 225.209 82.173 225.157 82.186 223.731C82.264 215.661 82.336 207.598 82.414 199.528C82.421 198.798 82.323 198.153 81.821 197.541C81.046 196.597 81.052 195.528 81.834 194.597C82.342 193.991 82.44 193.347 82.44 192.617C82.425 191.136 82.436 189.655 82.473 188.175C82.505 187.022 83 186.514 84.147 186.39C84.603 186.338 85.065 186.364 85.521 186.371C90.426 186.436 95.325 186.495 100.23 186.573C101.07 186.586 101.761 186.482 102.418 185.791C103.409 184.762 104.666 184.769 105.669 185.804C106.281 186.429 106.92 186.573 107.708 186.573C117.766 186.599 127.83 186.631 137.887 186.67C138.63 186.67 139.216 186.521 139.796 185.967C141.021 184.801 142.356 184.827 143.607 185.993C144.095 186.449 144.551 186.683 145.216 186.683C153.54 186.729 161.865 186.788 170.184 186.859C170.887 186.859 171.395 186.683 171.897 186.104C173.206 184.586 174.913 184.599 176.216 186.143C176.717 186.736 177.245 186.885 177.936 186.879C179.877 186.866 181.818 186.879 183.759 186.885C186.293 186.885 186.078 186.996 186.065 184.554C185.987 165.405 185.902 146.256 185.824 127.107C185.726 100.402 185.772 73.6971 185.531 46.9931C185.479 41.1181 185.401 35.2501 185.511 29.3751C185.616 23.9101 185.642 18.4521 185.694 12.9941C185.707 11.4831 185.661 11.4761 184.143 11.4571C181.03 11.4241 177.916 11.3791 174.802 11.3591C156.726 11.2491 138.649 11.0991 120.567 11.0531C96.921 10.9941 73.281 10.7601 49.635 10.5641C46.874 10.5381 46.789 10.6301 46.75 13.4561V13.6131C46.795 25.6101 46.6 37.6141 46.574 49.6121C46.522 72.5381 46.561 95.4651 46.561 118.392L46.574 118.398V118.398ZM333.073 80.2761C333.288 80.3611 333.386 80.4321 333.471 80.4261C333.979 80.3861 334.487 80.3481 334.995 80.2831C338.415 79.8461 341.548 78.7651 344.108 76.3421C345.489 75.0321 346.316 73.4371 346.701 71.5811C347.189 69.2361 346.916 66.9041 346.642 64.5731C346.499 63.3811 346.453 63.3611 345.183 63.3611C344.877 63.3611 344.571 63.3741 344.264 63.3741C341.353 63.3611 338.832 62.4821 337.04 60.0521C336.526 59.3551 335.946 59.3291 335.171 59.4661C331.582 60.1171 327.973 60.3261 324.364 59.6231C321.531 59.0691 318.918 57.9161 316.345 56.6531C313.87 55.4341 311.414 54.1901 308.913 53.0251C304.868 51.1421 300.679 49.7151 296.25 49.0251C291.586 48.3021 287.065 48.5951 282.831 50.8361C278.277 53.2461 274.206 56.2941 270.806 60.1961C269.164 62.0781 268.832 62.1361 266.663 60.9451C266.617 60.9191 266.572 60.8991 266.526 60.8731C264.22 59.3161 261.803 59.3681 259.387 60.5151C255.745 62.2411 252.059 63.8751 248.541 65.8751C246.737 66.9051 245.434 68.2921 244.515 70.1351C243.147 72.8711 242.587 75.8271 242.001 78.7781C241.024 83.6951 240.887 88.7181 240.177 93.6681C239.311 99.6861 238.314 105.671 236.236 111.423C235.809 112.626 235.444 113.85 235.142 115.09C234.575 117.408 235.109 118.607 237.181 119.812C237.708 120.118 238.275 120.372 238.842 120.593C240.516 121.238 242.242 121.714 244.007 121.981C249.759 122.853 255.517 122.808 261.25 121.876C264.728 121.31 268.116 120.385 271.294 118.737C273.21 117.747 273.972 116.275 274.076 114.204C274.252 110.556 273.789 106.967 273.249 103.379C272.128 96.0121 270.943 88.6591 269.855 81.2861C269.412 78.2631 269.119 75.2161 269.184 72.1351C269.366 72.5381 269.49 72.9621 269.555 73.3851C270.298 78.1791 271.314 82.9141 272.513 87.6161C274.349 94.8401 276.102 102.083 277.092 109.482C277.418 111.905 277.678 114.347 277.326 116.809C277.079 118.509 276.382 119.883 274.929 120.893C273.281 122.039 271.575 123.036 269.666 123.674C266.656 124.684 263.595 125.446 260.449 125.875C259.784 125.967 259.087 125.993 258.188 126.41C259.673 126.95 260.931 127.054 262.188 127.191C265.744 127.582 269.327 127.543 272.897 127.68C284.036 128.097 295.155 127.484 306.268 126.82C307.636 126.735 309.017 126.657 310.366 126.325C315.59 125.048 320.658 123.342 325.458 120.886C337.171 114.888 346.069 105.99 352.557 94.6061C354.081 91.9281 355.234 89.0951 356.061 86.1381C356.851 83.3273 357.11 80.3937 356.823 77.4881C356.752 76.7391 356.524 76.2381 355.794 75.9781C354.824 75.6261 354.009 74.9881 353.13 74.4791C351.124 73.3191 350.199 73.4501 348.505 75.0071C344.492 78.6931 339.887 81.0051 334.311 80.8751C333.21 80.8491 332.363 81.0051 331.588 81.8451C331.028 82.4511 330.214 82.7451 329.341 82.5101C328.93 82.4001 328.696 82.0801 329.061 81.7161C330.305 80.4911 331.36 79.1161 332.324 77.6711C332.494 77.4171 332.735 77.1691 333.08 77.2611C333.516 77.3781 333.581 77.7751 333.529 78.1211C333.419 78.8171 333.236 79.5011 333.067 80.2761H333.073V80.2761ZM186.273 211.2H186.091V190.827C186.091 189.27 186.065 189.251 184.586 189.238C182.235 189.218 179.89 189.238 177.538 189.212C176.878 189.191 176.233 189.403 175.714 189.811C174.542 190.69 173.532 190.684 172.353 189.772C171.773 189.322 171.2 189.205 170.523 189.199C162.25 189.159 153.977 189.107 145.704 189.049C144.857 189.049 144.167 189.179 143.496 189.824C142.473 190.807 140.981 190.885 140.037 189.922C139.203 189.075 138.304 189.003 137.262 189.003C127.256 189.023 117.244 189.029 107.239 189.029C106.522 189.029 105.832 189.062 105.18 189.459C104.483 189.889 103.689 189.941 102.992 189.492C102.204 188.977 101.357 188.99 100.49 188.99C95.944 188.99 91.403 188.977 86.857 188.977H86.244C84.909 189.016 84.844 189.068 84.804 190.351C84.778 191.113 84.804 191.882 84.778 192.651C84.746 193.387 84.915 193.999 85.41 194.611C86.25 195.666 86.218 196.578 85.326 197.666C84.896 198.193 84.766 198.708 84.759 199.333C84.687 208.113 84.609 216.893 84.537 225.679C84.524 227.366 84.29 227.607 82.583 227.588C79.313 227.555 76.05 227.536 72.78 227.503C72.004 227.497 71.301 227.542 70.624 228.057C69.764 228.715 68.761 228.689 67.934 228.005C67.269 227.458 66.552 227.399 65.79 227.386C59.51 227.321 53.231 227.256 46.952 227.21C45.577 227.197 45.552 227.23 45.538 228.552C45.4514 234.627 45.3777 240.701 45.317 246.776C45.297 248.411 45.356 248.456 46.939 248.802C53.804 250.287 60.749 251.01 67.77 250.886C74.063 250.769 80.27 249.772 86.46 248.678C94.406 247.277 102.373 246.046 110.431 245.525C120.137 244.9 129.816 245.31 139.49 246.209C143.958 246.626 148.44 247.049 152.935 246.385C156.589 245.851 160.1 244.985 163.422 243.226C170.28 239.595 177.357 236.394 184.612 233.639C185.728 233.213 186.286 232.416 186.286 231.248V211.18L186.273 211.199V211.2ZM283.88 181.129C283.267 181.708 283.098 182.529 282.824 183.271C281.046 188.059 278.968 192.722 276.786 197.334C275.717 199.594 274.643 201.854 273.574 204.114C273.021 205.286 273.014 205.299 273.9 206.224C275.11 207.47 276.227 208.802 277.242 210.21C281.078 215.571 283.261 221.53 283.704 228.115C283.795 229.483 283.801 229.457 285.234 229.633C286.72 229.809 288.192 229.659 289.67 229.581C300.178 229.034 309.59 225.575 317.935 219.14C326.155 212.803 331.692 204.726 334.239 194.637C335.282 190.514 335.796 186.326 336.037 182.08C336.396 175.723 335.809 169.437 334.884 163.165C334.682 161.797 334.63 161.771 333.282 161.602C327.204 160.853 321.263 161.498 315.453 163.393C313.655 163.979 311.896 164.67 310.255 165.614C309.43 166.087 309.154 166.758 309.427 167.627C309.597 168.161 309.779 168.695 309.91 169.242C310.528 171.756 310.828 174.303 309.91 176.784C308.987 179.29 307.448 181.524 305.434 183.278C303.467 185.004 301.168 185.623 298.595 184.743C297.872 184.496 297.116 184.314 296.426 183.994C295.579 183.61 294.81 183.525 293.97 184.014C293.488 184.294 292.901 184.32 292.335 184.34C289.703 184.457 287.462 183.434 285.332 182.04C284.87 181.734 284.505 181.265 283.88 181.122V181.129V181.129ZM297.416 172.056C297.52 174.225 297.578 176.361 297.207 178.491C296.842 180.608 296.875 180.614 298.959 181.337C299.155 181.402 299.357 181.441 299.546 181.513C300.816 181.982 301.969 181.728 302.972 180.862C303.663 180.262 304.294 179.591 304.959 178.953C307.102 176.901 307.636 174.361 307.258 171.522C306.705 167.412 304.913 163.836 302.497 160.553C300.575 157.941 298.21 155.772 295.624 153.831C291.67 150.868 287.13 149.227 282.44 147.911C280.466 147.357 278.466 147.051 276.401 147.064C269.907 147.097 263.439 146.81 257.126 145.039C256.149 144.765 256.006 144.902 255.843 146.12C255.061 151.864 253.531 157.407 251.492 162.82C249.57 167.933 247.714 173.065 246.157 178.302C244.476 183.942 243.304 189.668 242.874 195.556C242.489 200.89 242.874 206.159 243.584 211.428C244.261 216.444 245.31 221.381 246.58 226.272C246.873 227.392 246.991 227.438 248.02 226.819C249.331 226.027 250.579 225.135 251.752 224.149C258.527 218.528 263.693 211.611 268.031 204.023C268.083 203.932 268.116 203.834 268.174 203.756C268.643 203.098 268.396 202.642 267.803 202.225C266.839 201.554 265.875 200.89 264.846 200.317C263.216 199.417 261.556 198.572 259.869 197.783C261.159 197.835 262.246 198.591 263.465 198.78C263.855 198.187 263.621 197.614 263.647 197.073C263.68 196.513 263.627 195.946 263.68 195.393C264.39 188.091 266.324 181.168 270.076 174.811C270.838 173.521 270.845 173.495 269.705 172.642C267.314 170.844 265.614 168.532 264.487 165.783C263.289 162.865 262.846 159.798 262.728 156.671C262.696 155.746 262.696 154.815 262.911 153.897C263.197 155.987 263.627 158.026 264.096 160.058C265.087 164.311 267.236 167.796 271.008 170.128C274.773 172.453 278.818 174.107 283.196 174.889C283.606 174.961 283.977 174.941 284.394 174.837C285.488 174.544 285.944 174.824 285.814 175.872C285.625 177.318 286.394 178.198 287.338 179.005C288.765 180.223 290.543 180.503 292.322 180.731C292.94 180.809 293.377 180.425 293.774 180.015C294.81 178.927 295.566 177.67 296.119 176.276C296.66 174.902 296.979 173.463 297.409 172.062L297.416 172.056V172.056ZM280.401 144.029C285.664 143.768 291.533 143.664 297.39 143.202C305.193 142.59 312.893 141.443 320.508 139.659C322.788 139.124 325.061 138.545 327.172 137.451C328.885 136.558 329.706 135.197 329.836 133.302C329.999 131.055 329.882 128.814 329.725 126.573C329.667 125.714 329.536 124.847 329.23 124.027C328.839 122.985 328.663 122.9 327.673 123.323C327.25 123.506 326.846 123.721 326.429 123.909C320.358 126.671 314.059 128.703 307.454 129.648C302.855 130.306 298.204 130.449 293.566 130.696C283.41 131.23 273.255 131.028 263.119 130.371C259.967 130.162 256.82 129.706 253.954 128.189C253.728 128.075 253.483 128.002 253.231 127.974C252.58 127.889 252.111 128.091 252.117 128.847C252.15 132.058 252.182 135.269 252.964 138.421C253.264 139.639 253.915 140.362 255.088 140.779C258.514 141.99 261.992 142.967 265.595 143.449C270.317 144.081 275.066 143.996 280.408 144.029H280.401V144.029ZM209.196 170.974C208.265 171.697 207.685 172.538 207.177 173.404C205.659 176.003 204.174 178.628 202.962 181.383C202.428 182.594 201.927 183.825 201.809 185.173C201.445 189.277 202.076 193.217 203.842 196.943C206.363 202.264 210.186 206.394 215.359 209.259C220.355 212.034 225.709 213.845 231.253 215.095C233.891 215.688 236.588 215.981 239.298 216.085C240.587 216.131 240.62 216.053 240.451 214.822C239.76 209.715 238.959 204.615 239.213 199.437C239.232 198.968 239.161 198.558 238.763 198.206C235.383 195.21 232.992 191.485 230.947 187.518C229.138 184.028 227.571 180.418 226.257 176.713C226.113 176.309 226.055 175.853 225.651 175.573C225.533 175.703 225.436 175.762 225.41 175.846C225.305 176.237 225.214 176.634 225.13 177.032C224.628 179.39 223.996 181.702 222.413 183.61C220.505 185.909 218.055 186.189 215.652 184.418C214.219 183.363 213.228 181.943 212.408 180.399C211.255 178.224 210.532 175.885 209.926 173.508C209.73 172.733 209.783 171.88 209.196 170.974V170.974ZM267.314 245.923C268.344 245.519 268.995 245.818 269.601 246.19C270.487 246.724 271.197 247.46 271.776 248.313C272.63 249.557 273.099 250.944 273.346 252.423C273.568 253.752 273.607 253.791 274.897 253.745C276.734 253.686 278.564 253.55 280.401 253.478C281.059 253.452 281.437 253.113 281.665 252.547C281.854 252.065 281.932 251.557 281.899 251.042C281.587 246.47 279.066 243.578 275.405 242.503C272.708 241.715 269.972 241.643 267.217 242.132C265.034 242.516 263.022 243.382 261.022 244.307C260.611 244.496 260.214 244.835 259.484 244.718C261.777 242.985 263.947 241.455 266.441 240.491C270.063 239.084 273.776 238.784 277.548 239.859C278.746 240.197 278.766 240.211 279.189 239.012C280.381 235.612 281.059 232.095 281 228.5C280.877 220.736 278.336 213.799 273.496 207.716C273.366 207.553 273.249 207.39 273.105 207.24C272.539 206.648 272.389 206.654 271.946 207.286C271.861 207.41 271.789 207.546 271.718 207.683C269.347 211.936 266.454 215.831 263.406 219.609C259.4 224.566 254.905 228.988 249.316 232.186C248.235 232.805 248.196 232.883 248.567 234.16C249.731 238.126 250.921 242.083 252.137 246.033C252.573 247.447 253.218 248.782 253.837 250.13C254.599 251.791 255.876 252.605 257.628 252.833C261.836 253.374 266.064 253.667 270.304 253.739C271.731 253.765 272.004 253.439 271.77 251.987C271.334 249.336 270.154 247.18 267.308 245.923H267.314V245.923ZM48.164 8.5581C49.57 8.8381 50.84 8.6561 52.098 8.6691C74.668 8.9361 97.24 8.8061 119.811 9.0861C139.522 9.3271 159.234 9.3791 178.945 9.5091C180.886 9.5221 182.828 9.5421 184.769 9.5221C185.804 9.5091 185.922 9.3071 185.629 8.3041C184.697 5.1001 181.238 2.5271 177.903 2.6181C161.768 3.0611 145.632 2.8981 129.491 2.8271C105.337 2.7161 81.183 2.5401 57.029 2.4031C53.185 2.3831 49.707 4.7811 48.157 8.5521L48.163 8.5581H48.164ZM330.852 211.121C330.207 211.382 329.992 211.942 329.64 212.365C322.423 221.184 313.473 227.417 302.425 230.485C300.112 231.13 297.761 231.586 295.377 231.912C294.152 232.074 294.048 232.205 294.289 233.201C295.67 238.803 297.214 244.352 299.435 249.699C299.95 250.937 300.731 251.484 302.041 251.66C304.789 252.031 307.545 251.979 310.3 252.005C313.004 252.031 315.714 251.959 318.417 251.901C319.374 251.881 319.55 251.705 319.348 250.982C318.788 249.002 317.844 247.302 315.811 246.443C315.596 246.352 315.251 246.384 315.127 246.006C316.065 245.935 316.814 246.228 317.531 246.645C319.172 247.609 320.404 248.944 321.029 250.755C321.29 251.51 321.687 251.823 322.488 251.738C324.11 251.575 325.752 251.66 327.374 251.386C329.041 251.1 329.08 251.08 328.357 249.471C328.253 249.237 328.149 249.002 328.025 248.781C326.038 245.114 322.872 242.88 318.977 241.701C314.619 240.385 310.307 240.607 306.157 242.645C305.754 242.841 305.363 243.219 304.783 242.991C306.32 241.173 308.685 239.734 311.29 239.07C315.837 237.91 320.195 238.36 324.345 240.607C324.761 240.835 325.126 241.265 325.667 241.154C325.888 240.646 325.576 240.301 325.452 239.929C325.003 238.572 324.534 237.222 324.045 235.878C323.348 233.957 323.478 232.172 324.41 230.283C327.198 224.636 329.145 218.664 330.689 212.567C330.8 212.144 331.093 211.72 330.833 211.134L330.852 211.121V211.121ZM68.682 256.753H72.767C104.627 256.59 136.48 257.177 168.34 257.066C171.402 257.053 174.47 257.033 177.532 257.02C178.307 257.02 179.049 256.936 179.772 256.61C181.968 255.607 183.753 254.135 185.023 252.077C185.7 250.982 186.28 249.81 186.306 248.514C186.365 245.759 186.332 242.997 186.293 240.242C186.28 239.252 186.13 239.193 185.166 239.5C184.925 239.578 184.691 239.675 184.45 239.773C177.994 242.339 171.702 245.27 165.539 248.468C163.761 249.393 161.931 250.129 159.996 250.637C155.469 251.823 150.863 252.272 146.193 252.168C140.525 252.038 134.891 251.36 129.23 251.054C119.205 250.514 109.226 250.95 99.285 252.259C94.478 252.891 89.697 253.712 84.922 254.526C79.535 255.444 74.115 256.043 68.682 256.76V256.753V256.753ZM37.656 196.499C37.278 196.44 37.07 196.688 36.848 196.89C34.516 198.967 32.354 201.202 30.699 203.878C28.159 207.995 26.263 212.385 25.169 217.094C23.671 223.542 23.983 229.853 26.817 235.937C28.165 238.829 30.113 241.187 32.718 243.03C35.07 244.691 37.643 245.928 40.34 246.892C42.796 247.765 42.828 248.091 42.835 245.225L42.913 208.477C42.913 206.119 42.893 206.373 40.855 206.406C38.985 206.438 38.165 205.637 38.021 203.748C37.8832 201.865 37.8399 199.976 37.891 198.088C37.904 197.554 38.08 196.961 37.643 196.499H37.656V196.499ZM198.65 182.697C199.725 181.128 200.481 179.766 201.581 178.718C202.5 177.845 203.08 176.822 203.575 175.689C204.48 173.624 205.542 171.651 207.066 169.957C207.613 169.345 208.2 168.765 208.942 168.401C210.037 167.86 210.851 168.309 211.033 169.521C211.066 169.723 211.053 169.931 211.072 170.133C211.476 173.729 212.544 177.109 214.31 180.268C214.961 181.434 215.756 182.495 216.863 183.283C218.557 184.482 220.146 184.247 221.41 182.613C222.107 181.714 222.517 180.665 222.837 179.584C223.501 177.324 223.84 175.005 224.172 172.68C224.328 171.586 224.309 170.563 223.99 169.514C222.25 163.731 221.078 157.836 220.596 151.811C220.439 149.831 220.166 147.858 219.866 145.891C219.703 144.842 219.501 144.771 218.55 145.259C216.902 146.093 215.424 147.187 214.03 148.398C205.027 156.234 200.09 166.212 198.533 177.943C198.344 179.376 198.142 180.861 198.631 182.697H198.65V182.697ZM356.856 161.164C356.563 161.08 356.53 160.936 356.511 160.787C356.094 158.136 355.026 155.706 353.899 153.303C353.505 152.47 352.967 151.714 352.309 151.069C351.137 149.909 350.544 149.721 349.228 150.626C346.114 152.769 344.219 155.674 344.245 159.582C344.251 160.643 344.375 161.712 344.551 162.78C344.753 164.03 343.906 165.066 342.89 164.734C341.672 164.33 340.714 164.792 339.679 165.157C338.402 165.6 338.363 165.606 338.558 166.981C339.216 171.534 339.6 176.106 339.568 180.711C339.561 181.929 339.672 182.007 340.89 182.02C344.631 182.092 348.336 181.287 351.71 179.669C354.179 178.49 356.12 176.777 357.605 174.484C360.654 169.775 361.605 164.59 361.005 159.106C360.693 156.195 359.546 153.589 357.41 151.505C357.083 151.184 356.729 150.89 356.354 150.626C356.003 150.385 355.573 150.287 355.221 150.606C354.869 150.926 355.156 151.271 355.299 151.577C355.99 153.068 356.504 154.612 356.778 156.234C357.058 157.869 357.162 159.51 356.856 161.171V161.164V161.164ZM253.85 41.7501C254.469 41.8741 254.996 41.5021 255.563 41.3401C258.859 40.3701 262.142 40.1221 265.484 41.1901C270.278 42.7201 274.59 45.0261 278.049 48.7451C278.584 49.3191 279.001 49.3381 279.613 48.9281C281.39 47.7279 283.344 46.8135 285.404 46.2181C286.114 46.0161 286.466 45.6181 286.628 44.8631C287.423 41.1901 286.537 37.8881 284.511 34.8331C282.596 31.9611 279.952 29.9221 276.929 28.3331C276.506 28.1111 276.082 27.9551 275.613 28.0591C273.6 28.5091 271.555 28.3851 269.523 28.4561C266.135 28.5741 263.289 29.8241 260.976 32.2931C260.383 32.9251 259.758 33.5301 259.23 34.2141C257.459 36.5141 255.726 38.8451 253.974 41.1701C253.856 41.3271 253.733 41.4961 253.85 41.7501V41.7501ZM298.178 152.782C298.464 153.362 298.94 153.596 299.331 153.909C301.897 155.96 304.171 158.279 306.027 161.002C306.144 161.171 306.275 161.327 306.372 161.503C306.698 162.089 307.135 162.083 307.643 161.757C307.812 161.646 308.001 161.555 308.177 161.458C313.577 158.338 319.44 156.794 325.615 156.247C327.856 156.045 330.09 155.967 332.337 156.084C333.425 156.143 333.49 156.058 333.262 154.977C333.086 154.13 332.819 153.303 332.656 152.45C332.494 151.583 332.012 150.984 331.295 150.515C327.908 148.281 324.214 146.881 320.156 146.659C312.671 146.242 305.701 148.027 299.272 151.89C298.888 152.124 298.445 152.3 298.171 152.782H298.178V152.782ZM288.283 19.6771C289.071 21.0051 289.423 22.4571 290.309 23.6691C290.452 23.8651 290.556 24.1641 290.296 24.3591C290.12 24.4961 289.911 24.3591 289.742 24.2491C289.527 24.1061 289.325 23.9561 289.11 23.8191C286.791 22.2821 284.251 21.2461 281.567 20.5561C280.994 20.4061 280.421 20.2431 279.632 20.4061C280.401 21.3961 281.17 22.2101 281.723 23.1481C282.244 24.0281 282.928 24.5811 283.814 25.0501C289.951 28.2741 295.012 36.7411 292.276 44.3101C292.029 44.9871 292.276 45.2481 292.947 45.2931C294.015 45.3581 295.103 45.3451 296.145 45.5601C297.227 45.7881 297.839 45.4371 298.412 44.5441C300.647 41.0141 301.773 37.1711 301.233 33.0421C300.555 27.8511 298.223 23.6621 293.162 21.4481C291.996 20.9401 290.843 20.3871 289.67 19.8921C289.312 19.7421 288.967 19.4551 288.276 19.6901L288.283 19.6771V19.6771ZM272.135 174.315C271.737 174.23 271.555 174.406 271.405 174.621C271.177 174.96 270.949 175.298 270.741 175.65C268.291 179.831 266.696 184.313 265.894 189.1C265.458 191.673 265.106 194.245 265.328 196.857C265.595 200.003 265.608 200.003 268.135 201.488C268.181 201.514 268.22 201.54 268.265 201.573C268.793 201.97 269.177 201.885 269.464 201.267C269.92 200.296 270.409 199.345 270.884 198.388C274.082 191.94 276.838 185.296 279.567 178.646C279.815 178.04 279.782 177.728 279.124 177.506C276.799 176.725 274.584 175.689 272.454 174.465C272.324 174.386 272.18 174.341 272.128 174.315H272.135V174.315ZM246.997 51.3701C247.857 51.2661 248.691 51.1681 249.531 51.0641C253.733 50.5561 257.882 50.7971 261.953 51.9821C264.591 52.7511 266.917 54.1061 268.975 55.9101C269.418 56.3001 269.796 56.6851 270.382 56.0861C272.063 54.3661 273.939 52.8621 275.874 51.4421C276.512 50.9721 276.427 50.6081 275.919 50.1071C274.389 48.6021 272.89 47.0711 271.132 45.8271C268.943 44.2711 266.598 43.0661 263.927 42.6031C262.468 42.3491 260.95 42.1341 259.537 42.6491C255.068 44.2841 251.12 46.7721 247.733 50.1261C247.421 50.4321 246.978 50.6801 246.997 51.3641V51.3701V51.3701ZM242.274 66.4941C244.001 64.9111 245.89 63.7191 247.857 62.6711C251.595 60.6964 255.454 58.9625 259.413 57.4801C261.159 56.8221 262.989 56.7181 264.833 57.1081C265.1 57.1671 265.386 57.4211 265.634 57.0761C265.601 56.9721 265.601 56.8541 265.543 56.7891C261.471 52.5691 256.579 51.3571 251.016 52.9921C248.007 53.8721 245.369 55.5061 242.887 57.4411C241.747 58.3261 241.258 59.3161 241.323 60.6971C241.415 62.6321 241.936 64.5011 242.261 66.5001L242.274 66.4941V66.4941ZM286.524 147.115C286.596 147.434 286.804 147.506 286.987 147.558C290.524 148.626 293.865 150.111 296.94 152.17C297.526 152.567 297.95 152.398 298.445 152.026C300.542 150.476 302.816 149.219 305.219 148.19C309.449 146.373 313.996 145.407 318.599 145.35C322.469 145.298 326.169 146.262 329.706 147.851C330.194 148.073 330.637 148.483 331.243 148.353C331.289 148.242 331.373 148.138 331.354 148.06C330.774 145.676 329.927 143.383 329.009 141.117C328.729 140.426 328.246 140.609 327.745 140.81C326.084 141.468 324.364 141.95 322.631 142.374C311.29 145.148 299.748 146.386 288.107 146.933C287.579 146.959 287.019 146.842 286.524 147.109V147.115V147.115ZM290.087 43.4761C290.778 41.9321 290.973 40.4471 290.778 38.9101C290.237 34.6251 288.478 30.8991 285.462 27.8181C283.235 25.5451 280.675 23.8711 277.307 23.9101C275.138 23.9361 272.982 23.9751 270.884 24.5421C270.91 24.9851 271.171 25.0441 271.405 25.1281C272.688 25.6101 273.985 26.0731 275.261 26.5811C279.339 28.2151 282.941 30.5471 285.821 33.9081C287.886 36.3181 289.306 39.0411 289.631 42.2521C289.664 42.5971 289.67 42.9681 290.087 43.4631V43.4761V43.4761ZM42.939 192.793H42.979V184.221C42.979 183.811 42.979 183.407 42.959 182.997C42.926 182.385 42.529 182.385 42.092 182.521C41.33 182.762 41.376 183.446 41.33 184.039C40.88 189.634 40.646 195.242 40.724 200.856C40.731 201.416 40.822 201.97 40.887 202.53C40.939 203.012 41.193 203.234 41.695 203.247C42.639 203.266 42.926 203.038 42.932 201.983C42.952 198.922 42.939 195.861 42.939 192.799V192.793V192.793ZM356.263 74.7531C356.322 74.6091 356.4 74.5121 356.387 74.4271C355.739 70.402 354.522 66.4894 352.772 62.8071C352.524 62.2871 352.231 61.9871 351.58 62.2341C350.98 62.4621 350.42 62.6251 350.577 63.4721C350.941 65.4261 351.176 67.3991 351.873 69.2751C352.498 70.9621 353.404 72.4931 354.667 73.7891C355.104 74.2391 355.521 74.8051 356.27 74.7531H356.263ZM52.333 255.542C53.244 256.349 53.993 256.747 54.853 256.766C57.283 256.805 59.713 256.779 62.143 256.779V256.499L52.333 255.548V255.542V255.542Z" fill="black"/>
<path d="M181.01 46.7132V54.9852C181.01 55.3892 181.01 55.8122 180.912 56.1972C180.691 57.0302 180.137 57.4542 179.264 57.5322C179.01 57.5582 178.756 57.5452 178.502 57.5522C171.154 57.5842 163.807 57.6362 156.452 57.6362C122.964 57.6162 89.4691 57.5772 55.9801 57.5452H54.7551C52.5601 57.5322 52.2541 57.3042 52.2081 55.1152C52.1371 51.6952 52.1631 48.2762 52.1631 44.8572C52.1631 42.7142 52.1691 40.5712 52.1951 38.4222C52.2151 36.7022 52.6771 36.2272 54.3521 36.1682C54.7101 36.1552 55.0681 36.1682 55.4261 36.1622C85.5471 36.0252 115.668 35.8952 145.789 35.7582C156.407 35.7122 167.025 35.6412 177.649 35.5822C180.632 35.5692 181.075 36.0182 181.088 39.0602C181.095 41.6132 181.088 44.1672 181.088 46.7202H181.023L181.01 46.7132V46.7132ZM116.573 55.2002V55.2132H176.3C176.763 55.2132 177.219 55.1932 177.681 55.2132C178.411 55.2392 178.685 54.8612 178.672 54.1842C178.665 53.8262 178.678 53.4682 178.685 53.1092C178.698 48.7712 178.724 44.4342 178.717 40.0962C178.717 37.9722 179.128 37.9142 176.594 37.9262C164.751 37.9982 152.909 38.0832 141.066 38.1422C112.939 38.2722 84.8111 38.3822 56.6841 38.5002C56.2741 38.5002 55.8691 38.5202 55.4591 38.5202C54.8921 38.5202 54.6191 38.8262 54.5991 39.3732C54.5791 39.8292 54.5671 40.2912 54.5671 40.7472V52.6922C54.5671 55.6232 54.5211 55.2002 57.0091 55.2002C76.8711 55.2132 96.7251 55.2002 116.586 55.2002H116.573V55.2002ZM116.756 87.9682C137.073 87.8712 157.397 87.7862 177.714 87.6432C180.365 87.6232 181.323 88.1052 181.342 91.2252C181.375 96.5852 181.342 101.946 181.31 107.306C181.297 109.091 180.717 109.625 178.88 109.644C176.991 109.658 175.102 109.644 173.213 109.644C134.057 109.833 94.9011 109.566 55.7451 109.631C55.1331 109.631 54.5211 109.631 53.9081 109.605C53.2051 109.573 52.7561 109.208 52.6711 108.492C52.5931 107.834 52.5011 107.176 52.5011 106.512C52.4891 101.307 52.4891 96.0972 52.4951 90.8922C52.4951 88.6322 52.8731 88.2622 55.1921 88.2482L116.762 87.9362V87.9682H116.756V87.9682ZM116.86 107.293V107.306H177.199C178.965 107.306 178.971 107.293 178.984 105.528C179.004 101.138 179.03 96.7482 179.017 92.3582C179.017 89.9222 179.46 90.0072 176.607 90.0202C165.018 90.0852 153.43 90.1762 141.841 90.2282C113.557 90.3582 85.2811 90.4692 56.9961 90.5872C56.5861 90.5872 56.1821 90.6072 55.7721 90.6072C55.2181 90.6072 54.9181 90.8872 54.8921 91.4402C54.8721 91.8962 54.8601 92.3582 54.8601 92.8142V105.066C54.8601 107.684 54.9441 107.287 57.1331 107.287C77.0401 107.293 96.9531 107.287 116.86 107.287V107.293V107.293ZM116.827 83.8002H55.4071C53.2831 83.8002 52.5211 84.0082 52.5011 80.8952C52.4761 75.4849 52.4741 70.0745 52.4951 64.6642C52.4951 62.8862 52.9451 62.4362 54.7491 62.3192C55.3091 62.2802 55.8691 62.2992 56.4361 62.2932C77.4701 62.1952 98.5031 62.2022 119.544 62.0392C139.151 61.8892 158.752 61.8762 178.359 61.8042C180.456 61.7982 181.095 62.3912 181.31 64.4492C181.362 64.9572 181.368 65.4722 181.368 65.9792L181.329 80.9862C181.329 81.2922 181.342 81.5982 181.31 81.9042C181.179 83.1222 180.547 83.7222 179.329 83.7872C178.919 83.8072 178.515 83.7932 178.105 83.7932H116.84L116.827 83.8002V83.8002ZM116.879 81.4422V81.4622H177.375C178.932 81.4292 178.978 81.3962 178.991 79.7882C179.01 75.3982 179.043 71.0082 179.023 66.6182C179.01 63.9082 179.499 64.1682 176.6 64.1752C141.02 64.3052 105.434 64.4492 69.8551 64.5922C65.4651 64.6122 61.0741 64.6642 56.6831 64.7162C54.8731 64.7362 54.8661 64.7622 54.8661 66.6312V79.0322C54.8661 81.6372 54.8011 81.4292 57.3021 81.4362H116.879V81.4422V81.4422ZM116.945 113.709C137.119 113.611 157.292 113.507 177.473 113.409C177.935 113.409 178.391 113.396 178.854 113.409C180.45 113.448 181.082 113.976 181.362 115.5C181.505 116.301 181.596 117.109 181.59 117.936C181.538 122.84 181.505 127.738 181.46 132.643C181.46 133.053 181.46 133.463 181.381 133.861C181.205 134.825 180.704 135.274 179.733 135.359C179.329 135.398 178.919 135.378 178.509 135.378C162.882 135.528 147.254 135.437 131.627 135.424L56.3901 135.365H55.4721C52.8791 135.359 52.7301 135.229 52.7161 132.571C52.6961 127.211 52.7031 121.844 52.7161 116.483C52.7161 114.334 53.0491 113.995 55.2051 113.982C65.0081 113.93 74.8191 113.865 84.6221 113.839C95.3961 113.813 106.177 113.839 116.951 113.839V113.702L116.945 113.709V113.709ZM117.062 133.034V133.047H177.278C178.467 133.042 179.069 132.465 179.082 131.314C179.101 129.171 179.108 127.022 179.121 124.879C179.141 122.274 179.18 119.668 179.193 117.063C179.193 115.839 179.141 115.799 177.89 115.76C177.479 115.747 177.076 115.76 176.665 115.76C168.699 115.819 160.732 115.904 152.765 115.936C123.192 116.067 93.6181 116.184 64.0451 116.308C61.5951 116.321 59.1391 116.314 56.6901 116.34C55.0681 116.353 55.0551 116.366 55.0481 117.955C55.0421 122.248 55.0421 126.533 55.0481 130.826C55.0481 133.242 54.8661 133.04 57.3021 133.04H117.062V133.034ZM115.649 162.337H52.0591C51.4991 162.337 50.9321 162.35 50.3791 162.278C49.8121 162.207 49.4661 161.822 49.4141 161.249C49.3621 160.65 49.7271 160.292 50.2481 160.109C50.8411 159.901 51.4661 160.005 52.0721 160.005H179.102C179.61 160.005 180.131 159.972 180.633 160.031C181.479 160.129 181.987 160.63 181.909 161.269C181.812 161.998 181.316 162.298 180.626 162.317C180.066 162.33 179.506 162.337 178.939 162.337H115.649V162.337ZM65.5951 168.791C70.9101 168.824 75.0081 173.025 74.9751 178.399C74.9421 183.551 70.6431 187.719 65.3991 187.693C60.2271 187.667 56.0781 183.407 56.0911 178.138C56.1041 172.96 60.3841 168.752 65.5951 168.785V168.791V168.791ZM65.4781 171.182C61.5501 171.188 58.4101 174.373 58.4361 178.333C58.4561 182.209 61.7261 185.394 65.6401 185.348C69.4641 185.303 72.5901 182.131 72.6231 178.262C72.6561 174.419 69.3861 171.182 65.4781 171.188V171.182V171.182ZM49.5571 80.7262C49.5571 82.3022 49.5441 83.8782 49.5571 85.4542C49.6751 97.4452 49.7591 109.443 49.9291 121.434C50.0391 129.647 50.2671 137.867 50.4301 146.08C50.4501 147.2 50.4301 148.327 50.4101 149.447C50.4101 149.747 50.3721 150.059 50.2741 150.346C50.1701 150.652 49.9161 150.847 49.5701 150.815C49.2971 150.789 49.1141 150.607 49.0101 150.359C48.8211 149.923 48.8341 149.46 48.8341 149.004C48.8281 146.041 48.7631 143.084 48.8471 140.12C49.0821 132.057 49.0561 123.993 49.0951 115.93C49.1471 104.805 49.1211 93.6742 49.1401 82.5502C49.1401 81.9442 49.0301 81.3312 49.5571 80.7322V80.7262V80.7262ZM95.9831 172.543C98.6731 172.517 100.777 174.64 100.796 177.389C100.816 180.138 98.7711 182.267 96.0541 182.32C93.2731 182.378 91.0521 180.229 91.0441 177.48C91.0381 174.738 93.2011 172.563 95.9831 172.537V172.543ZM95.8781 179.936C97.3241 179.962 98.4121 178.926 98.4381 177.506C98.4641 176.158 97.3501 174.999 95.9631 174.927C94.6411 174.862 93.4231 176.034 93.3971 177.396C93.3701 178.796 94.4581 179.903 95.8721 179.929L95.8781 179.936V179.936ZM48.5081 181.727C49.0361 182.15 48.9181 182.534 48.9251 182.867C49.0551 187.66 49.1661 192.454 49.2841 197.248C49.4401 203.624 49.6091 209.994 49.7661 216.371C49.7861 217.237 49.7981 218.103 49.7721 218.97C49.7461 219.823 49.3751 220.279 48.7691 220.233C48.0531 220.181 47.8641 219.68 47.8511 219.054V218.136C47.9741 208.19 48.0911 198.238 48.2411 188.292C48.2741 186.156 48.4111 184.019 48.5081 181.727V181.727ZM105.467 177.786C105.467 175.201 107.545 173.097 110.112 173.097C112.659 173.097 114.808 175.259 114.769 177.793C114.737 180.255 112.633 182.378 110.17 182.437C107.649 182.495 105.474 180.34 105.467 177.786V177.786ZM110.112 180.02C111.395 180.014 112.431 178.933 112.379 177.669C112.327 176.49 111.284 175.513 110.066 175.507C109.478 175.507 108.913 175.736 108.491 176.146C108.069 176.556 107.823 177.114 107.806 177.702C107.78 178.959 108.835 180.033 110.105 180.02H110.112ZM49.4531 14.5252C49.8831 19.4622 49.7921 24.4052 49.9091 29.3352C50.0001 33.2052 50.1181 37.0742 50.2151 40.9432C50.2281 41.4512 50.2151 41.9592 50.2021 42.4732C50.1891 42.9882 49.9871 43.3922 49.4211 43.4172C48.7821 43.4442 48.5351 43.0142 48.4961 42.4412C48.4814 42.1872 48.4767 41.9326 48.4821 41.6782C48.6391 36.9962 48.8081 32.3122 48.9521 27.6292C49.0301 24.9852 49.0821 22.3342 49.1081 19.6832C49.1281 17.9512 49.1931 16.2312 49.4531 14.5252V14.5252ZM162.458 13.2682C162.595 13.2352 162.725 13.1832 162.862 13.1762C168.51 13.0722 174.164 12.9752 179.818 12.8832C180.176 12.8832 180.535 12.8832 180.886 12.9092C181.173 12.9352 181.329 13.1112 181.323 13.4242C181.323 13.7302 181.16 13.9122 180.873 13.9322C180.469 13.9642 180.059 13.9642 179.655 13.9522C176.398 13.8542 173.141 13.7432 169.884 13.6582C168.106 13.6132 166.321 13.6262 164.536 13.5872C163.839 13.5742 163.142 13.5022 162.452 13.4632L162.465 13.2682H162.458ZM48.9641 153.739C49.0041 153.225 49.0101 152.658 49.6871 152.6C50.2741 152.547 50.4431 152.971 50.4691 153.479C50.5021 154.208 50.0981 154.97 49.6611 154.905C48.9971 154.801 49.0491 154.215 48.9641 153.739V153.739ZM50.1301 46.3742C50.0331 46.8242 50.0521 47.5212 49.4271 47.4942C48.8801 47.4692 48.7491 46.8172 48.7231 46.2962C48.7031 45.8602 48.8151 45.4432 49.3431 45.4302C49.9281 45.4102 50.0851 45.8472 50.1301 46.3812V46.3742V46.3742ZM49.3751 48.6602C49.9091 48.7522 50.2351 49.0712 50.2091 49.6702C50.1891 50.0942 49.9221 50.3282 49.5121 50.2702C48.9451 50.1912 48.6061 49.8202 48.6121 49.2472C48.6121 48.8242 48.9191 48.6472 49.3751 48.6612V48.6602ZM183.335 12.6162C183.804 12.7402 184.078 12.9942 184.013 13.4692C183.967 13.8022 183.713 13.9842 183.381 13.9582C182.99 13.9252 182.73 13.6842 182.723 13.2882C182.71 12.8772 182.984 12.6812 183.342 12.6162H183.335ZM49.9161 221.966C50.2671 221.972 50.4761 222.161 50.4961 222.513C50.5081 222.786 50.3711 223.008 50.0781 223.041C49.7531 223.08 49.4661 222.995 49.4141 222.611C49.3681 222.246 49.5771 222.057 49.9161 221.966V221.966ZM49.7461 157.953C49.5381 157.927 49.4011 157.797 49.3941 157.582C49.3941 157.367 49.5441 157.217 49.7591 157.217C49.9741 157.217 50.1311 157.361 50.1241 157.582C50.1241 157.797 49.9811 157.927 49.7461 157.953V157.953ZM303.649 71.9852C303.669 72.8652 303.591 73.7242 303.285 74.5512C302.51 76.6742 300.62 77.1632 298.94 75.6192C297.455 74.2512 296.679 72.4792 296.419 70.5062C296.243 69.1842 296.23 67.8492 296.738 66.5792C297.604 64.3842 299.748 63.9342 301.357 65.6602C303.005 67.4262 303.584 69.6272 303.649 71.9852V71.9852ZM291.527 60.8082C293.573 58.3392 296.185 57.4412 299.285 57.9812C300.692 58.2222 302.08 58.5672 303.519 58.5812C303.669 58.5812 303.826 58.6132 303.969 58.6522C305.155 58.9262 305.773 59.5182 305.799 60.3982C305.825 61.3612 305.044 62.2022 303.871 62.4432C303.05 62.6132 302.243 62.5142 301.461 62.2342C300.931 62.0494 300.416 61.8206 299.924 61.5502C297.246 60.0522 294.485 59.5832 291.514 60.8082H291.527V60.8082ZM273.027 165.541C272.349 165.235 271.718 166.102 271.353 165.372C271.027 164.714 271.757 164.421 272.076 163.998C272.232 163.796 272.441 163.64 272.597 163.438C273.483 162.324 273.144 161.301 271.783 161.028C270.78 160.819 269.796 160.578 268.917 160.018C267.523 159.126 266.871 157.817 267.145 156.423C267.444 154.886 268.285 154.117 270.076 153.746C271.579 153.448 272.972 152.743 274.102 151.707C274.707 151.154 275.446 150.769 276.245 150.587C276.61 150.496 277.105 150.626 277.248 150.059C277.144 149.708 276.851 149.883 276.629 149.864C276.356 149.844 276.115 149.753 276.069 149.454C276.04 149.3 276.071 149.14 276.155 149.008C276.24 148.876 276.373 148.782 276.525 148.744C277.502 148.477 278.492 148.216 279.489 148.027C280.049 147.916 280.368 148.262 280.329 148.828C280.264 149.831 280.485 150.893 279.841 151.792C279.619 152.098 279.671 152.365 279.782 152.645C280.192 153.674 279.938 154.651 279.567 155.615C278.942 157.23 278.362 158.852 278.043 160.572C277.795 161.927 277.372 162.161 276.017 161.953C275.867 161.927 275.717 161.881 275.567 161.848C275.183 161.764 274.734 161.503 274.421 161.868C274.063 162.285 274.128 162.858 274.362 163.314C274.642 163.848 275.046 164.323 275.392 164.825C275.593 165.118 275.828 165.392 275.978 165.704C276.303 166.382 275.124 166.251 275.32 166.864C275.457 167.28 275.997 167.534 275.828 168.075C275.763 168.29 275.587 168.433 275.365 168.388C275.177 168.349 274.936 168.283 274.838 168.14C274.102 167.072 273.359 166.896 272.467 167.99C272.245 168.264 271.809 168.29 271.522 167.945C271.275 167.652 271.405 167.346 271.607 167.111C272.024 166.61 272.486 166.141 273.027 165.554V165.541V165.541ZM275.639 152.515C274.708 152.619 274.232 153.16 273.906 153.785C273.418 154.742 272.688 155.062 271.659 154.938C271.048 154.863 270.429 154.948 269.861 155.185C268.864 155.596 268.441 156.306 268.643 157.367C268.864 158.52 269.744 159.087 270.747 159.354C272.421 159.79 274.128 160.083 275.821 160.441C276.251 160.533 276.564 160.37 276.642 159.973C277.02 158.058 277.886 156.312 278.525 154.488C278.714 153.941 278.688 153.388 278.381 152.867C277.912 152.072 277.424 152.02 276.896 152.775C276.375 153.531 275.932 154.332 275.444 155.114C275.274 155.381 275.04 155.635 274.701 155.459C274.343 155.276 274.467 154.938 274.603 154.658C274.942 153.935 275.3 153.225 275.646 152.508L275.639 152.515V152.515ZM244.58 196.538C244.802 198.538 244.841 200.563 244.991 202.595C245.134 204.575 245.388 206.536 245.557 208.509C245.603 209.011 245.629 209.526 245.597 210.027C245.571 210.372 245.46 210.802 245.036 210.835C244.528 210.867 244.391 210.431 244.3 210.021C244.203 209.571 244.085 209.122 244.059 208.672C243.844 204.758 243.844 200.85 244.405 196.961C244.424 196.818 244.515 196.681 244.574 196.545L244.58 196.538V196.538ZM246.254 212.567C246.189 212.984 246.131 213.394 245.681 213.349C245.284 213.31 245.166 212.925 245.14 212.567C245.114 212.189 245.219 211.838 245.681 211.877C246.111 211.909 246.176 212.294 246.248 212.567H246.254ZM324.201 226.603C324.872 224.389 326.084 222.402 326.989 219.973C326.911 222.024 325.354 225.717 324.201 226.603ZM323.654 228.779C323.622 229.052 323.498 229.261 323.218 229.293C322.912 229.326 322.781 229.117 322.768 228.837C322.755 228.551 322.899 228.362 323.192 228.336C323.504 228.303 323.622 228.505 323.654 228.779V228.779Z" fill="black"/>
<path d="M131.92 45.248H145.398C145.906 45.248 146.421 45.268 146.929 45.313C147.495 45.371 147.886 45.671 147.951 46.27C148.03 46.941 147.652 47.339 147.059 47.508C146.72 47.605 146.355 47.625 146.004 47.625C136.506 47.625 127.015 47.612 117.518 47.599C117.055 47.599 116.599 47.566 116.163 47.397C115.681 47.215 115.401 46.85 115.407 46.355C115.407 45.86 115.694 45.502 116.176 45.319C116.769 45.091 117.381 45.13 117.993 45.13H131.927V45.248H131.92V45.248ZM175.597 46.935C175.629 50.38 172.861 53.194 169.428 53.194C167.803 53.2009 166.243 52.5627 165.088 51.4195C163.934 50.2762 163.281 48.7216 163.272 47.097C163.24 43.665 166.054 40.787 169.428 40.799C172.789 40.812 175.558 43.567 175.59 46.929L175.597 46.935ZM169.448 43.333C167.239 43.313 165.663 44.857 165.663 47.039C165.663 49.162 167.337 50.843 169.441 50.829C171.48 50.816 173.154 49.169 173.18 47.143C173.206 45 171.591 43.353 169.448 43.326V43.333ZM74.44 47.423H61.27C60.761 47.423 60.24 47.423 59.745 47.325C59.191 47.215 58.872 46.817 58.865 46.231C58.865 45.645 59.185 45.254 59.725 45.117C60.116 45.02 60.533 45.02 60.944 45.02C70.083 45.046 79.222 45.072 88.361 45.104C88.713 45.104 89.084 45.104 89.423 45.196C90.023 45.365 90.4 45.756 90.322 46.433C90.25 47.019 89.872 47.339 89.299 47.391C88.843 47.436 88.381 47.436 87.925 47.436H74.447L74.441 47.423H74.44ZM159.234 46.83V51.722C159.234 52.08 159.26 52.445 159.175 52.79C159.038 53.376 158.706 53.832 158.022 53.806C157.358 53.786 157.012 53.383 156.934 52.745C156.899 52.3898 156.884 52.0329 156.889 51.676C156.889 48.361 156.882 45.052 156.889 41.737C156.889 41.333 156.889 40.917 156.954 40.519C157.045 39.952 157.403 39.607 157.99 39.575C158.589 39.535 158.954 39.9 159.103 40.428C159.214 40.812 159.227 41.229 159.227 41.633C159.24 43.365 159.227 45.098 159.227 46.83H159.234V46.83ZM97.579 49.481C96.074 49.501 94.765 48.179 94.771 46.641C94.771 45.221 96.081 43.919 97.526 43.886C98.96 43.854 100.373 45.286 100.354 46.746C100.334 48.179 99.038 49.462 97.585 49.481H97.579V49.481ZM110.633 46.804C110.659 48.361 109.545 49.546 108.021 49.592C106.425 49.638 105.148 48.452 105.122 46.896C105.096 45.385 106.268 44.141 107.754 44.101C109.369 44.062 110.607 45.221 110.639 46.798L110.633 46.804V46.804ZM131.947 97.34H145.73C146.238 97.34 146.753 97.36 147.255 97.412C147.821 97.478 148.199 97.79 148.258 98.389C148.323 99.067 147.932 99.445 147.333 99.608C146.994 99.698 146.629 99.718 146.277 99.718C136.78 99.718 127.289 99.705 117.792 99.686C117.388 99.686 116.977 99.62 116.587 99.523C116.026 99.393 115.694 98.989 115.714 98.423C115.733 97.849 116.098 97.517 116.652 97.353C117.153 97.204 117.661 97.223 118.169 97.223H131.953V97.341H131.947V97.34ZM175.903 99.021C175.942 102.467 173.174 105.281 169.741 105.287C168.117 105.296 166.556 104.659 165.402 103.517C164.248 102.375 163.594 100.821 163.585 99.197C163.553 95.765 166.36 92.886 169.741 92.892C173.102 92.905 175.871 95.654 175.91 99.022H175.903V99.021ZM173.487 99.256C173.526 97.12 171.91 95.452 169.774 95.426C167.624 95.4 166.041 96.872 165.969 98.963C165.898 101.164 167.565 102.923 169.728 102.923C171.767 102.923 173.447 101.281 173.487 99.256V99.256ZM74.91 99.484H61.445C60.989 99.484 60.52 99.497 60.078 99.406C59.53 99.295 59.192 98.917 59.185 98.324C59.185 97.732 59.524 97.36 60.071 97.23C60.461 97.139 60.879 97.152 61.289 97.152L88.531 97.192C88.987 97.192 89.456 97.132 89.892 97.328C90.407 97.556 90.712 97.934 90.642 98.526C90.576 99.041 90.263 99.373 89.762 99.451C89.312 99.523 88.85 99.523 88.387 99.523H74.923V99.483H74.91V99.484ZM159.54 98.878C159.54 100.611 159.553 102.343 159.54 104.076C159.527 105.307 159.136 105.886 158.38 105.899C157.605 105.919 157.214 105.372 157.208 104.121C157.188 100.552 157.195 96.989 157.195 93.42C157.195 93.316 157.195 93.218 157.201 93.114C157.28 92.117 157.69 91.629 158.4 91.668C159.032 91.7 159.494 92.188 159.514 93.075C159.559 95.009 159.527 96.95 159.527 98.885H159.54V98.878V98.878ZM100.66 98.813C100.66 100.246 99.376 101.535 97.917 101.575C96.413 101.614 95.09 100.304 95.077 98.767C95.064 97.347 96.347 96.038 97.8 95.987C99.227 95.934 100.653 97.354 100.66 98.819V98.813V98.813ZM110.945 99.028C110.906 100.571 109.747 101.698 108.203 101.685C106.62 101.672 105.395 100.422 105.435 98.859C105.448 98.1396 105.746 97.4548 106.264 96.9552C106.782 96.4556 107.477 96.1822 108.196 96.195C109.812 96.221 110.984 97.425 110.952 99.021L110.945 99.028V99.028ZM131.973 73.75H118.033C117.577 73.75 117.108 73.756 116.658 73.678C116.104 73.58 115.733 73.203 115.714 72.629C115.688 71.979 116.085 71.587 116.704 71.464C117.049 71.392 117.414 71.405 117.772 71.405C127.269 71.412 136.76 71.425 146.258 71.437C146.616 71.437 146.981 71.424 147.32 71.509C147.925 71.659 148.31 72.056 148.258 72.721C148.212 73.313 147.841 73.652 147.281 73.731C146.831 73.795 146.362 73.789 145.906 73.789H131.966V73.756L131.973 73.75ZM175.903 73.242C175.877 76.687 173.044 79.462 169.624 79.39C166.21 79.325 163.559 76.61 163.579 73.19C163.582 72.3737 163.746 71.5661 164.064 70.814C164.381 70.0619 164.845 69.3803 165.428 68.8089C166.011 68.2375 166.701 67.7876 167.46 67.4853C168.218 67.183 169.029 67.0344 169.845 67.048C171.469 67.0691 173.018 67.7328 174.153 68.8937C175.289 70.0546 175.918 71.6182 175.903 73.242ZM169.747 76.974C171.838 76.961 173.467 75.378 173.487 73.333C173.506 71.216 171.852 69.503 169.754 69.477C167.63 69.445 165.969 71.092 165.969 73.235C165.969 75.398 167.572 76.987 169.747 76.974ZM75.047 71.346H88.36C88.816 71.346 89.279 71.346 89.735 71.418C90.236 71.49 90.555 71.808 90.627 72.33C90.706 72.923 90.412 73.294 89.897 73.535C89.513 73.711 89.103 73.685 88.693 73.685L61.301 73.645C60.995 73.645 60.689 73.632 60.389 73.58C59.744 73.463 59.191 73.21 59.184 72.434C59.178 71.659 59.712 71.372 60.37 71.294C60.923 71.229 61.49 71.229 62.05 71.229H75.06V71.346H75.047V71.346ZM157.188 72.91C157.188 71.177 157.182 69.445 157.188 67.712C157.188 67.308 157.214 66.892 157.312 66.501C157.423 66.071 157.781 65.843 158.224 65.804C158.661 65.771 159.012 65.921 159.26 66.312C159.56 66.774 159.527 67.282 159.527 67.79V78.03C159.527 78.485 159.566 78.947 159.338 79.37C159.097 79.82 158.732 80.074 158.224 80.016C157.729 79.957 157.364 79.664 157.267 79.162C157.195 78.765 157.188 78.355 157.188 77.944C157.182 76.264 157.188 74.584 157.188 72.904V72.91V72.91ZM110.946 73.066C110.946 74.596 109.767 75.814 108.275 75.841C106.757 75.867 105.428 74.564 105.428 73.04C105.428 71.568 106.698 70.252 108.119 70.252C109.675 70.252 110.952 71.522 110.946 73.072V73.066ZM97.917 70.141C99.357 70.161 100.634 71.438 100.66 72.884C100.686 74.388 99.37 75.658 97.807 75.632C97.4385 75.6249 97.075 75.5447 96.7377 75.3961C96.4004 75.2475 96.096 75.0334 95.8421 74.7663C95.5881 74.4991 95.3897 74.1842 95.2584 73.8399C95.1271 73.4955 95.0654 73.1284 95.077 72.76C95.129 71.314 96.426 70.122 97.917 70.148V70.141ZM132.331 123.081H145.939C146.447 123.081 146.961 123.101 147.463 123.159C148.036 123.231 148.401 123.596 148.46 124.156C148.518 124.736 148.16 125.087 147.645 125.309C147.254 125.478 146.851 125.459 146.44 125.459C136.962 125.452 127.484 125.439 118 125.426C117.596 125.426 117.186 125.374 116.795 125.283C116.254 125.159 115.889 124.82 115.883 124.221C115.876 123.622 116.215 123.296 116.756 123.114C117.303 122.931 117.863 122.964 118.423 122.964H132.337V123.081H132.331V123.081ZM169.839 131.028C168.214 131.018 166.659 130.367 165.511 129.217C164.363 128.067 163.716 126.511 163.709 124.886C163.702 121.479 166.582 118.594 169.943 118.633C173.272 118.678 176.099 121.518 176.099 124.82C176.099 128.24 173.265 131.047 169.839 131.028V131.028ZM169.826 121.167C167.683 121.036 166.048 122.964 166.08 124.957C166.119 126.97 167.806 128.631 169.826 128.663C171.943 128.696 173.604 127.035 173.591 124.899C173.578 122.684 172.04 121.153 169.826 121.167ZM75.222 122.925H88.524C88.98 122.925 89.455 122.905 89.892 123.016C90.478 123.166 90.908 123.57 90.817 124.228C90.745 124.775 90.387 125.146 89.801 125.205C89.4458 125.24 89.0889 125.255 88.732 125.25L61.367 125.211C61.061 125.211 60.748 125.224 60.449 125.179C59.712 125.061 59.224 124.573 59.289 123.993C59.361 123.355 59.771 122.99 60.396 122.912C60.852 122.86 61.315 122.873 61.771 122.873H75.222V122.925V122.925ZM159.638 124.664V129.556C159.638 129.959 159.631 130.376 159.56 130.774C159.468 131.275 159.13 131.575 158.622 131.633C158.107 131.692 157.749 131.451 157.508 131.001C157.299 130.624 157.306 130.22 157.306 129.81V119.258C157.306 118.854 157.28 118.444 157.488 118.066C157.729 117.623 158.068 117.35 158.589 117.408C159.097 117.46 159.449 117.753 159.553 118.248C159.638 118.646 159.638 119.056 159.638 119.466C159.644 121.199 159.638 122.932 159.638 124.664H159.644H159.638ZM111.134 124.716C111.121 126.24 109.942 127.413 108.411 127.432C106.874 127.452 105.512 126.143 105.525 124.664C105.539 123.212 106.828 121.948 108.287 121.942C109.877 121.942 111.147 123.179 111.134 124.716ZM100.757 124.579C100.744 126.058 99.52 127.289 98.041 127.315C96.523 127.341 95.266 126.058 95.272 124.475C95.272 123.01 96.517 121.746 97.982 121.72C99.442 121.687 100.77 123.062 100.757 124.579ZM68.597 174.966C68.597 175.396 68.396 175.761 68.181 176.099C66.871 178.164 65.549 180.222 64.227 182.28C64.0839 182.49 63.9126 182.678 63.718 182.841C63.471 183.049 63.184 183.121 62.872 182.938C62.566 182.762 62.494 182.476 62.5 182.157C62.513 181.785 62.715 181.486 62.917 181.186C64.22 179.304 65.523 177.409 66.839 175.533C67.099 175.161 67.438 174.842 67.77 174.53C67.8449 174.458 67.9405 174.411 68.0434 174.396C68.1463 174.381 68.2514 174.398 68.344 174.445C68.539 174.549 68.598 174.745 68.591 174.96L68.598 174.966H68.597Z" fill="black"/>
<path d="M281 181C277.368 187.733 273.64 194.562 270.893 201.713C261.76 225.481 266.797 249.401 244.501 266.997C235.706 273.939 220.435 299.356 209.624 301.038C199.169 302.664 188.657 302.499 178.116 302.499C166.116 302.499 154.079 301.477 142.085 301.991C121.3 302.882 111.67 324.374 91.516 325.817C69.192 327.416 47.446 318.397 30.59 303.929C13.19 288.993 -1.00005 258 2.99995 228C6.38595 214.207 14.94 197.464 26.91 194.756C28.797 194.329 31.167 193.58 33.086 193.58C34.356 193.58 37.8619 193.197 38.9819 192.437" stroke="black" stroke-width="4" stroke-linecap="round"/>
</g>
<defs>
<clipPath id="clip0_1276_2349">
<rect width="417" height="328" fill="white"/>
</clipPath>
</defs>
</svg>
